G04 DipTrace 2.4.0.2*
%INBottom.gbr*%
%MOMM*%
%ADD14C,0.5*%
%ADD15C,0.75*%
%ADD16C,0.35*%
%ADD17C,1.8*%
%ADD18R,1.8X1.8*%
%ADD26C,2.5*%
%ADD27R,2.0X1.5*%
%ADD28R,1.7X1.7*%
%ADD29C,1.7*%
%ADD30R,1.5X2.0*%
%ADD31C,0.7*%
%FSLAX53Y53*%
G04*
G71*
G90*
G75*
G01*
%LNBottom*%
%LPD*%
X46672Y77470D2*
D14*
X55403Y86200D1*
X78740D1*
X84772Y73660D2*
X76517D1*
X75883Y74295D1*
X44768D1*
X78739Y87470D2*
X54768D1*
X43498Y76200D1*
X89853Y87470D2*
X78739D1*
X106680Y73501D2*
D15*
X104140D1*
D14*
X89853Y73507D1*
X106680Y81121D2*
D15*
X104140D1*
X39688Y74295D2*
D14*
Y78105D1*
X42545Y80962D1*
X78739Y91280D2*
X52863D1*
X42545Y80962D1*
X104140Y81121D2*
X86043Y81087D1*
X106680Y76041D2*
D15*
X104140D1*
X42227Y74295D2*
D14*
Y76835D1*
X43815Y78422D1*
X78739Y88740D2*
X54133D1*
X43815Y78422D1*
X88582Y88740D2*
X78739D1*
X104140Y76041D2*
X88582Y76033D1*
X106680Y78581D2*
D15*
X104140D1*
X40958Y74295D2*
D14*
Y77470D1*
X43180Y79692D1*
X78739Y90010D2*
X53498D1*
X43180Y79692D1*
X87312Y90010D2*
X78739D1*
X104140Y78581D2*
X87312D1*
X85399Y49054D2*
D15*
X72549D1*
X68420Y44925D1*
X67628Y44133D1*
X40986D1*
Y49689D1*
Y44133D2*
X34290D1*
X16351Y62071D1*
Y75614D1*
Y83344D1*
X28099Y95091D1*
X57626D1*
X103822Y104299D2*
X80804D1*
X78422Y101918D1*
X78105D1*
X67945D1*
X61119Y95091D1*
X57626D1*
X68420Y44925D2*
D14*
Y45242D1*
X69532Y46355D1*
X76835Y101918D2*
D15*
X78105D1*
X91599Y83661D2*
D16*
X104140D1*
X106680D2*
Y83502D1*
X105569Y82391D1*
X92551D1*
X100171Y27305D2*
X102394D1*
X92075D2*
X89694D1*
X88265Y25876D1*
X81597Y24606D2*
X65087D1*
X60960Y24765D2*
Y24606D1*
X35560D1*
X97155Y23495D2*
Y22543D1*
X94297Y19685D1*
X81472D1*
X61120D1*
X35560D1*
X34449Y20796D1*
X32861D1*
X106680Y25876D2*
D15*
X104140D1*
D14*
X98584D1*
X97155Y24448D1*
Y23495D1*
X106680Y33496D2*
D15*
X104140D1*
X29211Y22543D2*
D16*
Y23495D1*
X61124D1*
X81600D1*
X93345D1*
D14*
Y27305D1*
X99536Y33496D1*
X104140D1*
X106680Y28416D2*
D15*
X104140D1*
X95885Y23495D2*
D16*
Y22860D1*
X93980Y20955D1*
X81600D1*
X61087D1*
Y20796D1*
X35719D1*
X34925Y21590D1*
X31751D1*
X95885Y23495D2*
D14*
Y25083D1*
X99219Y28416D1*
X104140D1*
X106680Y30956D2*
D15*
X104140D1*
X94615Y23495D2*
D16*
X93345Y22225D1*
X81440D1*
X61120D1*
Y22066D1*
X36354D1*
X35877Y22543D1*
X30480D1*
X94615Y23495D2*
D14*
Y25876D1*
X99695Y30956D1*
X104140D1*
X106680Y36036D2*
D16*
Y36830D1*
X106204Y37306D1*
X101124D1*
X92551Y28734D1*
X88741D1*
X86043Y26035D1*
X27941D1*
X32065Y56512D2*
D14*
X36193D1*
X37148Y57468D1*
Y68897D1*
X31748Y52703D2*
X34922D1*
X38417Y56197D1*
Y68897D1*
X106680Y38576D2*
D15*
X104140D1*
X106680Y86201D2*
X104140D1*
X85167Y27305D2*
X68064D1*
X26671D1*
X25401Y26035D1*
X104140Y38576D2*
X99854D1*
X92234Y30956D1*
X88818D1*
X85167Y27305D1*
X104140Y86201D2*
X99219D1*
X90170Y95250D1*
X82391D1*
X70168D1*
X67469Y92551D1*
X50165D1*
X42545Y84931D1*
Y84772D1*
X38735Y80962D1*
Y75248D1*
X37941Y74454D1*
X35877D1*
X82228Y76517D2*
D14*
Y80799D1*
X84772Y83344D1*
X89535D1*
X92392Y86201D1*
X99219D1*
X37306Y75883D2*
X34607D1*
X25876D1*
X25241Y76517D1*
X45085Y64770D2*
Y59188D1*
X43841Y57944D1*
X91123Y67786D2*
Y57944D1*
X92075Y56991D1*
X80328Y70009D2*
X86519D1*
X88900D1*
X91123Y67786D1*
X92075Y56991D2*
X71596D1*
X67310Y52705D1*
X49212D1*
X46672D1*
X43841Y55536D1*
Y57944D1*
X95574Y7461D2*
X93128D1*
X90494D1*
X87947D1*
X85414D1*
X82867D1*
X80334D1*
X77787D1*
X75254D1*
X72707D1*
X70174D1*
X67627D1*
X65094D1*
X62547D1*
X60014D1*
X57413D1*
X54934D1*
X52387D1*
X49854D1*
X47307D1*
X44774D1*
X42227D1*
X39694D1*
X37147D1*
X34614D1*
X32067D1*
X29514D1*
X27115D1*
X24448D1*
X21907D1*
X19367D1*
X93034Y11112D2*
Y7556D1*
X93128Y7461D1*
X87947Y11106D2*
Y7461D1*
X82867Y11106D2*
Y7461D1*
X77787Y11106D2*
Y7461D1*
X72707Y11106D2*
Y7461D1*
X67627Y11106D2*
Y7461D1*
X62547Y11106D2*
Y7461D1*
X57474Y11106D2*
Y7522D1*
X57413Y7461D1*
X52387Y11106D2*
Y7461D1*
X47307Y11106D2*
Y7461D1*
X42227Y11106D2*
Y7461D1*
X37147Y10947D2*
Y7461D1*
X32067Y10947D2*
Y7461D1*
X26994Y11106D2*
Y7583D1*
X27115Y7461D1*
X21907Y10947D2*
Y7461D1*
X80328Y18415D2*
X60089D1*
X39529D1*
X98425D2*
X80328D1*
X106680Y23336D2*
D15*
X104140D1*
X106680Y70961D2*
X104140D1*
Y23336D2*
X103346D1*
X98425Y18415D1*
X34607Y75883D2*
Y71279D1*
X35401Y70485D1*
X43974D1*
X45085Y69374D1*
Y64770D1*
X66516Y96044D2*
X64611Y94139D1*
X48419D1*
X42384Y88104D1*
X37306Y83026D1*
Y75883D1*
X104140Y70961D2*
X97473D1*
X94298D1*
X91123Y67786D1*
X42386Y87947D2*
D14*
X42230Y88104D1*
X42384D1*
X78105Y85249D2*
X80420D1*
X89376D1*
X91440Y87312D1*
Y90646D1*
X88582Y93504D1*
X80420Y85249D2*
Y76266D1*
X81280Y75406D1*
X85249D1*
X86519Y74136D1*
Y70009D1*
X103822Y100799D2*
D15*
Y101600D1*
X96838D1*
X93663Y98425D1*
X68898D1*
X66516Y96044D1*
X49213Y46355D2*
X49212Y52705D1*
X97155Y101918D2*
X96838Y101600D1*
D31*
X46672Y77470D3*
X78740Y86200D3*
X84772Y73660D3*
X44768Y74295D3*
X78739Y87470D3*
X43498Y76200D3*
X89853Y87470D3*
X78739D3*
X89853Y73507D3*
X39688Y74295D3*
X42545Y80962D3*
X78739Y91280D3*
X86043Y81087D3*
X42227Y74295D3*
X43815Y78422D3*
X78739Y88740D3*
X88582D3*
X78739D3*
X88582Y76033D3*
X40958Y74295D3*
X43180Y79692D3*
X78739Y90010D3*
X87312D3*
X78739D3*
X87312Y78581D3*
X85399Y49054D3*
X40986Y49689D3*
X16351Y75614D3*
D3*
X57626Y95091D3*
D3*
X91599Y83661D3*
X92551Y82391D3*
X100171Y27305D3*
X102394D3*
X92075D3*
X88265Y25876D3*
X81597Y24606D3*
X65087D3*
X60960Y24765D3*
X35560Y24606D3*
X97155Y23495D3*
X32861Y20796D3*
X61120Y19685D3*
X81472D3*
X97155Y23495D3*
X29211Y22543D3*
X93345Y23495D3*
X61124D3*
X81600D3*
X95885D3*
X31751Y21590D3*
X61087Y20955D3*
X81600D3*
X95885Y23495D3*
X94615D3*
X30480Y22543D3*
X61120Y22225D3*
X81440D3*
X94615Y23495D3*
X27941Y26035D3*
X32065Y56512D3*
X37148Y68897D3*
X31748Y52703D3*
X38417Y68897D3*
X85167Y27305D3*
X25401Y26035D3*
X68064Y27305D3*
X85167D3*
X82391Y95250D3*
X42545Y84931D3*
X35877Y74454D3*
X82228Y76517D3*
X37306Y75883D3*
X25241Y76517D3*
X45085Y64770D3*
X43841Y57944D3*
X91123Y67786D3*
X92075Y56991D3*
X80328Y70009D3*
X91123Y67786D3*
X92075Y56991D3*
X43841Y57944D3*
X95574Y7461D3*
X19367D3*
X24448D3*
X29514D3*
X34614D3*
X39694D3*
X44774D3*
X49854D3*
X54934D3*
X60014D3*
X65094D3*
X70174D3*
X75254D3*
X80334D3*
X85414D3*
X90494D3*
X93034Y11112D3*
X87947Y11106D3*
X82867D3*
X77787D3*
X72707D3*
X67627D3*
X62547D3*
X57474D3*
X52387D3*
X47307D3*
X42227D3*
X37147Y10947D3*
X32067D3*
X26994Y11106D3*
X21907Y10947D3*
X80328Y18415D3*
X39529D3*
X60089D3*
X98425D3*
X80328D3*
X98425D3*
X39529D3*
X45085Y64770D3*
X66516Y96044D3*
X37306Y75883D3*
X91123Y67786D3*
X42386Y87947D3*
X78105Y85249D3*
X88582Y93504D3*
X97473Y70961D3*
D17*
X49213Y46355D3*
D18*
X69532D3*
D17*
X97155Y101918D3*
D18*
X76835D3*
D26*
X103822Y104299D3*
Y100799D3*
D27*
X1825Y103878D3*
Y101338D3*
Y98798D3*
Y96258D3*
Y93718D3*
Y91178D3*
Y88638D3*
Y86098D3*
Y83558D3*
Y81018D3*
Y78478D3*
Y75938D3*
Y73398D3*
Y70858D3*
Y68318D3*
Y65778D3*
Y63238D3*
Y60698D3*
Y58158D3*
Y55618D3*
Y53078D3*
Y50538D3*
Y47998D3*
Y45458D3*
Y42918D3*
Y40378D3*
Y37838D3*
Y35298D3*
Y32758D3*
Y30218D3*
Y27678D3*
Y25138D3*
X24Y103878D3*
Y101338D3*
Y98798D3*
Y96258D3*
Y93718D3*
Y91178D3*
Y88638D3*
Y86098D3*
Y83558D3*
Y81018D3*
Y78478D3*
Y75938D3*
Y73398D3*
Y70858D3*
Y68318D3*
Y65778D3*
Y63238D3*
Y60698D3*
Y58158D3*
Y55618D3*
Y53078D3*
Y50538D3*
Y47998D3*
Y45458D3*
Y42918D3*
Y40378D3*
Y37838D3*
Y35298D3*
Y32758D3*
Y30218D3*
Y27678D3*
Y25138D3*
D28*
X104140Y86201D3*
D29*
Y83661D3*
Y81121D3*
Y78581D3*
Y76041D3*
Y73501D3*
Y70961D3*
D28*
X106680Y86201D3*
D29*
Y83661D3*
Y81121D3*
Y78581D3*
Y76041D3*
Y73501D3*
Y70961D3*
D30*
X17725Y1800D3*
X20264D3*
X22805D3*
X25345D3*
X27885D3*
X30425D3*
X32965D3*
X35505D3*
X38044D3*
X40584D3*
X43125D3*
X45665D3*
X48204D3*
X50744D3*
X53285D3*
X55825D3*
X58364D3*
X60905D3*
X63445D3*
X65985D3*
X68525D3*
X71064D3*
X73605D3*
X76145D3*
X78684D3*
X81224D3*
X83764D3*
X86305D3*
X88844D3*
X91385D3*
X93925D3*
X96465D3*
X17725Y0D3*
X20264D3*
X22805D3*
X25345D3*
X27885D3*
X30425D3*
X32965D3*
X35505D3*
X38044D3*
X40584D3*
X43125D3*
X45665D3*
X48204D3*
X50744D3*
X53285D3*
X55825D3*
X58364D3*
X60905D3*
X63445D3*
X65985D3*
X68525D3*
X71064D3*
X73605D3*
X76145D3*
X78684D3*
X81224D3*
X83764D3*
X86305D3*
X88844D3*
X91385D3*
X93925D3*
X96465D3*
D28*
X106680Y38576D3*
D29*
Y36036D3*
Y33496D3*
Y30956D3*
Y28416D3*
Y25876D3*
Y23336D3*
D28*
X104140Y38576D3*
D29*
Y36036D3*
Y33496D3*
Y30956D3*
Y28416D3*
Y25876D3*
Y23336D3*
M02*
