G04 DipTrace 2.4.0.2*
%INBottomMask.gbr*%
%MOMM*%
%ADD28C,3.0*%
%ADD33R,2.0X2.0*%
%ADD47C,19.0*%
%ADD70C,2.7*%
%ADD73C,2.0*%
%ADD75R,2.2X2.2*%
%ADD76C,1.724*%
%ADD78R,1.724X1.724*%
%ADD82C,3.2*%
%ADD84C,1.7*%
%ADD86C,1.9*%
%ADD88R,1.9X1.9*%
%FSLAX53Y53*%
G04*
G71*
G90*
G75*
G01*
%LNBotMask*%
%LPD*%
D88*
X142413Y126695D3*
D86*
Y122195D3*
X148913D3*
Y126695D3*
D88*
X95091Y128270D3*
D86*
Y132770D3*
X88591D3*
Y128270D3*
D88*
X85725Y123825D3*
D86*
Y128325D3*
X79225D3*
Y123825D3*
D88*
X104299D3*
D86*
Y128325D3*
X97799D3*
Y123825D3*
D88*
X95091Y119062D3*
D86*
Y123562D3*
X88591D3*
Y119062D3*
D88*
X89217Y148431D3*
D86*
Y152931D3*
X82718D3*
Y148431D3*
D84*
X130969Y145574D3*
X128469D3*
X130969Y147574D3*
X128469D3*
D82*
X135745Y150225D3*
X123680D3*
D78*
X96996Y149225D3*
D76*
X99536D3*
X102076D3*
X104616D3*
X107156D3*
X109696D3*
X112236D3*
Y151765D3*
X109696D3*
X107156D3*
X104616D3*
X102076D3*
X99536D3*
X96996D3*
D75*
X38735Y8255D3*
X41275D3*
X43815D3*
X46355D3*
X48895D3*
X51435D3*
X53975D3*
X56515D3*
X59055D3*
X61595D3*
X64135D3*
X66675D3*
X69215D3*
X71755D3*
X74295D3*
X76835D3*
X79375D3*
X81915D3*
X84455D3*
X86995D3*
X89535D3*
X92075D3*
X94615D3*
X97155D3*
X99695D3*
X102235D3*
X104775D3*
X107315D3*
X109855D3*
X112395D3*
X114935D3*
X117475D3*
D88*
X145732Y45244D3*
D86*
Y42704D3*
Y40164D3*
Y37624D3*
Y35084D3*
Y32544D3*
Y30004D3*
D88*
X148273Y45244D3*
D86*
Y42704D3*
Y40164D3*
Y37624D3*
Y35084D3*
Y32544D3*
Y30004D3*
D73*
X17463Y13970D3*
D33*
Y34290D3*
D70*
X8731Y28734D3*
Y25234D3*
D75*
X8890Y119380D3*
Y116840D3*
Y114300D3*
Y111760D3*
Y109220D3*
Y106680D3*
Y104140D3*
Y101600D3*
Y99060D3*
Y96520D3*
Y93980D3*
Y91440D3*
Y88900D3*
Y86360D3*
Y83820D3*
Y81280D3*
Y78740D3*
Y76200D3*
Y73660D3*
Y71120D3*
Y68580D3*
Y66040D3*
Y63500D3*
Y60960D3*
Y58420D3*
Y55880D3*
Y53340D3*
Y50800D3*
Y48260D3*
Y45720D3*
Y43180D3*
Y40640D3*
D88*
X144780Y105569D3*
D86*
Y103029D3*
Y100489D3*
Y97949D3*
Y95409D3*
Y92869D3*
Y90329D3*
D88*
X147320Y105568D3*
D86*
Y103028D3*
Y100488D3*
Y97948D3*
Y95408D3*
Y92868D3*
Y90328D3*
D28*
X5080Y5080D3*
Y153035D3*
X153035D3*
Y5080D3*
D47*
X78740Y78740D3*
M02*
