M48
METRIC,0000.00
T01C0.3
T02C0.6
T03C0.8
T04C0.965
T05C1.0
T06C1.1
T07C1.2
T08C2.3
T09C3.0
T10C19.0
%
T01
X+002413Y+014859
X+002445Y+014446
X+002477Y+014034
X+002445Y+013621
X+003064Y+013731
X+003064Y+014144
X+003064Y+014556
X+003064Y+014970
X+004716Y+014970
X+004715Y+014556
X+004716Y+014144
X+004716Y+013731
X+004716Y+013318
X+004716Y+012905
X+004715Y+012493
X+005112Y+012597
X+004716Y+012080
X+004715Y+011667
X+004715Y+011254
X+004715Y+010842
X+004715Y+010429
X+004715Y+010017
X+004715Y+009604
X+004716Y+009191
X+005112Y+009303
X+004716Y+008778
X+004716Y+008366
X+004716Y+007953
X+004716Y+007541
X+004716Y+007128
X+004716Y+006715
X+004716Y+006302
X+004716Y+005890
X+004716Y+005477
X+003064Y+005477
X+003064Y+005890
X+003064Y+006302
X+003064Y+006715
X+003064Y+007128
X+003064Y+007541
X+003064Y+007953
X+003064Y+008366
X+003064Y+008778
X+003064Y+009191
X+003064Y+009604
X+003064Y+010017
X+003064Y+010429
X+003064Y+010842
X+003064Y+011254
X+003064Y+011667
X+003064Y+012080
X+003064Y+012493
X+003064Y+012905
X+003064Y+013318
X+005794Y+012668
X+006239Y+012843
X+006334Y+012970
X+006414Y+013097
X+006715Y+013224
X+006826Y+013351
X+006985Y+013589
X+006493Y+013795
X+006826Y+012716
X+006160Y+010716
X+006414Y+009956
X+006334Y+009827
X+006239Y+009700
X+005842Y+009573
X+006826Y+009573
X+006985Y+009700
X+006842Y+009826
X+006842Y+009954
X+006715Y+010081
X+006826Y+010192
X+007239Y+010589
X+006573Y+007572
X+006826Y+006985
X+006715Y+006858
X+006414Y+006731
X+006334Y+006604
X+006239Y+006477
X+006207Y+006350
X+008461Y+006350
X+009208Y+005874
X+009621Y+005874
X+010033Y+005874
X+010446Y+005874
X+010859Y+005874
X+011272Y+005874
X+011684Y+005874
X+012097Y+005874
X+010746Y+006662
X+010859Y+007493
X+011272Y+007525
X+011684Y+007525
X+012097Y+007525
X+010761Y+007922
X+010446Y+007525
X+010033Y+007525
X+009621Y+007525
X+009208Y+007525
X+010239Y+009303
X+010700Y+009176
X+010827Y+009557
X+011081Y+009826
X+011208Y+009700
X+010954Y+009954
X+010827Y+010049
X+011335Y+010144
X+011444Y+010049
X+011335Y+009017
X+010432Y+010557
X+011717Y+012066
X+012283Y+011902
X+013166Y+011975
X+013305Y+011574
X+013241Y+011463
X+013527Y+011733
X+013606Y+011812
X+013765Y+012193
X+013686Y+012273
X+013606Y+012368
X+013956Y+012177
X+013956Y+011590
X+013463Y+010891
X+013352Y+010891
X+013654Y+010733
X+014257Y+010748
X+012474Y+010557
X+012638Y+012924
X+012987Y+012876
X+013153Y+012967
X+013749Y+012812
X+013589Y+013653
X+013160Y+013779
X+013160Y+014065
X+012700Y+013653
X+012431Y+013479
X+012287Y+013036
X+014006Y+013827
X+013368Y+004270
X+013240Y+004016
X+013335Y+003842
X+013287Y+003508
X+012986Y+003683
X+012859Y+003683
X+012732Y+003762
X+012605Y+003842
X+012478Y+003921
X+012779Y+004016
X+012859Y+004191
X+012107Y+004016
X+012351Y+003334
X+011906Y+003254
X+011811Y+001716
X+011462Y+001714
X+011113Y+001714
X+010763Y+001714
X+010414Y+001714
X+010065Y+001714
X+009716Y+001715
X+009366Y+001714
X+009017Y+001714
X+008668Y+001714
X+008319Y+001714
X+007969Y+001715
X+007620Y+001714
X+007271Y+001714
X+006922Y+001718
X+006572Y+001714
X+006223Y+001718
X+005874Y+001718
X+005525Y+001714
X+005175Y+001713
X+004826Y+001711
X+004477Y+001714
X+004128Y+001714
X+003778Y+001716
X+003429Y+001714
X+003080Y+001714
X+002699Y+001714
X+002350Y+001714
X+001968Y+001826
X+001746Y+001968
X+003524Y+003683
X+003714Y+004016
X+004096Y+003921
X+004223Y+003842
X+004350Y+003762
X+004477Y+003683
X+004604Y+003334
X+004604Y+003159
X+003969Y+003270
X+006318Y+003254
X+006763Y+003334
X+007018Y+003842
X+007144Y+003762
X+007268Y+003683
X+007398Y+003334
X+007398Y+003159
X+006890Y+003921
X+006509Y+004016
X+009112Y+003254
X+009557Y+003334
X+009810Y+003842
X+009938Y+003762
X+010063Y+003683
X+010192Y+003334
X+010192Y+003143
X+009682Y+003921
X+009303Y+004016
X+012160Y+001714
X+012510Y+001714
X+012859Y+001714
X+013208Y+001714
X+003852Y+009716
T02
X+013097Y+014557
X+013097Y+014757
X+012847Y+014757
X+012847Y+014557
T03
X+003873Y+000826
X+004127Y+000826
X+004381Y+000826
X+004635Y+000826
X+004890Y+000826
X+005144Y+000826
X+005398Y+000826
X+005651Y+000826
X+005905Y+000826
X+006159Y+000826
X+006414Y+000826
X+006667Y+000826
X+006921Y+000826
X+007175Y+000826
X+007430Y+000826
X+007683Y+000826
X+007938Y+000826
X+008192Y+000826
X+008445Y+000826
X+008700Y+000826
X+008953Y+000826
X+009208Y+000826
X+009462Y+000826
X+009715Y+000826
X+009970Y+000826
X+010223Y+000826
X+010477Y+000826
X+010731Y+000826
X+010986Y+000826
X+011239Y+000826
X+011494Y+000826
X+011748Y+000826
X+000889Y+004064
X+000889Y+004318
X+000889Y+004572
X+000889Y+004826
X+000889Y+005080
X+000889Y+005334
X+000889Y+005588
X+000889Y+005842
X+000889Y+006096
X+000889Y+006350
X+000889Y+006604
X+000889Y+006858
X+000889Y+007112
X+000889Y+007366
X+000889Y+007620
X+000889Y+007874
X+000889Y+008128
X+000889Y+008382
X+000889Y+008636
X+000889Y+008890
X+000889Y+009144
X+000889Y+009398
X+000889Y+009652
X+000889Y+009906
X+000889Y+010160
X+000889Y+010414
X+000889Y+010668
X+000889Y+010922
X+000889Y+011176
X+000889Y+011430
X+000889Y+011684
X+000889Y+011938
T04
X+009700Y+014922
X+009954Y+014922
X+010208Y+014922
X+010462Y+014922
X+010716Y+014922
X+010970Y+014922
X+011224Y+014922
X+011224Y+015177
X+010970Y+015177
X+010716Y+015177
X+010462Y+015177
X+010208Y+015177
X+009954Y+015177
X+009700Y+015177
T05
X+014241Y+012670
X+014241Y+012220
X+014891Y+012220
X+014891Y+012670
X+010430Y+012833
X+010430Y+012383
X+009780Y+012383
X+009509Y+012356
X+009509Y+011906
X+008859Y+011906
X+008859Y+012356
X+008573Y+012383
X+008573Y+012833
X+008859Y+012827
X+008859Y+013277
X+009509Y+013277
X+009509Y+012827
X+009780Y+012833
X+007923Y+012833
X+007923Y+012383
X+008272Y+014843
X+008272Y+015293
X+008922Y+015293
X+008922Y+014843
X+000873Y+002873
X+000873Y+002523
T06
X+014573Y+004524
X+014573Y+004270
X+014573Y+004016
X+014573Y+003762
X+014573Y+003508
X+014573Y+003254
X+014573Y+003000
X+014827Y+003000
X+014827Y+003254
X+014827Y+003508
X+014827Y+003762
X+014827Y+004016
X+014827Y+004270
X+014827Y+004524
X+014732Y+009033
X+014732Y+009287
X+014732Y+009541
X+014732Y+009795
X+014732Y+010049
X+014732Y+010303
X+014732Y+010557
X+014478Y+010557
X+014478Y+010303
X+014478Y+010049
X+014478Y+009795
X+014478Y+009541
X+014478Y+009287
X+014478Y+009033
T07
X+001746Y+001397
X+001746Y+003429
T08
X+013574Y+015022
X+012368Y+015022
T09
X+000508Y+000508
X+000508Y+015303
X+015303Y+015303
X+015303Y+000508
T10
X+007874Y+007874
T00
M30
