M48
METRIC,0000.00
T01C0.3
T02C0.8
T03C1.0
T04C1.1
T05C1.2
T06C19.0
%
T01
X+004667Y+007747
X+004381Y+007842
X+004318Y+007969
X+004254Y+008096
X+004254Y+008493
X+004239Y+008795
X+004350Y+007620
X+004477Y+007430
X+004223Y+007430
X+004096Y+007430
X+003969Y+007430
X+003731Y+007588
X+003588Y+007445
X+003715Y+006890
X+003842Y+006890
X+004509Y+006477
X+004384Y+005794
X+004099Y+004969
X+003175Y+005270
X+003206Y+005651
X+002524Y+007652
X+001635Y+007561
X+005763Y+009509
X+006652Y+009604
X+007874Y+009128
X+007874Y+009001
X+007874Y+008874
X+007874Y+008747
X+007874Y+008620
X+007811Y+008525
X+008604Y+008109
X+008731Y+007858
X+008858Y+007603
X+008985Y+007351
X+008477Y+007366
X+008223Y+007652
X+008033Y+007001
X+009112Y+006779
X+009747Y+007096
X+009255Y+008239
X+009160Y+008366
X+008985Y+008747
X+008858Y+008874
X+008731Y+009001
X+008858Y+009350
X+008239Y+009525
X+009208Y+005699
X+008540Y+004905
X+008517Y+002730
X+008827Y+002588
X+009208Y+002730
X+009334Y+002350
X+009462Y+002350
X+009588Y+002350
X+009716Y+002350
X+010017Y+002730
X+010239Y+002730
X+009842Y+001841
X+009303Y+001111
X+009049Y+000746
X+008795Y+001111
X+008541Y+000746
X+008287Y+001111
X+008033Y+000746
X+007779Y+001111
X+007525Y+000746
X+007271Y+001111
X+007017Y+000746
X+006763Y+001111
X+006509Y+000746
X+006255Y+001111
X+006001Y+000746
X+005747Y+001111
X+005493Y+000746
X+005239Y+001111
X+004985Y+000746
X+004731Y+001111
X+004477Y+000746
X+004223Y+001111
X+003969Y+000746
X+003715Y+001095
X+003461Y+000746
X+003207Y+001095
X+002951Y+000746
X+002699Y+001111
X+002445Y+000746
X+002191Y+001095
X+001937Y+000746
X+002921Y+002254
X+003048Y+002254
X+003175Y+002159
X+003286Y+002080
X+003556Y+002461
X+003953Y+001841
X+002794Y+002603
X+002540Y+002603
X+006009Y+001841
X+006112Y+001968
X+006109Y+002096
X+006112Y+002222
X+006112Y+002350
X+006096Y+002477
X+006509Y+002461
X+006806Y+002730
X+008160Y+002461
X+008160Y+002350
X+008144Y+002222
X+008160Y+002096
X+008147Y+001968
X+008033Y+001841
X+009557Y+000746
T02
X+000182Y+010388
X+000002Y+010388
X+000002Y+010134
X+000182Y+010134
X+000182Y+009880
X+000002Y+009880
X+000002Y+009626
X+000182Y+009626
X+000182Y+009372
X+000002Y+009372
X+000002Y+009118
X+000182Y+009118
X+000182Y+008864
X+000002Y+008864
X+000002Y+008610
X+000182Y+008610
X+000182Y+008356
X+000002Y+008356
X+000002Y+008102
X+000182Y+008102
X+000182Y+007848
X+000002Y+007848
X+000002Y+007594
X+000182Y+007594
X+000182Y+007340
X+000002Y+007340
X+000002Y+007086
X+000182Y+007086
X+000182Y+006832
X+000002Y+006832
X+000002Y+006578
X+000182Y+006578
X+000182Y+006324
X+000002Y+006324
X+000002Y+006070
X+000182Y+006070
X+000182Y+005816
X+000002Y+005816
X+000002Y+005562
X+000182Y+005562
X+000182Y+005308
X+000002Y+005308
X+000002Y+005054
X+000182Y+005054
X+000182Y+004800
X+000002Y+004800
X+000002Y+004546
X+000182Y+004546
X+000182Y+004292
X+000002Y+004292
X+000002Y+004038
X+000182Y+004038
X+000182Y+003784
X+000002Y+003784
X+000002Y+003530
X+000182Y+003530
X+000182Y+003276
X+000002Y+003276
X+000002Y+003022
X+000182Y+003022
X+000182Y+002768
X+000002Y+002768
X+000002Y+002514
X+000182Y+002514
X+001772Y+000180
X+001772Y+000000
X+002026Y+000000
X+002026Y+000180
X+002280Y+000180
X+002280Y+000000
X+002534Y+000000
X+002534Y+000180
X+002788Y+000180
X+002788Y+000000
X+003042Y+000000
X+003042Y+000180
X+003296Y+000180
X+003296Y+000000
X+003550Y+000000
X+003550Y+000180
X+003804Y+000180
X+003804Y+000000
X+004058Y+000000
X+004058Y+000180
X+004312Y+000180
X+004312Y+000000
X+004566Y+000000
X+004566Y+000180
X+004820Y+000180
X+004820Y+000000
X+005074Y+000000
X+005074Y+000180
X+005328Y+000180
X+005328Y+000000
X+005582Y+000000
X+005582Y+000180
X+005836Y+000180
X+005836Y+000000
X+006090Y+000000
X+006090Y+000180
X+006344Y+000180
X+006344Y+000000
X+006598Y+000000
X+006598Y+000180
X+006852Y+000180
X+006852Y+000000
X+007106Y+000000
X+007106Y+000180
X+007360Y+000180
X+007360Y+000000
X+007614Y+000000
X+007614Y+000180
X+007868Y+000180
X+007868Y+000000
X+008122Y+000000
X+008122Y+000180
X+008376Y+000180
X+008376Y+000000
X+008630Y+000000
X+008630Y+000180
X+008884Y+000180
X+008884Y+000000
X+009138Y+000000
X+009138Y+000180
X+009392Y+000180
X+009392Y+000000
X+009646Y+000000
X+009646Y+000180
T03
X+010382Y+010430
X+010382Y+010080
T04
X+010414Y+008620
X+010414Y+008366
X+010414Y+008112
X+010414Y+007858
X+010414Y+007604
X+010414Y+007350
X+010414Y+007096
X+010668Y+007096
X+010668Y+007350
X+010668Y+007604
X+010668Y+007858
X+010668Y+008112
X+010668Y+008366
X+010668Y+008620
X+010668Y+003858
X+010668Y+003604
X+010668Y+003350
X+010668Y+003096
X+010668Y+002842
X+010668Y+002588
X+010668Y+002334
X+010414Y+002334
X+010414Y+002588
X+010414Y+002842
X+010414Y+003096
X+010414Y+003350
X+010414Y+003604
X+010414Y+003858
T05
X+004921Y+004635
X+006953Y+004635
X+007684Y+010192
X+009716Y+010192
T06
X+005778Y+006350
T00
M30
