G04 DipTrace 2.4.0.2*
%INTop.gbr*%
%MOMM*%
%ADD14C,0.5*%
%ADD15C,0.75*%
%ADD16C,0.35*%
%ADD17C,1.8*%
%ADD18R,1.8X1.8*%
%ADD19R,1.5X1.3*%
%ADD20R,1.3X1.5*%
%ADD21R,2.0X0.6*%
%ADD22R,0.6X2.0*%
%ADD24R,1.05X0.65*%
%ADD25R,0.65X1.05*%
%ADD26C,2.5*%
%ADD27R,2.0X1.5*%
%ADD28R,1.7X1.7*%
%ADD29C,1.7*%
%ADD30R,1.5X2.0*%
%ADD31C,0.7*%
%FSLAX53Y53*%
G04*
G71*
G90*
G75*
G01*
%LNTop*%
%LPD*%
X1825Y103878D2*
D14*
X5453D1*
X6999Y105424D1*
X52221D1*
X53017Y104628D1*
X1825Y30218D2*
X4161D1*
X8550Y34607D1*
X82694D1*
X91275Y43188D1*
Y44298D1*
X91120Y44453D1*
X1825Y27678D2*
X4161D1*
X9820Y33337D1*
X85393D1*
X94926Y42870D1*
Y44449D1*
X94930Y44453D1*
X38417Y72392D2*
Y74930D1*
X39370Y75883D1*
X40960D1*
X45724Y3890D2*
Y1859D1*
X45664Y1800D1*
X35564Y3890D2*
Y1859D1*
X35505Y1800D1*
X33024Y7700D2*
Y1859D1*
X32965Y1800D1*
X81284Y3890D2*
Y1859D1*
X81224Y1800D1*
X1825Y65778D2*
X11486D1*
X11750Y66043D1*
X1825Y68318D2*
X10031D1*
X10462Y68749D1*
Y69384D1*
X10939Y69861D1*
X11742D1*
X11750Y69853D1*
X1825Y70858D2*
X9396D1*
X10145Y71607D1*
Y73195D1*
X10621Y73671D1*
X11741D1*
X11750Y73663D1*
X1825Y73398D2*
X8760D1*
X10145Y74782D1*
Y77005D1*
X10621Y77482D1*
X11741D1*
X11750Y77472D1*
X1825Y75938D2*
X7808D1*
X10304Y78434D1*
Y80657D1*
X10939Y81292D1*
X11741D1*
X11750Y81282D1*
X1825Y78478D2*
X8284D1*
X9351Y79546D1*
Y83832D1*
X10621Y85102D1*
X11740D1*
X11750Y85093D1*
X1825Y81018D2*
X7172D1*
X8398Y82245D1*
Y86531D1*
X10780Y88913D1*
X11740D1*
X11750Y88902D1*
X1825Y83558D2*
X6060D1*
X7446Y84944D1*
Y89230D1*
X10939Y92723D1*
X11739D1*
X11750Y92712D1*
X1825Y86098D2*
X5742D1*
X6335Y86690D1*
Y90472D1*
X12383Y96520D1*
X41593D1*
X46026Y92086D1*
Y81292D1*
X48408Y78910D1*
X52065D1*
X53015Y77960D1*
X1825Y88638D2*
X3865D1*
X4763Y89535D1*
Y91123D1*
X11430Y97790D1*
X42863D1*
X46979Y93674D1*
Y84785D1*
X49043Y82721D1*
X52064D1*
X53017Y81768D1*
X1825Y91178D2*
X2913D1*
X10795Y99060D1*
X43815D1*
X48090Y94785D1*
Y87484D1*
X49043Y86531D1*
X52064D1*
X53017Y85578D1*
X1825Y93718D2*
X3519D1*
X10131Y100330D1*
X44450D1*
X49360Y95420D1*
Y91294D1*
X50313Y90342D1*
X52064D1*
X53017Y89388D1*
X1825Y96258D2*
X3865D1*
X9208Y101600D1*
X45403D1*
X52692Y94311D1*
Y93524D1*
X53017Y93198D1*
X1825Y98798D2*
X4500D1*
X8572Y102870D1*
X46037D1*
X51104Y97804D1*
X52222D1*
X53017Y97008D1*
X1825Y101338D2*
X4818D1*
X7620Y104140D1*
X46672D1*
X49198Y101614D1*
X52221D1*
X53017Y100818D1*
X1825Y63238D2*
X9782D1*
X10780Y62240D1*
X11743D1*
X11750Y62232D1*
X1825Y60698D2*
X9940D1*
X10621Y60017D1*
Y58906D1*
X11097Y58430D1*
X11743D1*
X11750Y58422D1*
X1825Y58158D2*
X9305D1*
X10780Y56683D1*
Y54937D1*
X11097Y54619D1*
X11743D1*
X11750Y54613D1*
X1825Y55618D2*
X5977D1*
X10792Y50803D1*
X11750D1*
X1825Y53078D2*
X5342D1*
X12065Y46355D1*
X30485D1*
X1825Y50538D2*
X5977D1*
X11748Y44768D1*
X34925D1*
X36512Y46355D1*
X36994D1*
X1825Y47998D2*
X6612D1*
X11112Y43498D1*
X39053D1*
X40799Y45244D1*
Y46196D1*
X40960Y46357D1*
X1825Y45458D2*
X7247D1*
X10477Y42227D1*
X42863D1*
X45085Y44450D1*
Y46196D1*
X44926Y46355D1*
X1825Y42918D2*
X7882D1*
X9843Y40958D1*
X70627D1*
X72223Y42553D1*
Y44300D1*
X72070Y44453D1*
X1825Y40378D2*
X8200D1*
X8890Y39688D1*
X73485D1*
X76033Y42235D1*
Y44299D1*
X75880Y44453D1*
X1825Y37838D2*
Y38417D1*
X75867D1*
X79843Y42394D1*
Y44299D1*
X79690Y44453D1*
X1825Y35298D2*
X4954D1*
X6803Y37148D1*
X78248D1*
X83495Y42394D1*
Y44448D1*
X83500Y44453D1*
X1825Y32758D2*
X4319D1*
X7439Y35877D1*
X80471D1*
X87305Y42712D1*
Y44448D1*
X87310Y44453D1*
X1825Y25138D2*
X3685D1*
X10614Y32068D1*
X88093D1*
X98737Y42712D1*
Y44449D1*
X98740Y44453D1*
X40960Y82233D2*
X44450D1*
Y79692D1*
X46672Y77470D1*
X78740Y86200D2*
X80805D1*
X84772Y71440D2*
Y73660D1*
X44768Y74295D2*
Y72392D1*
X43498D2*
Y76200D1*
Y76517D1*
X42863Y77153D1*
X40960D1*
X80805Y87470D2*
X78739D1*
X89853Y71440D2*
Y73507D1*
Y87470D1*
X39688Y72392D2*
Y74295D1*
X42545Y80962D2*
X40960D1*
X80805Y91280D2*
X78739D1*
X86043Y71440D2*
Y81087D1*
Y90011D1*
X84774Y91280D1*
X80805D1*
X42227Y72392D2*
Y74295D1*
X43815Y78422D2*
X40960D1*
X80805Y88740D2*
X78739D1*
X88582Y71440D2*
Y76033D1*
Y88740D1*
X40958Y72392D2*
Y74295D1*
X43180Y79692D2*
X40960D1*
X80805Y90010D2*
X78739D1*
X87312Y71440D2*
Y78581D1*
Y90010D1*
X58730Y105573D2*
D16*
X60635D1*
X58730Y101763D2*
X60635D1*
X58730Y97953D2*
X60635D1*
X58730Y94143D2*
X60635D1*
X58730Y90333D2*
X60635D1*
X58730Y86523D2*
X60635D1*
X58730Y82713D2*
X60635D1*
X58727Y78905D2*
X60632D1*
X17462Y93658D2*
X19367D1*
X17462Y63178D2*
X19367D1*
X71125Y50165D2*
Y51911D1*
X17462Y89848D2*
X19367D1*
X17462Y59367D2*
X19367D1*
X74935Y50165D2*
Y51911D1*
X17462Y86038D2*
X19367D1*
X17462Y55557D2*
X19367D1*
X78745Y50165D2*
Y51911D1*
X17462Y82227D2*
X19367D1*
Y82228D1*
X17462Y51747D2*
X19367D1*
X82555Y50165D2*
Y51911D1*
X17462Y78418D2*
X19367D1*
X34295Y50800D2*
Y52546D1*
X86365Y50165D2*
Y51911D1*
X17462Y74608D2*
X19367D1*
X38105Y50800D2*
Y52546D1*
X90175Y50165D2*
Y51911D1*
X17462Y70797D2*
X19367D1*
X41915Y50800D2*
Y52546D1*
X93985Y50165D2*
Y51911D1*
X17462Y66987D2*
X19367D1*
X45725Y50800D2*
Y52546D1*
X97795Y50165D2*
Y51911D1*
X17462Y51747D2*
D14*
X16351D1*
Y55558D1*
Y59367D1*
Y63178D1*
Y66987D1*
Y70797D1*
Y74608D1*
Y75614D1*
Y78418D1*
Y82228D1*
Y86038D1*
Y89789D1*
Y93663D1*
X17458D1*
X17462Y93658D1*
Y89848D2*
X16410D1*
X16351Y89789D1*
X17462Y86038D2*
X16351D1*
X17462Y82227D2*
X16351D1*
Y82228D1*
X17462Y78418D2*
X16351D1*
X17462Y74608D2*
X16351D1*
X17462Y70797D2*
X16351D1*
X17462Y66987D2*
X16351D1*
X17462Y63178D2*
X16351D1*
X17462Y59367D2*
X16351D1*
X17462Y55557D2*
X16351D1*
Y55558D1*
X45725Y50800D2*
Y49689D1*
X41915D1*
X40986D1*
X38105D1*
X34290D1*
Y50795D1*
X34295Y50800D1*
X38105D2*
Y49689D1*
X41915Y50800D2*
Y49689D1*
X97795Y50165D2*
Y49054D1*
X93985D1*
X90175D1*
X86365D1*
X85399D1*
X82555D1*
X78745D1*
X74787D1*
X71125D1*
Y50165D1*
X74935D2*
Y49201D1*
X74787Y49054D1*
X78745Y50165D2*
Y49054D1*
X82555Y50165D2*
Y49054D1*
X86365Y50165D2*
Y49054D1*
X90175Y50165D2*
Y49054D1*
X93985Y50165D2*
Y49054D1*
X58727Y78905D2*
X57626D1*
Y82713D1*
Y86523D1*
Y90333D1*
Y94143D1*
Y95091D1*
Y98156D1*
Y101763D1*
Y105569D1*
X58726D1*
X58730Y105573D1*
Y101763D2*
X57626D1*
X58730Y86523D2*
X57626D1*
X58730Y90333D2*
X57626D1*
X58730Y94143D2*
X57626D1*
X58730Y97953D2*
X57830D1*
X57626Y98156D1*
X58730Y82713D2*
X57626D1*
X80805Y92550D2*
D16*
X86203D1*
X91599Y87154D1*
Y83661D1*
X92551Y82391D2*
X91123Y80962D1*
Y71440D1*
X58424Y7700D2*
D14*
Y1859D1*
X58364Y1800D1*
X55884Y3890D2*
Y1859D1*
X55825Y1800D1*
X53344Y7700D2*
Y1859D1*
X53285Y1800D1*
X50804Y3890D2*
Y1859D1*
X50744Y1800D1*
X48264Y7700D2*
Y1859D1*
X48204Y1800D1*
X43184Y7700D2*
Y1859D1*
X43125Y1800D1*
X40644Y3890D2*
Y1859D1*
X40584Y1800D1*
X38104Y7700D2*
Y1859D1*
X38044Y1800D1*
X30484Y3890D2*
Y1859D1*
X30424Y1800D1*
X27944Y7700D2*
Y1859D1*
X27885Y1800D1*
X25404Y3890D2*
Y1859D1*
X25345Y1800D1*
X22864Y7700D2*
Y1859D1*
X22805Y1800D1*
X20324Y3890D2*
Y1859D1*
X20265Y1800D1*
X17784Y7700D2*
Y1859D1*
X17724Y1800D1*
X60964Y3890D2*
Y1859D1*
X60905Y1800D1*
X63504Y7700D2*
Y1859D1*
X63445Y1800D1*
X66044Y3890D2*
Y1859D1*
X65984Y1800D1*
X68584Y7700D2*
Y1859D1*
X68525Y1800D1*
X71124Y3890D2*
Y1859D1*
X71064Y1800D1*
X73664Y7700D2*
Y1859D1*
X73605Y1800D1*
X76204Y3890D2*
Y1859D1*
X76145Y1800D1*
X78744Y7700D2*
Y1859D1*
X78684Y1800D1*
X83824Y7700D2*
Y1859D1*
X83764Y1800D1*
X86364Y3890D2*
Y1859D1*
X86305Y1800D1*
X88904Y7700D2*
Y1859D1*
X88844Y1800D1*
X91444Y3890D2*
Y1859D1*
X91385Y1800D1*
X93984Y7700D2*
Y1859D1*
X93925Y1800D1*
X96524Y3890D2*
Y1859D1*
X96465Y1800D1*
X98425Y25403D2*
D16*
Y26511D1*
X99219Y27305D1*
X100171D1*
X102394D2*
Y35242D1*
X103029Y35877D1*
X103981D1*
X104140Y36036D1*
X92075Y25403D2*
Y27305D1*
X88265Y25876D2*
Y23178D1*
X86836Y21749D1*
Y19844D1*
X85407Y18415D1*
X83664D1*
Y24765D2*
X81756D1*
X81597Y24606D1*
X65087D2*
Y18732D1*
X64770Y18415D1*
X63344D1*
Y24765D2*
X60960D1*
X35560Y24606D2*
Y22543D1*
X34291D1*
Y24290D1*
X97155Y25403D2*
Y23495D1*
X32861Y20796D2*
Y24290D1*
X33021D1*
X63344Y19685D2*
X61120D1*
X83664D2*
X81472D1*
X29211Y24290D2*
Y22543D1*
X93345Y23495D2*
Y25403D1*
X63344Y23495D2*
X61124D1*
X83664D2*
X81600D1*
X95885Y25403D2*
Y23495D1*
X31751Y21590D2*
Y24290D1*
X63344Y20955D2*
X61087D1*
X83664D2*
X81600D1*
X94615Y25403D2*
Y23495D1*
X30480Y22543D2*
Y24290D1*
X30481D1*
X63344Y22225D2*
X61120D1*
X83664D2*
X81440D1*
X27941Y26035D2*
Y24290D1*
X54917Y104628D2*
X55870D1*
X55875Y104623D1*
X56430D1*
X54917Y100818D2*
X55870D1*
X55875Y100813D1*
X56430D1*
X54917Y97008D2*
X55870D1*
X55875Y97003D1*
X56430D1*
X54917Y93198D2*
X55870D1*
X55875Y93193D1*
X56430D1*
X54917Y89388D2*
X55870D1*
X55875Y89383D1*
X56430D1*
X54917Y85578D2*
X55870D1*
X55875Y85573D1*
X56430D1*
X54917Y81768D2*
X55870D1*
X55875Y81763D1*
X56430D1*
X54915Y77960D2*
X55867D1*
X55872Y77955D1*
X56427D1*
X13650Y92712D2*
X14602D1*
X14607Y92707D1*
X15162D1*
X13650Y88902D2*
X14602D1*
X14607Y88897D1*
X15162D1*
X13650Y85093D2*
X14602D1*
X14607Y85087D1*
X15162D1*
X13650Y81282D2*
X14602D1*
X14607Y81278D1*
X15162D1*
X13650Y77472D2*
X14602D1*
X14607Y77468D1*
X15162D1*
X13650Y73663D2*
X14602D1*
X14607Y73657D1*
X15162D1*
X13650Y69853D2*
X14602D1*
X14607Y69847D1*
X15162D1*
X13650Y66043D2*
X14602D1*
X14607Y66038D1*
X15162D1*
X13650Y62232D2*
X14602D1*
X14607Y62227D1*
X15162D1*
X13650Y58422D2*
X14602D1*
X14607Y58417D1*
X15162D1*
X13650Y54613D2*
X14602D1*
X14607Y54607D1*
X15162D1*
X13650Y50803D2*
X14602D1*
X14607Y50797D1*
X15162D1*
X32385Y46355D2*
X34131D1*
X35245Y47469D1*
Y48500D1*
X38894Y46355D2*
Y48101D1*
X39055Y48262D1*
Y48500D1*
X42860Y46357D2*
Y48258D1*
X42865Y48262D1*
Y48500D1*
X46826Y46355D2*
Y48111D1*
X46675Y48262D1*
Y48500D1*
X72070Y46352D2*
Y47305D1*
X72075Y47310D1*
Y47865D1*
X75880Y46352D2*
Y47305D1*
X75885Y47310D1*
Y47865D1*
X79690Y46352D2*
Y47305D1*
X79695Y47310D1*
Y47865D1*
X83500Y46353D2*
Y47305D1*
X83505Y47310D1*
Y47865D1*
X87310Y46352D2*
Y47305D1*
X87315Y47310D1*
Y47865D1*
X91120Y46352D2*
Y47305D1*
X91125Y47310D1*
Y47865D1*
X94930Y46352D2*
Y47305D1*
X94935Y47310D1*
Y47865D1*
X98740Y46352D2*
Y47305D1*
X98745Y47310D1*
Y47865D1*
X58730Y103673D2*
X60635D1*
X63175D1*
X58730Y99863D2*
X60635D1*
X63175D1*
X58730Y96053D2*
X60635D1*
X63175D1*
X58730Y92243D2*
X60635D1*
X63175D1*
X58730Y88433D2*
X60635D1*
X63175D1*
X58730Y84623D2*
X60635D1*
X63175D1*
X58730Y80813D2*
X60635D1*
X63175D1*
X58727Y77005D2*
X60632D1*
X63172D1*
X17463Y91757D2*
X19367D1*
X22066D1*
X17463Y87947D2*
X19367D1*
X22066D1*
X17463Y84138D2*
X19367D1*
X22066D1*
X17463Y80328D2*
X19367D1*
X22066D1*
X17463Y76517D2*
X19367D1*
X22066D1*
X17463Y72707D2*
X19367D1*
X22066D1*
X17463Y68897D2*
X19367D1*
X22066D1*
X17463Y65087D2*
X19367D1*
X22066D1*
X17463Y61278D2*
X19367D1*
X22066D1*
X17463Y57468D2*
X19367D1*
X22066D1*
X17463Y53657D2*
X19367D1*
X22066D1*
X17463Y49847D2*
X19367D1*
X22066D1*
X36195Y50800D2*
Y52546D1*
Y54928D1*
X40005Y50800D2*
Y52546D1*
Y54928D1*
X43815Y50800D2*
Y52546D1*
Y54928D1*
X47625Y50800D2*
Y52546D1*
Y54928D1*
X73025Y50165D2*
Y51911D1*
Y54134D1*
X76835Y50165D2*
Y51911D1*
Y54134D1*
X80645Y50165D2*
Y51911D1*
Y54134D1*
X84455Y50165D2*
Y51911D1*
Y54134D1*
X88265Y50165D2*
Y51911D1*
Y54134D1*
X92075Y50165D2*
Y51911D1*
Y54134D1*
X95885Y50165D2*
Y51911D1*
Y54134D1*
X99695Y50165D2*
Y51911D1*
Y54134D1*
X67620Y104625D2*
X69525D1*
X69527Y104628D1*
X67620Y100815D2*
X69525D1*
X69527Y100818D1*
X67620Y97005D2*
X69525D1*
X69527Y97008D1*
X67620Y93195D2*
X69525D1*
X69527Y93198D1*
X67620Y89385D2*
X69525D1*
X69527Y89388D1*
X67620Y85575D2*
X69525D1*
X69527Y85578D1*
X67620Y81765D2*
X69525D1*
X69527Y81768D1*
X67617Y77958D2*
X69522D1*
X69525Y77960D1*
X26353Y92710D2*
X28258D1*
X28260Y92712D1*
X26353Y88900D2*
X28258D1*
X28260Y88902D1*
X26353Y85090D2*
X28258D1*
X28260Y85093D1*
X26353Y81280D2*
X28258D1*
X28260Y81282D1*
X26353Y77470D2*
X28258D1*
X28260Y77472D1*
X26353Y73660D2*
X28257D1*
X28260Y73663D1*
X26353Y69850D2*
X28258D1*
X28260Y69853D1*
X26353Y66040D2*
X28258D1*
X28260Y66043D1*
X26353Y62230D2*
X28258D1*
X28260Y62232D1*
X26353Y58420D2*
X28258D1*
X28260Y58422D1*
X26353Y54610D2*
X28258D1*
X28260Y54613D1*
X26353Y50800D2*
X28258D1*
X28260Y50803D1*
X35242Y59055D2*
Y60960D1*
X35240Y60962D1*
X39053Y59055D2*
Y60960D1*
X39050Y60962D1*
X42863Y59055D2*
Y60960D1*
X42860Y60962D1*
X46672Y59055D2*
Y60960D1*
X46670Y60962D1*
X72073Y58102D2*
Y60008D1*
X72070Y60010D1*
X75883Y58102D2*
Y60008D1*
X75880Y60010D1*
X79692Y58102D2*
Y60008D1*
X79690Y60010D1*
X83502Y58102D2*
Y60008D1*
X83500Y60010D1*
X87312Y58102D2*
Y60008D1*
X87310Y60010D1*
X91123Y58102D2*
Y60008D1*
X91120Y60010D1*
X94933Y58102D2*
Y60008D1*
X94930Y60010D1*
X98743Y58102D2*
Y60008D1*
X98740Y60010D1*
X80805Y93820D2*
D14*
X78900D1*
X78422Y94297D1*
Y95567D1*
X77470Y96520D1*
X74930D1*
X74295Y97155D1*
Y103188D1*
X71120Y106362D1*
X69693D1*
X69527Y106528D1*
X40960Y83502D2*
X37465D1*
Y86360D1*
X33020D1*
X32703Y86678D1*
Y91757D1*
X29845Y94615D1*
X28262D1*
X28260Y94612D1*
Y64133D2*
X31113D1*
X33337Y66358D1*
Y67945D1*
X35242Y69850D1*
X36830D1*
X37148Y70168D1*
Y72392D1*
X83502Y71440D2*
Y70168D1*
X82233Y68897D1*
X81915D1*
X80962Y67945D1*
Y65722D1*
X79692Y64453D1*
X72707D1*
X70168Y61913D1*
Y60012D1*
X70170Y60010D1*
X75405Y95090D2*
X73820D1*
X73343Y95567D1*
Y100647D1*
X71120Y102870D1*
X69680D1*
X69527Y102718D1*
X35560Y84772D2*
X31750D1*
X31433Y85090D1*
Y88900D1*
X29528Y90805D1*
X28262D1*
X28260Y90803D1*
Y60322D2*
X31750D1*
Y62865D1*
X34290Y65405D1*
X35877D1*
Y66992D1*
X82233Y66040D2*
Y64135D1*
X81597Y63500D1*
X75565D1*
X73978Y61913D1*
Y60012D1*
X73980Y60010D1*
X65320Y105575D2*
D16*
X63175D1*
Y105573D1*
X65320Y101765D2*
X63175D1*
Y101763D1*
X65320Y97955D2*
X63175D1*
Y97953D1*
X65320Y94145D2*
X63175D1*
Y94143D1*
X65320Y90335D2*
X63175D1*
Y90333D1*
X65320Y86525D2*
X63175D1*
Y86523D1*
X65320Y82715D2*
X63175D1*
Y82713D1*
X65317Y78908D2*
X63172D1*
Y78905D1*
X24052Y93660D2*
X22066D1*
Y93657D1*
X24052Y89850D2*
X22066D1*
Y89848D1*
X24052Y86040D2*
X22066D1*
Y86038D1*
X24052Y82230D2*
X22066D1*
Y82228D1*
X24052Y78420D2*
X22066D1*
Y78418D1*
X24052Y74610D2*
X22066D1*
Y74608D1*
X24052Y70800D2*
X22066D1*
Y70797D1*
X24052Y66990D2*
X22066D1*
Y66987D1*
X24052Y63180D2*
X22066D1*
Y63178D1*
X24052Y59370D2*
X22066D1*
Y59367D1*
X24052Y55560D2*
X22066D1*
Y55558D1*
X24052Y51750D2*
X22066D1*
Y51748D1*
X34292Y56755D2*
Y54928D1*
X34295D1*
X38102Y56755D2*
Y54928D1*
X38105D1*
X41913Y56755D2*
Y54928D1*
X41915D1*
X45722Y56755D2*
Y54928D1*
X45725D1*
X71123Y55803D2*
D3*
X71125Y55800D2*
Y54134D1*
X74933Y55803D2*
Y55565D1*
X74935Y55562D1*
Y54134D1*
X78742Y55803D2*
Y55565D1*
X78745Y55562D1*
Y54134D1*
X82552Y55803D2*
Y55565D1*
X82555Y55562D1*
Y54134D1*
X86362Y55803D2*
Y55565D1*
X86365Y55562D1*
Y54134D1*
X90172Y55803D2*
Y55565D1*
X90175Y55562D1*
Y54134D1*
X93983Y55803D2*
Y55565D1*
X93985Y55562D1*
Y54134D1*
X97793Y55803D2*
Y55565D1*
X97795Y55562D1*
Y54134D1*
X75405Y93820D2*
D14*
X73185D1*
X72390Y94615D1*
Y97473D1*
X71120Y98743D1*
X69693D1*
X69527Y98908D1*
X35560Y83502D2*
X31115D1*
X30480Y84138D1*
Y86360D1*
X29528Y87312D1*
X28580D1*
X28260Y86993D1*
Y56512D2*
X32065D1*
X37148Y68897D2*
Y66992D1*
X83502Y66040D2*
Y63183D1*
X82867Y62547D1*
X78740D1*
X77788Y61595D1*
Y60012D1*
X77790Y60010D1*
X75405Y92550D2*
X71597D1*
X71438Y92710D1*
Y94615D1*
X70802Y95250D1*
X69680D1*
X69527Y95098D1*
X35560Y82233D2*
X30797D1*
X29845Y83185D1*
X28262D1*
X28260Y83183D1*
Y52703D2*
X31748D1*
X38417Y68897D2*
Y66992D1*
X84772Y66040D2*
Y62230D1*
X84138Y61595D1*
X82550D1*
X81600Y60645D1*
Y60010D1*
X75405Y87470D2*
X74135D1*
X73343Y86678D1*
Y81280D1*
X71755Y79692D1*
X69693D1*
X69525Y79860D1*
X28260Y67942D2*
X31430D1*
X31750Y68263D1*
Y75883D1*
X33020Y77153D1*
X35560D1*
X43498Y66992D2*
Y63500D1*
X44768Y62230D1*
Y60965D1*
X44770Y60962D1*
X89853Y66040D2*
Y64770D1*
X92075Y62547D1*
X96520D1*
X96837Y62230D1*
Y60012D1*
X96840Y60010D1*
X75405Y88740D2*
X72865D1*
X72390Y88265D1*
Y84772D1*
X71438Y83820D1*
X69680D1*
X69527Y83668D1*
X28260Y71752D2*
X30797D1*
Y76835D1*
X32385Y78422D1*
X35560D1*
X42227Y66992D2*
Y62865D1*
X41593D1*
X40958Y62230D1*
Y60965D1*
X40960Y60962D1*
X88582Y66040D2*
Y64453D1*
X91440Y61595D1*
X93027D1*
Y60012D1*
X93030Y60010D1*
X75405Y90010D2*
X71595D1*
X71438Y89853D1*
Y87947D1*
X70802Y87312D1*
X69693D1*
X69527Y87478D1*
X28260Y75563D2*
X29845D1*
Y77788D1*
X31750Y79692D1*
X35560D1*
X40958Y66992D2*
Y64135D1*
X40005Y63183D1*
X38100D1*
X37148Y62230D1*
Y60965D1*
X37150Y60962D1*
X87312Y66040D2*
Y63500D1*
X89218Y61595D1*
Y60012D1*
X89220Y60010D1*
X75405Y91280D2*
X69535D1*
X69527Y91288D1*
X28260Y79373D2*
X29843D1*
X31433Y80962D1*
X35560D1*
X39688Y66992D2*
Y64770D1*
X39370Y64453D1*
X35242D1*
X33337Y62547D1*
Y60965D1*
X33340Y60962D1*
X86043Y66040D2*
Y61913D1*
X85407Y61278D1*
Y60012D1*
X85410Y60010D1*
X26671Y24290D2*
D16*
Y22703D1*
X25876Y21907D1*
X20955D1*
X18416Y19369D1*
Y14763D1*
X63344Y26035D2*
X61754D1*
X61596Y26192D1*
Y27780D1*
X61279Y28097D1*
X54929D1*
X44294Y17463D1*
X40801D1*
X39054Y15715D1*
Y14763D1*
X59374D2*
Y16035D1*
X60641Y17302D1*
X66041D1*
X67629Y18890D1*
Y25558D1*
X70486Y28415D1*
X81281D1*
X81916Y27780D1*
Y26510D1*
X82391Y26035D1*
X83664D1*
X90805Y25403D2*
Y22860D1*
X90011Y22066D1*
X89218D1*
X88424Y21273D1*
Y20318D1*
X85409Y17302D1*
X81281D1*
X79694Y15715D1*
Y14763D1*
X36514Y6190D2*
Y7778D1*
X35879Y8412D1*
Y12862D1*
X36196D1*
X33974Y10000D2*
Y12862D1*
X31434Y6190D2*
Y7460D1*
X30799Y8095D1*
Y12862D1*
X31116D1*
X28894Y10000D2*
Y12862D1*
X26354Y6190D2*
Y6825D1*
X25719Y7460D1*
Y12862D1*
X26036D1*
X23814Y10000D2*
Y12862D1*
X21274Y6190D2*
Y7778D1*
X20321Y8730D1*
Y12862D1*
X20639D1*
X18734Y10000D2*
Y12862D1*
X18416D1*
X56834Y6190D2*
Y7460D1*
X56516Y7778D1*
Y12862D1*
X54294Y10000D2*
Y12862D1*
X51754Y6190D2*
Y7460D1*
X51119Y8095D1*
Y12862D1*
X51436D1*
X49214Y10000D2*
Y12862D1*
X46674Y6190D2*
Y7460D1*
X46356Y7778D1*
Y12862D1*
X44134Y10000D2*
Y12862D1*
X41594Y6190D2*
Y7143D1*
X40959Y7778D1*
Y12862D1*
X39054Y10000D2*
Y12862D1*
X77154Y6190D2*
Y7778D1*
X76836Y8095D1*
Y12862D1*
X74614Y10000D2*
Y12862D1*
X72074Y6190D2*
Y7143D1*
X71756Y7460D1*
Y12862D1*
X69534Y10000D2*
Y12862D1*
X66994Y6190D2*
Y7778D1*
X66676Y8095D1*
Y12862D1*
X64454Y10000D2*
Y12862D1*
X61914Y6190D2*
Y7778D1*
X61596Y8095D1*
Y12862D1*
X59374Y10000D2*
Y12862D1*
X97474Y6190D2*
Y7460D1*
X97156Y7778D1*
Y12862D1*
X94934Y10000D2*
Y12862D1*
X92394Y6190D2*
Y7778D1*
X92076Y8095D1*
Y12862D1*
X89854Y10000D2*
Y12862D1*
X87314Y6190D2*
Y7460D1*
X86996Y7778D1*
Y12862D1*
X84774Y10000D2*
Y12862D1*
X82234Y6190D2*
Y7143D1*
X81916Y7460D1*
Y12862D1*
X79694Y10000D2*
Y12862D1*
X25401Y18890D2*
Y17623D1*
X24765Y16986D1*
X20639D1*
Y14763D1*
X57944Y27305D2*
X56197D1*
X45720Y16828D1*
X42071D1*
X40959Y15715D1*
Y14763D1*
X78264Y27305D2*
X70646D1*
X68264Y24922D1*
Y18573D1*
X66359Y16668D1*
X62231D1*
X61596Y16032D1*
Y14763D1*
X89535Y20003D2*
Y18098D1*
X89218Y17780D1*
X86839D1*
X85726Y16668D1*
X83186D1*
X81916Y15398D1*
Y14763D1*
X26671Y18890D2*
Y17305D1*
X25559Y16192D1*
X24606D1*
X23814Y15400D1*
Y14763D1*
X57944Y26035D2*
X56039D1*
X46038Y16034D1*
X44450D1*
X44134Y15718D1*
Y14763D1*
X78264Y26035D2*
X70646D1*
X68899Y24287D1*
Y18255D1*
X66676Y16032D1*
X64771D1*
X64454Y15715D1*
Y14763D1*
X90805Y20003D2*
Y18098D1*
X89535Y16828D1*
X86839D1*
X86044Y16032D1*
X85409D1*
X84456Y15080D1*
X84774Y14763D1*
X27941Y18890D2*
Y16988D1*
X27623Y16669D1*
X27464D1*
X26036Y15241D1*
Y14763D1*
X57944Y24765D2*
X56039D1*
X46674Y15400D1*
Y15080D1*
X46356Y14763D1*
X78264Y24765D2*
X70329D1*
X69534Y23970D1*
Y17620D1*
X66676Y14763D1*
X92075Y20003D2*
Y18098D1*
X90011Y16034D1*
X87315D1*
X86996Y15715D1*
Y14763D1*
X33021Y18890D2*
Y17620D1*
X34607Y16034D1*
X35719D1*
X36196Y15556D1*
Y14763D1*
X57944Y19685D2*
X56676D1*
X56516Y19525D1*
Y14763D1*
X78264Y19685D2*
X77314D1*
X76836Y19207D1*
Y14763D1*
X97155Y20003D2*
Y18891D1*
X97156Y18890D1*
Y14763D1*
X31751Y18890D2*
Y17144D1*
X33020Y15875D1*
X33496D1*
X33974Y15398D1*
Y14763D1*
X57944Y20955D2*
X56674D1*
X54294Y18575D1*
Y14763D1*
X78264Y20955D2*
X76044D1*
X74931Y19843D1*
Y15080D1*
X74614Y14763D1*
X95885Y20003D2*
Y16510D1*
X94934Y15559D1*
Y14763D1*
X30481Y18890D2*
Y16032D1*
X31116Y15398D1*
Y14763D1*
X57944Y22225D2*
X56356D1*
X51436Y17305D1*
Y14763D1*
X78264Y22225D2*
X72869D1*
X71756Y21113D1*
Y14763D1*
X94615Y20003D2*
Y17780D1*
X92076Y15241D1*
Y14763D1*
X29211Y18890D2*
Y16194D1*
X28894Y15876D1*
Y14763D1*
X57944Y23495D2*
X56356D1*
X49214Y16352D1*
Y14763D1*
X78264Y23495D2*
X71599D1*
X70486Y22383D1*
Y16668D1*
X69534Y15715D1*
Y14763D1*
X93345Y20003D2*
Y18254D1*
X89854Y14763D1*
X82233Y71440D2*
D14*
Y73814D1*
X82228Y73819D1*
X40960Y84772D2*
X42545D1*
Y84778D1*
X44133D1*
X80805Y95090D2*
X82391D1*
X84612D1*
X84616Y95094D1*
X35877Y72392D2*
Y70802D1*
X33655D1*
Y72078D1*
X89538Y27784D2*
Y27276D1*
X89535Y27273D1*
Y25403D1*
X83664Y27305D2*
X85167D1*
X86043D1*
X86360Y27623D1*
X63344Y27305D2*
X65881D1*
X66040Y27146D1*
X25401Y24290D2*
Y26035D1*
Y27468D1*
X25246Y27623D1*
X86360D2*
Y27464D1*
X89535D1*
Y27273D1*
X68064Y27305D2*
D15*
X66199D1*
X66040Y27146D1*
X82391Y95250D2*
Y95090D1*
X42545Y84931D2*
Y84778D1*
X35877Y74454D2*
D16*
Y72392D1*
X82228Y73819D2*
D14*
Y76517D1*
X104140Y38576D2*
D15*
Y61436D1*
X100965Y64611D1*
Y84614D1*
X102553Y86201D1*
X104140D1*
X35560Y75883D2*
D14*
X33973D1*
X33655Y75565D1*
Y73978D1*
X96842Y58102D2*
Y56991D1*
X93032D1*
X92075D1*
X89223D1*
X85413D1*
X81603D1*
X77793D1*
X73983D1*
X70168D1*
Y58097D1*
X70172Y58102D1*
X73983D2*
Y56991D1*
X77793Y58102D2*
Y56991D1*
X81603Y58102D2*
Y56991D1*
X85412Y58102D2*
X85413Y56991D1*
X89222Y58102D2*
X89223Y56991D1*
X93032Y58102D2*
Y56991D1*
X44773Y59055D2*
Y57944D1*
X43841D1*
X40962D1*
X37153D1*
X33337D1*
Y59050D1*
X33343Y59055D1*
X37153D2*
Y57944D1*
X40963Y59055D2*
X40962Y57944D1*
X26353Y52700D2*
X25241D1*
Y56510D1*
Y60320D1*
Y64130D1*
Y67940D1*
Y71750D1*
Y75644D1*
Y76517D1*
Y79370D1*
Y83180D1*
Y86990D1*
Y90800D1*
Y94615D1*
X26348D1*
X26353Y94610D1*
Y90800D2*
X25241D1*
X26353Y86990D2*
X25241D1*
X26353Y83180D2*
X25241D1*
X26353Y79370D2*
X25241D1*
X26353Y75560D2*
X25325D1*
X25241Y75644D1*
X26353Y71750D2*
X25241D1*
X26353Y67940D2*
X25241D1*
X26353Y64130D2*
X25241D1*
X26353Y60320D2*
X25241D1*
X26353Y56510D2*
X25241D1*
X67617Y79858D2*
X66516D1*
Y83665D1*
Y87475D1*
Y91285D1*
Y96044D1*
Y95095D1*
Y98905D1*
Y102715D1*
Y106521D1*
X67616D1*
X67620Y106525D1*
Y102715D2*
X66516D1*
X67620Y98905D2*
X66516D1*
X67620Y95095D2*
X66516D1*
X67620Y91285D2*
X66516D1*
X67620Y87475D2*
X66516D1*
X67620Y83665D2*
X66516D1*
X35560Y75883D2*
X37306D1*
X44768Y66992D2*
Y65087D1*
X45085Y64770D1*
X91123Y66040D2*
Y67786D1*
X80328Y73819D2*
Y70009D1*
X16834Y10000D2*
Y8890D1*
X18574D1*
X19367Y8096D1*
Y7461D1*
Y6196D1*
X19374Y6190D1*
X95574D2*
Y7461D1*
X24454Y6190D2*
X24448Y7461D1*
X29534Y6190D2*
X29514Y7461D1*
X34614Y6190D2*
Y7461D1*
X39694Y6190D2*
Y7461D1*
X44774Y6190D2*
Y7461D1*
X49854Y6190D2*
Y7461D1*
X54934Y6190D2*
Y7461D1*
X60014Y6190D2*
Y7461D1*
X65094Y6190D2*
Y7461D1*
X70174Y6190D2*
Y7461D1*
X75254Y6190D2*
Y7461D1*
X80334Y6190D2*
Y7461D1*
X85414Y6190D2*
Y7461D1*
X90494Y6190D2*
Y7461D1*
X93034Y10000D2*
Y11112D1*
X87954Y10000D2*
X87947Y11106D1*
X82874Y10000D2*
X82867Y11106D1*
X77794Y10000D2*
X77787Y11106D1*
X72714Y10000D2*
X72707Y11106D1*
X67634Y10000D2*
X67627Y11106D1*
X62554Y10000D2*
X62547Y11106D1*
X57474Y10000D2*
Y11106D1*
X52394Y10000D2*
X52387Y11106D1*
X47314Y10000D2*
X47307Y11106D1*
X42234Y10000D2*
X42227Y11106D1*
X37154Y10000D2*
X37147Y10947D1*
X32074Y10000D2*
X32067Y10947D1*
X26994Y10000D2*
Y11106D1*
X21914Y10000D2*
X21907Y10947D1*
X78264Y18415D2*
X80328D1*
X39529D2*
Y17780D1*
X39053Y17304D1*
X34608D1*
X34291Y17620D1*
Y18890D1*
X37147Y10947D2*
X37624Y11424D1*
Y15875D1*
X39053Y17304D1*
X57474Y11106D2*
X57620D1*
X58102Y11589D1*
Y16351D1*
X57944Y16510D1*
Y18415D1*
X60089D1*
X98425Y20003D2*
Y18415D1*
X89538Y29684D2*
X86521D1*
X86360Y29522D1*
X66516D1*
X66040Y29046D1*
X39529Y18415D2*
D15*
Y27622D1*
X52070D1*
X53494Y29046D1*
X66040D1*
X39529Y27622D2*
X29686D1*
Y27623D1*
D14*
X27146D1*
X104140Y23336D2*
D15*
X101441D1*
Y28893D1*
X100895Y29439D1*
X100650Y29684D1*
X89538D1*
X44133Y86678D2*
D14*
Y87947D1*
X42386D1*
X75405Y86200D2*
X77154D1*
X78105Y85249D1*
X88582Y93504D2*
Y94774D1*
X88263Y95094D1*
X86516D1*
X100895Y29439D2*
D15*
Y39776D1*
X102394Y41275D1*
Y60643D1*
X97473Y65564D1*
Y70961D1*
D31*
X46672Y77470D3*
X78740Y86200D3*
X84772Y73660D3*
X44768Y74295D3*
X78739Y87470D3*
X43498Y76200D3*
X89853Y87470D3*
X78739D3*
X89853Y73507D3*
X39688Y74295D3*
X42545Y80962D3*
X78739Y91280D3*
X86043Y81087D3*
X42227Y74295D3*
X43815Y78422D3*
X78739Y88740D3*
X88582D3*
X78739D3*
X88582Y76033D3*
X40958Y74295D3*
X43180Y79692D3*
X78739Y90010D3*
X87312D3*
X78739D3*
X87312Y78581D3*
X85399Y49054D3*
X40986Y49689D3*
X16351Y75614D3*
D3*
X57626Y95091D3*
D3*
X91599Y83661D3*
X92551Y82391D3*
X100171Y27305D3*
X102394D3*
X92075D3*
X88265Y25876D3*
X81597Y24606D3*
X65087D3*
X60960Y24765D3*
X35560Y24606D3*
X97155Y23495D3*
X32861Y20796D3*
X61120Y19685D3*
X81472D3*
X97155Y23495D3*
X29211Y22543D3*
X93345Y23495D3*
X61124D3*
X81600D3*
X95885D3*
X31751Y21590D3*
X61087Y20955D3*
X81600D3*
X95885Y23495D3*
X94615D3*
X30480Y22543D3*
X61120Y22225D3*
X81440D3*
X94615Y23495D3*
X27941Y26035D3*
X32065Y56512D3*
X37148Y68897D3*
X31748Y52703D3*
X38417Y68897D3*
X85167Y27305D3*
X25401Y26035D3*
X68064Y27305D3*
X85167D3*
X82391Y95250D3*
X42545Y84931D3*
X35877Y74454D3*
X82228Y76517D3*
X37306Y75883D3*
X25241Y76517D3*
X45085Y64770D3*
X43841Y57944D3*
X91123Y67786D3*
X92075Y56991D3*
X80328Y70009D3*
X91123Y67786D3*
X92075Y56991D3*
X43841Y57944D3*
X95574Y7461D3*
X19367D3*
X24448D3*
X29514D3*
X34614D3*
X39694D3*
X44774D3*
X49854D3*
X54934D3*
X60014D3*
X65094D3*
X70174D3*
X75254D3*
X80334D3*
X85414D3*
X90494D3*
X93034Y11112D3*
X87947Y11106D3*
X82867D3*
X77787D3*
X72707D3*
X67627D3*
X62547D3*
X57474D3*
X52387D3*
X47307D3*
X42227D3*
X37147Y10947D3*
X32067D3*
X26994Y11106D3*
X21907Y10947D3*
X80328Y18415D3*
X39529D3*
X60089D3*
X98425D3*
X80328D3*
X98425D3*
X39529D3*
X45085Y64770D3*
X66516Y96044D3*
X37306Y75883D3*
X91123Y67786D3*
X42386Y87947D3*
X78105Y85249D3*
X88582Y93504D3*
X97473Y70961D3*
D17*
X49213Y46355D3*
D18*
X69532D3*
D17*
X97155Y101918D3*
D18*
X76835D3*
D19*
X33655Y72078D3*
Y73978D3*
D20*
X82228Y73819D3*
X80328D3*
X84616Y95094D3*
X86516D3*
D19*
X44133Y84778D3*
Y86678D3*
X86360Y29522D3*
Y27622D3*
D20*
X27146Y27623D3*
X25246D3*
D19*
X89538Y29684D3*
Y27784D3*
X66040Y29046D3*
Y27146D3*
D21*
X75405Y95090D3*
Y93820D3*
Y92550D3*
Y91280D3*
Y90010D3*
Y88740D3*
Y87470D3*
Y86200D3*
X80805D3*
Y87470D3*
Y88740D3*
Y90010D3*
Y91280D3*
Y92550D3*
Y93820D3*
Y95090D3*
X35560Y84773D3*
Y83503D3*
Y82233D3*
Y80963D3*
Y79693D3*
Y78422D3*
Y77153D3*
Y75883D3*
X40960D3*
Y77153D3*
Y78422D3*
Y79693D3*
Y80963D3*
Y82233D3*
Y83503D3*
Y84773D3*
D22*
X35877Y66992D3*
X37148D3*
X38417D3*
X39688D3*
X40958D3*
X42227D3*
X43498D3*
X44768D3*
Y72392D3*
X43498D3*
X42227D3*
X40958D3*
X39688D3*
X38417D3*
X37148D3*
X35877D3*
X82233Y66040D3*
X83503D3*
X84773D3*
X86043D3*
X87312D3*
X88583D3*
X89853D3*
X91123D3*
Y71440D3*
X89853D3*
X88583D3*
X87312D3*
X86043D3*
X84773D3*
X83503D3*
X82233D3*
X25401Y18890D3*
X26671D3*
X27941D3*
X29211D3*
X30481D3*
X31751D3*
X33021D3*
X34291D3*
Y24290D3*
X33021D3*
X31751D3*
X30481D3*
X29211D3*
X27941D3*
X26671D3*
X25401D3*
D21*
X57944Y27305D3*
Y26035D3*
Y24765D3*
Y23495D3*
Y22225D3*
Y20955D3*
Y19685D3*
Y18415D3*
X63344D3*
Y19685D3*
Y20955D3*
Y22225D3*
Y23495D3*
Y24765D3*
Y26035D3*
Y27305D3*
X78264D3*
Y26035D3*
Y24765D3*
Y23495D3*
Y22225D3*
Y20955D3*
Y19685D3*
Y18415D3*
X83664D3*
Y19685D3*
Y20955D3*
Y22225D3*
Y23495D3*
Y24765D3*
Y26035D3*
Y27305D3*
D22*
X89535Y20003D3*
X90805D3*
X92075D3*
X93345D3*
X94615D3*
X95885D3*
X97155D3*
X98425D3*
Y25403D3*
X97155D3*
X95885D3*
X94615D3*
X93345D3*
X92075D3*
X90805D3*
X89535D3*
D20*
X54917Y104628D3*
X53017D3*
X54917Y100818D3*
X53017D3*
X54917Y97008D3*
X53017D3*
X54917Y93198D3*
X53017D3*
X54917Y89388D3*
X53017D3*
X54917Y85578D3*
X53017D3*
X54917Y81768D3*
X53017D3*
X54915Y77960D3*
X53015D3*
X13650Y92712D3*
X11750D3*
X13650Y88902D3*
X11750D3*
X13650Y85093D3*
X11750D3*
X13650Y81282D3*
X11750D3*
X13650Y77472D3*
X11750D3*
X13650Y73663D3*
X11750D3*
X13650Y69853D3*
X11750D3*
X13650Y66043D3*
X11750D3*
X13650Y62232D3*
X11750D3*
X13650Y58422D3*
X11750D3*
X13650Y54613D3*
X11750D3*
X13650Y50803D3*
X11750D3*
X32385Y46355D3*
X30485D3*
X38894D3*
X36994D3*
X42860Y46357D3*
X40960D3*
X46826Y46355D3*
X44926D3*
D19*
X72070Y46352D3*
Y44453D3*
X75880Y46352D3*
Y44453D3*
X79690Y46352D3*
Y44453D3*
X83500Y46353D3*
Y44453D3*
X87310Y46352D3*
Y44453D3*
X91120Y46352D3*
Y44453D3*
X94930Y46352D3*
Y44453D3*
X98740Y46352D3*
Y44453D3*
X60635Y103673D3*
Y105573D3*
Y99863D3*
Y101763D3*
Y96053D3*
Y97953D3*
Y92243D3*
Y94143D3*
Y88433D3*
Y90333D3*
Y84623D3*
Y86523D3*
Y80813D3*
Y82713D3*
X60632Y77005D3*
Y78905D3*
X19367Y91757D3*
Y93658D3*
Y87947D3*
Y89848D3*
Y84138D3*
Y86038D3*
Y80328D3*
Y82228D3*
Y76517D3*
Y78418D3*
Y72707D3*
Y74608D3*
Y68897D3*
Y70797D3*
Y65088D3*
Y66987D3*
Y61278D3*
Y63178D3*
Y57468D3*
Y59367D3*
Y53657D3*
Y55557D3*
Y49847D3*
Y51747D3*
D20*
X36195Y52546D3*
X34295D3*
X40005D3*
X38105D3*
X43815D3*
X41915D3*
X47625D3*
X45725D3*
X73025Y51911D3*
X71125D3*
X76835D3*
X74935D3*
X80645D3*
X78745D3*
X84455D3*
X82555D3*
X88265D3*
X86365D3*
X92075D3*
X90175D3*
X95885D3*
X93985D3*
X99695D3*
X97795D3*
D19*
X63175Y103673D3*
Y105573D3*
Y99863D3*
Y101763D3*
Y96053D3*
Y97953D3*
Y92243D3*
Y94143D3*
Y88433D3*
Y90333D3*
Y84623D3*
Y86523D3*
Y80813D3*
Y82713D3*
X63172Y77005D3*
Y78905D3*
X22066Y91757D3*
Y93658D3*
Y87947D3*
Y89848D3*
Y84138D3*
Y86038D3*
Y80328D3*
Y82228D3*
Y76517D3*
Y78418D3*
Y72707D3*
Y74608D3*
Y68897D3*
Y70797D3*
Y65088D3*
Y66987D3*
Y61278D3*
Y63178D3*
Y57468D3*
Y59367D3*
Y53657D3*
Y55557D3*
Y49847D3*
Y51747D3*
D20*
X36195Y54928D3*
X34295D3*
X40005D3*
X38105D3*
X43815D3*
X41915D3*
X47625D3*
X45725D3*
X73025Y54134D3*
X71125D3*
X76835D3*
X74935D3*
X80645D3*
X78745D3*
X84455D3*
X82555D3*
X88265D3*
X86365D3*
X92075D3*
X90175D3*
X95885D3*
X93985D3*
X99695D3*
X97795D3*
D19*
X69527Y106528D3*
Y104628D3*
Y102718D3*
Y100818D3*
Y98908D3*
Y97008D3*
Y95098D3*
Y93198D3*
Y91288D3*
Y89388D3*
Y87478D3*
Y85578D3*
Y83668D3*
Y81768D3*
X69525Y79860D3*
Y77960D3*
X28260Y94613D3*
Y92712D3*
Y90803D3*
Y88902D3*
Y86993D3*
Y85093D3*
Y83182D3*
Y81282D3*
Y79372D3*
Y77472D3*
Y75563D3*
Y73663D3*
Y71752D3*
Y69853D3*
Y67942D3*
Y66043D3*
Y64133D3*
Y62233D3*
Y60322D3*
Y58423D3*
Y56512D3*
Y54613D3*
Y52702D3*
Y50803D3*
D20*
X33340Y60962D3*
X35240D3*
X37150D3*
X39050D3*
X40960D3*
X42860D3*
X44770D3*
X46670D3*
X70170Y60010D3*
X72070D3*
X73980D3*
X75880D3*
X77790D3*
X79690D3*
X81600D3*
X83500D3*
X85410D3*
X87310D3*
X89220D3*
X91120D3*
X93030D3*
X94930D3*
X96840D3*
X98740D3*
D19*
X36196Y14763D3*
Y12862D3*
X33974Y14763D3*
Y12862D3*
X31116Y14763D3*
Y12862D3*
X28894Y14763D3*
Y12862D3*
X26036Y14763D3*
Y12862D3*
X23814Y14763D3*
Y12862D3*
X20639Y14763D3*
Y12862D3*
X18416Y14763D3*
Y12862D3*
X56516Y14763D3*
Y12862D3*
X54294Y14763D3*
Y12862D3*
X51436Y14763D3*
Y12862D3*
X49214Y14763D3*
Y12862D3*
X46356Y14763D3*
Y12862D3*
X44134Y14763D3*
Y12862D3*
X40959Y14763D3*
Y12862D3*
X39054Y14763D3*
Y12862D3*
X76836Y14763D3*
Y12862D3*
X74614Y14763D3*
Y12862D3*
X71756Y14763D3*
Y12862D3*
X69534Y14763D3*
Y12862D3*
X66676Y14763D3*
Y12862D3*
X64454Y14763D3*
Y12862D3*
X61596Y14763D3*
Y12862D3*
X59374Y14763D3*
Y12862D3*
X97156Y14763D3*
Y12862D3*
X94934Y14763D3*
Y12862D3*
X92076Y14763D3*
Y12862D3*
X89854Y14763D3*
Y12862D3*
X86996Y14763D3*
Y12862D3*
X84774Y14763D3*
Y12862D3*
X81916Y14763D3*
Y12862D3*
X79694Y14763D3*
Y12862D3*
D24*
X58730Y103673D3*
Y105573D3*
X56430Y104623D3*
X58730Y99863D3*
Y101763D3*
X56430Y100813D3*
X58730Y96053D3*
Y97953D3*
X56430Y97003D3*
X58730Y92243D3*
Y94143D3*
X56430Y93193D3*
X58730Y88433D3*
Y90333D3*
X56430Y89383D3*
X58730Y84623D3*
Y86523D3*
X56430Y85573D3*
X58730Y80813D3*
Y82713D3*
X56430Y81763D3*
X58727Y77005D3*
Y78905D3*
X56427Y77955D3*
X17462Y91757D3*
Y93658D3*
X15162Y92707D3*
X17462Y87947D3*
Y89848D3*
X15162Y88897D3*
X17462Y84138D3*
Y86038D3*
X15162Y85087D3*
X17462Y80328D3*
Y82227D3*
X15162Y81277D3*
X17462Y76517D3*
Y78418D3*
X15162Y77468D3*
X17462Y72707D3*
Y74608D3*
X15162Y73657D3*
X17462Y68897D3*
Y70797D3*
X15162Y69847D3*
X17462Y65088D3*
Y66987D3*
X15162Y66038D3*
X17462Y61278D3*
Y63178D3*
X15162Y62227D3*
X17462Y57468D3*
Y59367D3*
X15162Y58417D3*
X17462Y53657D3*
Y55557D3*
X15162Y54607D3*
X17462Y49847D3*
Y51747D3*
X15162Y50797D3*
D25*
X36195Y50800D3*
X34295D3*
X35245Y48500D3*
X40005Y50800D3*
X38105D3*
X39055Y48500D3*
X43815Y50800D3*
X41915D3*
X42865Y48500D3*
X47625Y50800D3*
X45725D3*
X46675Y48500D3*
X73025Y50165D3*
X71125D3*
X72075Y47865D3*
X76835Y50165D3*
X74935D3*
X75885Y47865D3*
X80645Y50165D3*
X78745D3*
X79695Y47865D3*
X84455Y50165D3*
X82555D3*
X83505Y47865D3*
X88265Y50165D3*
X86365D3*
X87315Y47865D3*
X92075Y50165D3*
X90175D3*
X91125Y47865D3*
X95885Y50165D3*
X93985D3*
X94935Y47865D3*
X99695Y50165D3*
X97795D3*
X98745Y47865D3*
D24*
X67620Y104625D3*
Y106525D3*
X65320Y105575D3*
X67620Y100815D3*
Y102715D3*
X65320Y101765D3*
X67620Y97005D3*
Y98905D3*
X65320Y97955D3*
X67620Y93195D3*
Y95095D3*
X65320Y94145D3*
X67620Y89385D3*
Y91285D3*
X65320Y90335D3*
X67620Y85575D3*
Y87475D3*
X65320Y86525D3*
X67620Y81765D3*
Y83665D3*
X65320Y82715D3*
X67617Y77958D3*
Y79858D3*
X65317Y78908D3*
X26353Y92710D3*
Y94610D3*
X24052Y93660D3*
X26353Y88900D3*
Y90800D3*
X24052Y89850D3*
X26353Y85090D3*
Y86990D3*
X24052Y86040D3*
X26353Y81280D3*
Y83180D3*
X24052Y82230D3*
X26353Y77470D3*
Y79370D3*
X24052Y78420D3*
X26353Y73660D3*
Y75560D3*
X24052Y74610D3*
X26353Y69850D3*
Y71750D3*
X24052Y70800D3*
X26353Y66040D3*
Y67940D3*
X24052Y66990D3*
X26353Y62230D3*
Y64130D3*
X24052Y63180D3*
X26353Y58420D3*
Y60320D3*
X24052Y59370D3*
X26353Y54610D3*
Y56510D3*
X24052Y55560D3*
X26353Y50800D3*
Y52700D3*
X24052Y51750D3*
D25*
X35242Y59055D3*
X33343D3*
X34292Y56755D3*
X39053Y59055D3*
X37153D3*
X38102Y56755D3*
X42863Y59055D3*
X40963D3*
X41913Y56755D3*
X46673Y59055D3*
X44773D3*
X45723Y56755D3*
X72073Y58102D3*
X70172D3*
X71123Y55802D3*
X75883Y58102D3*
X73983D3*
X74933Y55802D3*
X79692Y58102D3*
X77793D3*
X78742Y55802D3*
X83502Y58102D3*
X81603D3*
X82552Y55802D3*
X87312Y58102D3*
X85412D3*
X86362Y55802D3*
X91123Y58102D3*
X89222D3*
X90172Y55802D3*
X94933Y58102D3*
X93032D3*
X93983Y55802D3*
X98743Y58102D3*
X96842D3*
X97793Y55802D3*
X36514Y6190D3*
X34614D3*
X35564Y3890D3*
X33974Y10000D3*
X32074D3*
X33024Y7700D3*
X31434Y6190D3*
X29534D3*
X30484Y3890D3*
X28894Y10000D3*
X26994D3*
X27944Y7700D3*
X26354Y6190D3*
X24454D3*
X25404Y3890D3*
X23814Y10000D3*
X21914D3*
X22864Y7700D3*
X21274Y6190D3*
X19374D3*
X20324Y3890D3*
X18734Y10000D3*
X16834D3*
X17784Y7700D3*
X56834Y6190D3*
X54934D3*
X55884Y3890D3*
X54294Y10000D3*
X52394D3*
X53344Y7700D3*
X51754Y6190D3*
X49854D3*
X50804Y3890D3*
X49214Y10000D3*
X47314D3*
X48264Y7700D3*
X46674Y6190D3*
X44774D3*
X45724Y3890D3*
X44134Y10000D3*
X42234D3*
X43184Y7700D3*
X41594Y6190D3*
X39694D3*
X40644Y3890D3*
X39054Y10000D3*
X37154D3*
X38104Y7700D3*
X77154Y6190D3*
X75254D3*
X76204Y3890D3*
X74614Y10000D3*
X72714D3*
X73664Y7700D3*
X72074Y6190D3*
X70174D3*
X71124Y3890D3*
X69534Y10000D3*
X67634D3*
X68584Y7700D3*
X66994Y6190D3*
X65094D3*
X66044Y3890D3*
X64454Y10000D3*
X62554D3*
X63504Y7700D3*
X61914Y6190D3*
X60014D3*
X60964Y3890D3*
X59374Y10000D3*
X57474D3*
X58424Y7700D3*
X97474Y6190D3*
X95574D3*
X96524Y3890D3*
X94934Y10000D3*
X93034D3*
X93984Y7700D3*
X92394Y6190D3*
X90494D3*
X91444Y3890D3*
X89854Y10000D3*
X87954D3*
X88904Y7700D3*
X87314Y6190D3*
X85414D3*
X86364Y3890D3*
X84774Y10000D3*
X82874D3*
X83824Y7700D3*
X82234Y6190D3*
X80334D3*
X81284Y3890D3*
X79694Y10000D3*
X77794D3*
X78744Y7700D3*
D26*
X103822Y104299D3*
Y100799D3*
D27*
X1825Y103878D3*
Y101338D3*
Y98798D3*
Y96258D3*
Y93718D3*
Y91178D3*
Y88638D3*
Y86098D3*
Y83558D3*
Y81018D3*
Y78478D3*
Y75938D3*
Y73398D3*
Y70858D3*
Y68318D3*
Y65778D3*
Y63238D3*
Y60698D3*
Y58158D3*
Y55618D3*
Y53078D3*
Y50538D3*
Y47998D3*
Y45458D3*
Y42918D3*
Y40378D3*
Y37838D3*
Y35298D3*
Y32758D3*
Y30218D3*
Y27678D3*
Y25138D3*
X24Y103878D3*
Y101338D3*
Y98798D3*
Y96258D3*
Y93718D3*
Y91178D3*
Y88638D3*
Y86098D3*
Y83558D3*
Y81018D3*
Y78478D3*
Y75938D3*
Y73398D3*
Y70858D3*
Y68318D3*
Y65778D3*
Y63238D3*
Y60698D3*
Y58158D3*
Y55618D3*
Y53078D3*
Y50538D3*
Y47998D3*
Y45458D3*
Y42918D3*
Y40378D3*
Y37838D3*
Y35298D3*
Y32758D3*
Y30218D3*
Y27678D3*
Y25138D3*
D28*
X104140Y86201D3*
D29*
Y83661D3*
Y81121D3*
Y78581D3*
Y76041D3*
Y73501D3*
Y70961D3*
D28*
X106680Y86201D3*
D29*
Y83661D3*
Y81121D3*
Y78581D3*
Y76041D3*
Y73501D3*
Y70961D3*
D30*
X17725Y1800D3*
X20264D3*
X22805D3*
X25345D3*
X27885D3*
X30425D3*
X32965D3*
X35505D3*
X38044D3*
X40584D3*
X43125D3*
X45665D3*
X48204D3*
X50744D3*
X53285D3*
X55825D3*
X58364D3*
X60905D3*
X63445D3*
X65985D3*
X68525D3*
X71064D3*
X73605D3*
X76145D3*
X78684D3*
X81224D3*
X83764D3*
X86305D3*
X88844D3*
X91385D3*
X93925D3*
X96465D3*
X17725Y0D3*
X20264D3*
X22805D3*
X25345D3*
X27885D3*
X30425D3*
X32965D3*
X35505D3*
X38044D3*
X40584D3*
X43125D3*
X45665D3*
X48204D3*
X50744D3*
X53285D3*
X55825D3*
X58364D3*
X60905D3*
X63445D3*
X65985D3*
X68525D3*
X71064D3*
X73605D3*
X76145D3*
X78684D3*
X81224D3*
X83764D3*
X86305D3*
X88844D3*
X91385D3*
X93925D3*
X96465D3*
D28*
X106680Y38576D3*
D29*
Y36036D3*
Y33496D3*
Y30956D3*
Y28416D3*
Y25876D3*
Y23336D3*
D28*
X104140Y38576D3*
D29*
Y36036D3*
Y33496D3*
Y30956D3*
Y28416D3*
Y25876D3*
Y23336D3*
M02*
