G04 DipTrace 2.4.0.2*
%INTop_Solder.gbr*%
%MOMM*%
%ADD51R,0.45X0.85*%
%ADD53R,0.85X0.45*%
%ADD55R,0.4X1.8*%
%ADD57R,1.8X0.4*%
%ADD59R,1.1X1.3*%
%ADD61R,1.3X1.1*%
%FSLAX53Y53*%
G04*
G71*
G90*
G75*
G01*
%LNTopPaste*%
%LPD*%
D61*
X33655Y72078D3*
Y73978D3*
D59*
X82228Y73819D3*
X80328D3*
X84616Y95094D3*
X86516D3*
D61*
X44133Y84778D3*
Y86678D3*
X86360Y29522D3*
Y27622D3*
D59*
X27146Y27623D3*
X25246D3*
D61*
X89538Y29684D3*
Y27784D3*
X66040Y29046D3*
Y27146D3*
D57*
X75405Y95090D3*
Y93820D3*
Y92550D3*
Y91280D3*
Y90010D3*
Y88740D3*
Y87470D3*
Y86200D3*
X80805D3*
Y87470D3*
Y88740D3*
Y90010D3*
Y91280D3*
Y92550D3*
Y93820D3*
Y95090D3*
X35560Y84773D3*
Y83503D3*
Y82233D3*
Y80963D3*
Y79693D3*
Y78422D3*
Y77153D3*
Y75883D3*
X40960D3*
Y77153D3*
Y78422D3*
Y79693D3*
Y80963D3*
Y82233D3*
Y83503D3*
Y84773D3*
D55*
X35877Y66992D3*
X37148D3*
X38417D3*
X39688D3*
X40958D3*
X42227D3*
X43498D3*
X44768D3*
Y72392D3*
X43498D3*
X42227D3*
X40958D3*
X39688D3*
X38417D3*
X37148D3*
X35877D3*
X82233Y66040D3*
X83503D3*
X84773D3*
X86043D3*
X87312D3*
X88583D3*
X89853D3*
X91123D3*
Y71440D3*
X89853D3*
X88583D3*
X87312D3*
X86043D3*
X84773D3*
X83503D3*
X82233D3*
X25401Y18890D3*
X26671D3*
X27941D3*
X29211D3*
X30481D3*
X31751D3*
X33021D3*
X34291D3*
Y24290D3*
X33021D3*
X31751D3*
X30481D3*
X29211D3*
X27941D3*
X26671D3*
X25401D3*
D57*
X57944Y27305D3*
Y26035D3*
Y24765D3*
Y23495D3*
Y22225D3*
Y20955D3*
Y19685D3*
Y18415D3*
X63344D3*
Y19685D3*
Y20955D3*
Y22225D3*
Y23495D3*
Y24765D3*
Y26035D3*
Y27305D3*
X78264D3*
Y26035D3*
Y24765D3*
Y23495D3*
Y22225D3*
Y20955D3*
Y19685D3*
Y18415D3*
X83664D3*
Y19685D3*
Y20955D3*
Y22225D3*
Y23495D3*
Y24765D3*
Y26035D3*
Y27305D3*
D55*
X89535Y20003D3*
X90805D3*
X92075D3*
X93345D3*
X94615D3*
X95885D3*
X97155D3*
X98425D3*
Y25403D3*
X97155D3*
X95885D3*
X94615D3*
X93345D3*
X92075D3*
X90805D3*
X89535D3*
D59*
X54917Y104628D3*
X53017D3*
X54917Y100818D3*
X53017D3*
X54917Y97008D3*
X53017D3*
X54917Y93198D3*
X53017D3*
X54917Y89388D3*
X53017D3*
X54917Y85578D3*
X53017D3*
X54917Y81768D3*
X53017D3*
X54915Y77960D3*
X53015D3*
X13650Y92712D3*
X11750D3*
X13650Y88902D3*
X11750D3*
X13650Y85093D3*
X11750D3*
X13650Y81282D3*
X11750D3*
X13650Y77472D3*
X11750D3*
X13650Y73663D3*
X11750D3*
X13650Y69853D3*
X11750D3*
X13650Y66043D3*
X11750D3*
X13650Y62232D3*
X11750D3*
X13650Y58422D3*
X11750D3*
X13650Y54613D3*
X11750D3*
X13650Y50803D3*
X11750D3*
X32385Y46355D3*
X30485D3*
X38894D3*
X36994D3*
X42860Y46357D3*
X40960D3*
X46826Y46355D3*
X44926D3*
D61*
X72070Y46352D3*
Y44453D3*
X75880Y46352D3*
Y44453D3*
X79690Y46352D3*
Y44453D3*
X83500Y46353D3*
Y44453D3*
X87310Y46352D3*
Y44453D3*
X91120Y46352D3*
Y44453D3*
X94930Y46352D3*
Y44453D3*
X98740Y46352D3*
Y44453D3*
X60635Y103673D3*
Y105573D3*
Y99863D3*
Y101763D3*
Y96053D3*
Y97953D3*
Y92243D3*
Y94143D3*
Y88433D3*
Y90333D3*
Y84623D3*
Y86523D3*
Y80813D3*
Y82713D3*
X60632Y77005D3*
Y78905D3*
X19367Y91757D3*
Y93658D3*
Y87947D3*
Y89848D3*
Y84138D3*
Y86038D3*
Y80328D3*
Y82228D3*
Y76517D3*
Y78418D3*
Y72707D3*
Y74608D3*
Y68897D3*
Y70797D3*
Y65088D3*
Y66987D3*
Y61278D3*
Y63178D3*
Y57468D3*
Y59367D3*
Y53657D3*
Y55557D3*
Y49847D3*
Y51747D3*
D59*
X36195Y52546D3*
X34295D3*
X40005D3*
X38105D3*
X43815D3*
X41915D3*
X47625D3*
X45725D3*
X73025Y51911D3*
X71125D3*
X76835D3*
X74935D3*
X80645D3*
X78745D3*
X84455D3*
X82555D3*
X88265D3*
X86365D3*
X92075D3*
X90175D3*
X95885D3*
X93985D3*
X99695D3*
X97795D3*
D61*
X63175Y103673D3*
Y105573D3*
Y99863D3*
Y101763D3*
Y96053D3*
Y97953D3*
Y92243D3*
Y94143D3*
Y88433D3*
Y90333D3*
Y84623D3*
Y86523D3*
Y80813D3*
Y82713D3*
X63172Y77005D3*
Y78905D3*
X22066Y91757D3*
Y93658D3*
Y87947D3*
Y89848D3*
Y84138D3*
Y86038D3*
Y80328D3*
Y82228D3*
Y76517D3*
Y78418D3*
Y72707D3*
Y74608D3*
Y68897D3*
Y70797D3*
Y65088D3*
Y66987D3*
Y61278D3*
Y63178D3*
Y57468D3*
Y59367D3*
Y53657D3*
Y55557D3*
Y49847D3*
Y51747D3*
D59*
X36195Y54928D3*
X34295D3*
X40005D3*
X38105D3*
X43815D3*
X41915D3*
X47625D3*
X45725D3*
X73025Y54134D3*
X71125D3*
X76835D3*
X74935D3*
X80645D3*
X78745D3*
X84455D3*
X82555D3*
X88265D3*
X86365D3*
X92075D3*
X90175D3*
X95885D3*
X93985D3*
X99695D3*
X97795D3*
D61*
X69527Y106528D3*
Y104628D3*
Y102718D3*
Y100818D3*
Y98908D3*
Y97008D3*
Y95098D3*
Y93198D3*
Y91288D3*
Y89388D3*
Y87478D3*
Y85578D3*
Y83668D3*
Y81768D3*
X69525Y79860D3*
Y77960D3*
X28260Y94613D3*
Y92712D3*
Y90803D3*
Y88902D3*
Y86993D3*
Y85093D3*
Y83182D3*
Y81282D3*
Y79372D3*
Y77472D3*
Y75563D3*
Y73663D3*
Y71752D3*
Y69853D3*
Y67942D3*
Y66043D3*
Y64133D3*
Y62233D3*
Y60322D3*
Y58423D3*
Y56512D3*
Y54613D3*
Y52702D3*
Y50803D3*
D59*
X33340Y60962D3*
X35240D3*
X37150D3*
X39050D3*
X40960D3*
X42860D3*
X44770D3*
X46670D3*
X70170Y60010D3*
X72070D3*
X73980D3*
X75880D3*
X77790D3*
X79690D3*
X81600D3*
X83500D3*
X85410D3*
X87310D3*
X89220D3*
X91120D3*
X93030D3*
X94930D3*
X96840D3*
X98740D3*
D61*
X36196Y14763D3*
Y12862D3*
X33974Y14763D3*
Y12862D3*
X31116Y14763D3*
Y12862D3*
X28894Y14763D3*
Y12862D3*
X26036Y14763D3*
Y12862D3*
X23814Y14763D3*
Y12862D3*
X20639Y14763D3*
Y12862D3*
X18416Y14763D3*
Y12862D3*
X56516Y14763D3*
Y12862D3*
X54294Y14763D3*
Y12862D3*
X51436Y14763D3*
Y12862D3*
X49214Y14763D3*
Y12862D3*
X46356Y14763D3*
Y12862D3*
X44134Y14763D3*
Y12862D3*
X40959Y14763D3*
Y12862D3*
X39054Y14763D3*
Y12862D3*
X76836Y14763D3*
Y12862D3*
X74614Y14763D3*
Y12862D3*
X71756Y14763D3*
Y12862D3*
X69534Y14763D3*
Y12862D3*
X66676Y14763D3*
Y12862D3*
X64454Y14763D3*
Y12862D3*
X61596Y14763D3*
Y12862D3*
X59374Y14763D3*
Y12862D3*
X97156Y14763D3*
Y12862D3*
X94934Y14763D3*
Y12862D3*
X92076Y14763D3*
Y12862D3*
X89854Y14763D3*
Y12862D3*
X86996Y14763D3*
Y12862D3*
X84774Y14763D3*
Y12862D3*
X81916Y14763D3*
Y12862D3*
X79694Y14763D3*
Y12862D3*
D53*
X58730Y103673D3*
Y105573D3*
X56430Y104623D3*
X58730Y99863D3*
Y101763D3*
X56430Y100813D3*
X58730Y96053D3*
Y97953D3*
X56430Y97003D3*
X58730Y92243D3*
Y94143D3*
X56430Y93193D3*
X58730Y88433D3*
Y90333D3*
X56430Y89383D3*
X58730Y84623D3*
Y86523D3*
X56430Y85573D3*
X58730Y80813D3*
Y82713D3*
X56430Y81763D3*
X58727Y77005D3*
Y78905D3*
X56427Y77955D3*
X17462Y91757D3*
Y93658D3*
X15162Y92707D3*
X17462Y87947D3*
Y89848D3*
X15162Y88897D3*
X17462Y84138D3*
Y86038D3*
X15162Y85087D3*
X17462Y80328D3*
Y82227D3*
X15162Y81277D3*
X17462Y76517D3*
Y78418D3*
X15162Y77468D3*
X17462Y72707D3*
Y74608D3*
X15162Y73657D3*
X17462Y68897D3*
Y70797D3*
X15162Y69847D3*
X17462Y65088D3*
Y66987D3*
X15162Y66038D3*
X17462Y61278D3*
Y63178D3*
X15162Y62227D3*
X17462Y57468D3*
Y59367D3*
X15162Y58417D3*
X17462Y53657D3*
Y55557D3*
X15162Y54607D3*
X17462Y49847D3*
Y51747D3*
X15162Y50797D3*
D51*
X36195Y50800D3*
X34295D3*
X35245Y48500D3*
X40005Y50800D3*
X38105D3*
X39055Y48500D3*
X43815Y50800D3*
X41915D3*
X42865Y48500D3*
X47625Y50800D3*
X45725D3*
X46675Y48500D3*
X73025Y50165D3*
X71125D3*
X72075Y47865D3*
X76835Y50165D3*
X74935D3*
X75885Y47865D3*
X80645Y50165D3*
X78745D3*
X79695Y47865D3*
X84455Y50165D3*
X82555D3*
X83505Y47865D3*
X88265Y50165D3*
X86365D3*
X87315Y47865D3*
X92075Y50165D3*
X90175D3*
X91125Y47865D3*
X95885Y50165D3*
X93985D3*
X94935Y47865D3*
X99695Y50165D3*
X97795D3*
X98745Y47865D3*
D53*
X67620Y104625D3*
Y106525D3*
X65320Y105575D3*
X67620Y100815D3*
Y102715D3*
X65320Y101765D3*
X67620Y97005D3*
Y98905D3*
X65320Y97955D3*
X67620Y93195D3*
Y95095D3*
X65320Y94145D3*
X67620Y89385D3*
Y91285D3*
X65320Y90335D3*
X67620Y85575D3*
Y87475D3*
X65320Y86525D3*
X67620Y81765D3*
Y83665D3*
X65320Y82715D3*
X67617Y77958D3*
Y79858D3*
X65317Y78908D3*
X26353Y92710D3*
Y94610D3*
X24052Y93660D3*
X26353Y88900D3*
Y90800D3*
X24052Y89850D3*
X26353Y85090D3*
Y86990D3*
X24052Y86040D3*
X26353Y81280D3*
Y83180D3*
X24052Y82230D3*
X26353Y77470D3*
Y79370D3*
X24052Y78420D3*
X26353Y73660D3*
Y75560D3*
X24052Y74610D3*
X26353Y69850D3*
Y71750D3*
X24052Y70800D3*
X26353Y66040D3*
Y67940D3*
X24052Y66990D3*
X26353Y62230D3*
Y64130D3*
X24052Y63180D3*
X26353Y58420D3*
Y60320D3*
X24052Y59370D3*
X26353Y54610D3*
Y56510D3*
X24052Y55560D3*
X26353Y50800D3*
Y52700D3*
X24052Y51750D3*
D51*
X35242Y59055D3*
X33343D3*
X34292Y56755D3*
X39053Y59055D3*
X37153D3*
X38102Y56755D3*
X42863Y59055D3*
X40963D3*
X41913Y56755D3*
X46673Y59055D3*
X44773D3*
X45723Y56755D3*
X72073Y58102D3*
X70172D3*
X71123Y55802D3*
X75883Y58102D3*
X73983D3*
X74933Y55802D3*
X79692Y58102D3*
X77793D3*
X78742Y55802D3*
X83502Y58102D3*
X81603D3*
X82552Y55802D3*
X87312Y58102D3*
X85412D3*
X86362Y55802D3*
X91123Y58102D3*
X89222D3*
X90172Y55802D3*
X94933Y58102D3*
X93032D3*
X93983Y55802D3*
X98743Y58102D3*
X96842D3*
X97793Y55802D3*
X36514Y6190D3*
X34614D3*
X35564Y3890D3*
X33974Y10000D3*
X32074D3*
X33024Y7700D3*
X31434Y6190D3*
X29534D3*
X30484Y3890D3*
X28894Y10000D3*
X26994D3*
X27944Y7700D3*
X26354Y6190D3*
X24454D3*
X25404Y3890D3*
X23814Y10000D3*
X21914D3*
X22864Y7700D3*
X21274Y6190D3*
X19374D3*
X20324Y3890D3*
X18734Y10000D3*
X16834D3*
X17784Y7700D3*
X56834Y6190D3*
X54934D3*
X55884Y3890D3*
X54294Y10000D3*
X52394D3*
X53344Y7700D3*
X51754Y6190D3*
X49854D3*
X50804Y3890D3*
X49214Y10000D3*
X47314D3*
X48264Y7700D3*
X46674Y6190D3*
X44774D3*
X45724Y3890D3*
X44134Y10000D3*
X42234D3*
X43184Y7700D3*
X41594Y6190D3*
X39694D3*
X40644Y3890D3*
X39054Y10000D3*
X37154D3*
X38104Y7700D3*
X77154Y6190D3*
X75254D3*
X76204Y3890D3*
X74614Y10000D3*
X72714D3*
X73664Y7700D3*
X72074Y6190D3*
X70174D3*
X71124Y3890D3*
X69534Y10000D3*
X67634D3*
X68584Y7700D3*
X66994Y6190D3*
X65094D3*
X66044Y3890D3*
X64454Y10000D3*
X62554D3*
X63504Y7700D3*
X61914Y6190D3*
X60014D3*
X60964Y3890D3*
X59374Y10000D3*
X57474D3*
X58424Y7700D3*
X97474Y6190D3*
X95574D3*
X96524Y3890D3*
X94934Y10000D3*
X93034D3*
X93984Y7700D3*
X92394Y6190D3*
X90494D3*
X91444Y3890D3*
X89854Y10000D3*
X87954D3*
X88904Y7700D3*
X87314Y6190D3*
X85414D3*
X86364Y3890D3*
X84774Y10000D3*
X82874D3*
X83824Y7700D3*
X82234Y6190D3*
X80334D3*
X81284Y3890D3*
X79694Y10000D3*
X77794D3*
X78744Y7700D3*
M02*
