G04 DipTrace 2.4.0.2*
%INTopMark.gbr*%
%MOMM*%
%ADD10C,0.25*%
%ADD12C,0.076*%
%ADD14C,0.5*%
%ADD21O,0.401X0.399*%
%ADD29O,0.391X0.391*%
%ADD41O,0.24X0.24*%
%ADD100C,0.196*%
%ADD101C,0.275*%
%ADD102C,0.235*%
%ADD103C,0.157*%
%ADD104C,0.314*%
%FSLAX53Y53*%
G04*
G71*
G90*
G75*
G01*
%LNTopSilk*%
%LPD*%
X135240Y134559D2*
D10*
X136540D1*
X126350D2*
X127650D1*
X122221Y134557D2*
X123520D1*
X141808Y136818D2*
Y130517D1*
X138308Y136818D2*
Y130517D1*
X141808Y134468D2*
X138308D1*
X124287Y134559D2*
X125586D1*
X121947Y119294D2*
X120648D1*
X140205Y117230D2*
X138906D1*
X121947Y115642D2*
X120648D1*
X126783Y124564D2*
X132785D1*
Y118564D1*
X126783D1*
Y124564D1*
G36*
D2*
Y123764D1*
X127584Y124564D1*
X126783D1*
G37*
D21*
X125583Y125014D3*
X143863Y124445D2*
D10*
G02X143863Y124445I1800J0D01*
G01*
X143363Y121445D2*
X147963D1*
X148664Y123445D2*
Y125445D1*
X147963Y127445D2*
X143763D1*
X142663Y125445D2*
Y123445D1*
X144163Y124445D2*
X144167Y124550D1*
X144178Y124654D1*
X144196Y124757D1*
X144221Y124858D1*
X144254Y124958D1*
X144293Y125055D1*
X144339Y125149D1*
X144391Y125240D1*
X144450Y125327D1*
X144514Y125409D1*
X144584Y125487D1*
X144660Y125560D1*
X144740Y125627D1*
X144825Y125689D1*
X144913Y125744D1*
X145006Y125793D1*
X145101Y125836D1*
X145200Y125872D1*
X145300Y125900D1*
X145403Y125922D1*
X145506Y125937D1*
X145611Y125944D1*
X145716D1*
X145820Y125937D1*
X145924Y125922D1*
X146026Y125900D1*
X146127Y125872D1*
X146225Y125836D1*
X146321Y125793D1*
X146413Y125744D1*
X146502Y125689D1*
X146587Y125627D1*
X146667Y125560D1*
X146742Y125487D1*
X146812Y125409D1*
X146877Y125327D1*
X146935Y125240D1*
X146987Y125149D1*
X147033Y125055D1*
X147072Y124958D1*
X147105Y124858D1*
X147130Y124757D1*
X147148Y124654D1*
X147159Y124550D1*
X147163Y124445D1*
X147159Y124340D1*
X147148Y124236D1*
X147130Y124133D1*
X147105Y124031D1*
X147072Y123932D1*
X147033Y123835D1*
X146987Y123741D1*
X146935Y123650D1*
X146877Y123563D1*
X146812Y123481D1*
X146742Y123403D1*
X146667Y123330D1*
X146587Y123263D1*
X146502Y123201D1*
X146413Y123146D1*
X146321Y123097D1*
X146225Y123054D1*
X146127Y123018D1*
X146026Y122989D1*
X145924Y122968D1*
X145820Y122953D1*
X145716Y122946D1*
X145611D1*
X145506Y122953D1*
X145403Y122968D1*
X145300Y122989D1*
X145200Y123018D1*
X145101Y123054D1*
X145006Y123097D1*
X144913Y123146D1*
X144825Y123201D1*
X144740Y123263D1*
X144660Y123330D1*
X144584Y123403D1*
X144514Y123481D1*
X144450Y123563D1*
X144391Y123650D1*
X144339Y123741D1*
X144293Y123835D1*
X144254Y123932D1*
X144221Y124031D1*
X144196Y124133D1*
X144178Y124236D1*
X144167Y124340D1*
X144163Y124445D1*
X90041Y130520D2*
G02X90041Y130520I1800J0D01*
G01*
X94141Y133520D2*
X89541D1*
X88841Y131521D2*
Y129520D1*
X89541Y127520D2*
X93741D1*
X94842Y129520D2*
Y131521D1*
X90341Y130520D2*
X90345Y130625D1*
X90356Y130729D1*
X90374Y130832D1*
X90400Y130934D1*
X90432Y131033D1*
X90471Y131130D1*
X90517Y131225D1*
X90569Y131315D1*
X90628Y131402D1*
X90692Y131485D1*
X90762Y131562D1*
X90838Y131635D1*
X90918Y131702D1*
X91003Y131764D1*
X91091Y131819D1*
X91184Y131869D1*
X91279Y131911D1*
X91378Y131947D1*
X91478Y131976D1*
X91581Y131998D1*
X91684Y132012D1*
X91789Y132019D1*
X91894D1*
X91998Y132012D1*
X92102Y131998D1*
X92204Y131976D1*
X92305Y131947D1*
X92403Y131911D1*
X92499Y131869D1*
X92591Y131819D1*
X92680Y131764D1*
X92765Y131702D1*
X92845Y131635D1*
X92920Y131562D1*
X92990Y131485D1*
X93055Y131402D1*
X93113Y131315D1*
X93165Y131225D1*
X93211Y131130D1*
X93251Y131033D1*
X93283Y130934D1*
X93308Y130832D1*
X93326Y130729D1*
X93337Y130625D1*
X93341Y130520D1*
X93337Y130416D1*
X93326Y130312D1*
X93308Y130208D1*
X93283Y130107D1*
X93251Y130007D1*
X93211Y129910D1*
X93165Y129816D1*
X93113Y129725D1*
X93055Y129639D1*
X92990Y129556D1*
X92920Y129478D1*
X92845Y129406D1*
X92765Y129338D1*
X92680Y129277D1*
X92591Y129221D1*
X92499Y129172D1*
X92403Y129129D1*
X92305Y129094D1*
X92204Y129065D1*
X92102Y129043D1*
X91998Y129028D1*
X91894Y129021D1*
X91789D1*
X91684Y129028D1*
X91581Y129043D1*
X91478Y129065D1*
X91378Y129094D1*
X91279Y129129D1*
X91184Y129172D1*
X91091Y129221D1*
X91003Y129277D1*
X90918Y129338D1*
X90838Y129406D1*
X90762Y129478D1*
X90692Y129556D1*
X90628Y129639D1*
X90569Y129725D1*
X90517Y129816D1*
X90471Y129910D1*
X90432Y130007D1*
X90400Y130107D1*
X90374Y130208D1*
X90356Y130312D1*
X90345Y130416D1*
X90341Y130520D1*
X80675Y126075D2*
G02X80675Y126075I1800J0D01*
G01*
X84775Y129075D2*
X80175D1*
X79475Y127076D2*
Y125075D1*
X80175Y123075D2*
X84375D1*
X85475Y125075D2*
Y127076D1*
X80975Y126075D2*
X80979Y126180D1*
X80990Y126284D1*
X81008Y126387D1*
X81033Y126489D1*
X81066Y126588D1*
X81105Y126685D1*
X81151Y126780D1*
X81203Y126870D1*
X81262Y126957D1*
X81326Y127040D1*
X81396Y127117D1*
X81471Y127190D1*
X81552Y127257D1*
X81636Y127319D1*
X81725Y127374D1*
X81818Y127424D1*
X81913Y127466D1*
X82012Y127502D1*
X82112Y127531D1*
X82215Y127553D1*
X82318Y127567D1*
X82423Y127574D1*
X82527D1*
X82632Y127567D1*
X82735Y127553D1*
X82838Y127531D1*
X82938Y127502D1*
X83037Y127466D1*
X83132Y127424D1*
X83225Y127374D1*
X83314Y127319D1*
X83398Y127257D1*
X83479Y127190D1*
X83554Y127117D1*
X83624Y127040D1*
X83688Y126957D1*
X83747Y126870D1*
X83799Y126780D1*
X83845Y126685D1*
X83884Y126588D1*
X83917Y126489D1*
X83942Y126387D1*
X83960Y126284D1*
X83971Y126180D1*
X83975Y126075D1*
X83971Y125971D1*
X83960Y125867D1*
X83942Y125763D1*
X83917Y125662D1*
X83884Y125562D1*
X83845Y125465D1*
X83799Y125371D1*
X83747Y125280D1*
X83688Y125194D1*
X83624Y125111D1*
X83554Y125033D1*
X83479Y124961D1*
X83398Y124893D1*
X83314Y124832D1*
X83225Y124776D1*
X83132Y124727D1*
X83037Y124684D1*
X82938Y124649D1*
X82838Y124620D1*
X82735Y124598D1*
X82632Y124583D1*
X82527Y124576D1*
X82423D1*
X82318Y124583D1*
X82215Y124598D1*
X82112Y124620D1*
X82012Y124649D1*
X81913Y124684D1*
X81818Y124727D1*
X81725Y124776D1*
X81636Y124832D1*
X81552Y124893D1*
X81471Y124961D1*
X81396Y125033D1*
X81326Y125111D1*
X81262Y125194D1*
X81203Y125280D1*
X81151Y125371D1*
X81105Y125465D1*
X81066Y125562D1*
X81033Y125662D1*
X81008Y125763D1*
X80990Y125867D1*
X80979Y125971D1*
X80975Y126075D1*
X99249D2*
G02X99249Y126075I1800J0D01*
G01*
X103349Y129075D2*
X98749D1*
X98048Y127076D2*
Y125075D1*
X98749Y123075D2*
X102949D1*
X104049Y125075D2*
Y127076D1*
X99549Y126075D2*
X99553Y126180D1*
X99564Y126284D1*
X99582Y126387D1*
X99607Y126489D1*
X99639Y126588D1*
X99679Y126685D1*
X99725Y126780D1*
X99777Y126870D1*
X99835Y126957D1*
X99900Y127040D1*
X99970Y127117D1*
X100045Y127190D1*
X100125Y127257D1*
X100210Y127319D1*
X100299Y127374D1*
X100391Y127424D1*
X100487Y127466D1*
X100585Y127502D1*
X100686Y127531D1*
X100788Y127553D1*
X100892Y127567D1*
X100996Y127574D1*
X101101D1*
X101206Y127567D1*
X101309Y127553D1*
X101412Y127531D1*
X101512Y127502D1*
X101611Y127466D1*
X101706Y127424D1*
X101799Y127374D1*
X101887Y127319D1*
X101972Y127257D1*
X102052Y127190D1*
X102128Y127117D1*
X102198Y127040D1*
X102262Y126957D1*
X102321Y126870D1*
X102373Y126780D1*
X102419Y126685D1*
X102458Y126588D1*
X102490Y126489D1*
X102516Y126387D1*
X102534Y126284D1*
X102545Y126180D1*
X102549Y126075D1*
X102545Y125971D1*
X102534Y125867D1*
X102516Y125763D1*
X102490Y125662D1*
X102458Y125562D1*
X102419Y125465D1*
X102373Y125371D1*
X102321Y125280D1*
X102262Y125194D1*
X102198Y125111D1*
X102128Y125033D1*
X102052Y124961D1*
X101972Y124893D1*
X101887Y124832D1*
X101799Y124776D1*
X101706Y124727D1*
X101611Y124684D1*
X101512Y124649D1*
X101412Y124620D1*
X101309Y124598D1*
X101206Y124583D1*
X101101Y124576D1*
X100996D1*
X100892Y124583D1*
X100788Y124598D1*
X100686Y124620D1*
X100585Y124649D1*
X100487Y124684D1*
X100391Y124727D1*
X100299Y124776D1*
X100210Y124832D1*
X100125Y124893D1*
X100045Y124961D1*
X99970Y125033D1*
X99900Y125111D1*
X99835Y125194D1*
X99777Y125280D1*
X99725Y125371D1*
X99679Y125465D1*
X99639Y125562D1*
X99607Y125662D1*
X99582Y125763D1*
X99564Y125867D1*
X99553Y125971D1*
X99549Y126075D1*
X90041Y121312D2*
G02X90041Y121312I1800J0D01*
G01*
X94141Y124313D2*
X89541D1*
X88841Y122313D2*
Y120312D1*
X89541Y118312D2*
X93741D1*
X94842Y120312D2*
Y122313D1*
X90341Y121313D2*
X90345Y121417D1*
X90356Y121522D1*
X90374Y121625D1*
X90400Y121726D1*
X90432Y121826D1*
X90471Y121923D1*
X90517Y122017D1*
X90569Y122108D1*
X90628Y122195D1*
X90692Y122277D1*
X90762Y122355D1*
X90838Y122428D1*
X90918Y122495D1*
X91003Y122556D1*
X91091Y122612D1*
X91184Y122661D1*
X91279Y122704D1*
X91378Y122739D1*
X91478Y122768D1*
X91581Y122790D1*
X91684Y122805D1*
X91789Y122812D1*
X91894D1*
X91998Y122805D1*
X92102Y122790D1*
X92204Y122768D1*
X92305Y122739D1*
X92403Y122704D1*
X92499Y122661D1*
X92591Y122612D1*
X92680Y122556D1*
X92765Y122495D1*
X92845Y122428D1*
X92920Y122355D1*
X92990Y122277D1*
X93055Y122195D1*
X93113Y122108D1*
X93165Y122017D1*
X93211Y121923D1*
X93251Y121826D1*
X93283Y121726D1*
X93308Y121625D1*
X93326Y121522D1*
X93337Y121417D1*
X93341Y121313D1*
X93337Y121208D1*
X93326Y121104D1*
X93308Y121001D1*
X93283Y120899D1*
X93251Y120800D1*
X93211Y120703D1*
X93165Y120609D1*
X93113Y120518D1*
X93055Y120431D1*
X92990Y120349D1*
X92920Y120271D1*
X92845Y120198D1*
X92765Y120131D1*
X92680Y120069D1*
X92591Y120014D1*
X92499Y119965D1*
X92403Y119922D1*
X92305Y119886D1*
X92204Y119857D1*
X92102Y119836D1*
X91998Y119821D1*
X91894Y119814D1*
X91789D1*
X91684Y119821D1*
X91581Y119836D1*
X91478Y119857D1*
X91378Y119886D1*
X91279Y119922D1*
X91184Y119965D1*
X91091Y120014D1*
X91003Y120069D1*
X90918Y120131D1*
X90838Y120198D1*
X90762Y120271D1*
X90692Y120349D1*
X90628Y120431D1*
X90569Y120518D1*
X90517Y120609D1*
X90471Y120703D1*
X90432Y120800D1*
X90400Y120899D1*
X90374Y121001D1*
X90356Y121104D1*
X90345Y121208D1*
X90341Y121313D1*
X84168Y150681D2*
G02X84168Y150681I1800J0D01*
G01*
X88268Y153681D2*
X83667D1*
X82967Y151682D2*
Y149681D1*
X83667Y147681D2*
X87867D1*
X88968Y149681D2*
Y151682D1*
X84468Y150682D2*
X84471Y150786D1*
X84482Y150890D1*
X84500Y150993D1*
X84526Y151095D1*
X84558Y151195D1*
X84597Y151292D1*
X84643Y151386D1*
X84696Y151476D1*
X84754Y151563D1*
X84819Y151646D1*
X84889Y151724D1*
X84964Y151796D1*
X85044Y151864D1*
X85129Y151925D1*
X85218Y151981D1*
X85310Y152030D1*
X85406Y152072D1*
X85504Y152108D1*
X85605Y152137D1*
X85707Y152159D1*
X85811Y152173D1*
X85915Y152181D1*
X86020D1*
X86124Y152173D1*
X86228Y152159D1*
X86330Y152137D1*
X86431Y152108D1*
X86529Y152072D1*
X86625Y152030D1*
X86717Y151981D1*
X86806Y151925D1*
X86891Y151864D1*
X86971Y151796D1*
X87046Y151724D1*
X87116Y151646D1*
X87181Y151563D1*
X87239Y151476D1*
X87292Y151386D1*
X87338Y151292D1*
X87377Y151195D1*
X87409Y151095D1*
X87435Y150993D1*
X87453Y150890D1*
X87464Y150786D1*
X87467Y150682D1*
X87464Y150577D1*
X87453Y150473D1*
X87435Y150370D1*
X87409Y150268D1*
X87377Y150168D1*
X87338Y150071D1*
X87292Y149977D1*
X87239Y149887D1*
X87181Y149800D1*
X87116Y149717D1*
X87046Y149639D1*
X86971Y149567D1*
X86891Y149499D1*
X86806Y149438D1*
X86717Y149382D1*
X86625Y149333D1*
X86529Y149291D1*
X86431Y149255D1*
X86330Y149226D1*
X86228Y149204D1*
X86124Y149190D1*
X86020Y149182D1*
X85915D1*
X85811Y149190D1*
X85707Y149204D1*
X85605Y149226D1*
X85504Y149255D1*
X85406Y149291D1*
X85310Y149333D1*
X85218Y149382D1*
X85129Y149438D1*
X85044Y149499D1*
X84964Y149567D1*
X84889Y149639D1*
X84819Y149717D1*
X84754Y149800D1*
X84696Y149887D1*
X84643Y149977D1*
X84597Y150071D1*
X84558Y150168D1*
X84526Y150268D1*
X84500Y150370D1*
X84482Y150473D1*
X84471Y150577D1*
X84468Y150682D1*
X137808Y142923D2*
X121616D1*
Y160861D1*
X137808D1*
Y142923D1*
D29*
X129968Y136103D3*
X130101Y137476D2*
D10*
X133101D1*
X130101Y138276D2*
X133101D1*
Y137476D2*
Y138276D1*
X130101Y137476D2*
Y138276D1*
X92551Y149224D2*
X91916D1*
X92551Y151766D2*
Y149224D1*
Y151766D2*
X91916D1*
X117316Y149224D2*
X116681D1*
Y151766D2*
Y149224D1*
X117316Y151766D2*
X116681D1*
X91916Y154940D2*
Y146050D1*
X117316Y154940D2*
Y146050D1*
Y154940D2*
X91916D1*
X102584Y146815D2*
Y146050D1*
X106648Y146815D2*
X102584D1*
X106648D2*
Y146050D1*
X102584D2*
X91916D1*
X117316D2*
X106648D1*
X147003Y46514D2*
X144463D1*
Y28734D1*
X147003D1*
Y46514D1*
X149543D2*
X147003D1*
Y28734D1*
X149543D1*
Y46514D1*
X16831Y31113D2*
X18095D1*
X17463Y31755D2*
Y30472D1*
X21273Y32394D2*
Y15866D1*
X13653D2*
X21273D1*
X13653Y32394D2*
Y15866D1*
Y32394D2*
X21273D1*
X13176Y30469D2*
X6509D1*
Y23484D1*
X13176D1*
Y30469D1*
X146050Y106839D2*
X143510D1*
Y89059D1*
X146050D1*
Y106839D1*
X148590Y106838D2*
X146050D1*
Y89058D1*
X148590D1*
Y106838D1*
X90072Y37451D2*
Y38750D1*
X36593Y31245D2*
X46592D1*
X36593Y33845D2*
X46592D1*
Y31245D2*
Y33845D1*
X36593Y31245D2*
Y32045D1*
Y33045D2*
Y33845D1*
Y32045D2*
G03X36593Y33045I0J500D01*
G01*
X34192Y37451D2*
Y38750D1*
X64533Y31245D2*
X74532D1*
X64533Y33845D2*
X74532D1*
Y31245D2*
Y33845D1*
X64533Y31245D2*
Y32045D1*
Y33045D2*
Y33845D1*
Y32045D2*
G03X64533Y33045I0J500D01*
G01*
X118012Y37768D2*
Y39067D1*
X92473Y31245D2*
X102472D1*
X92473Y33845D2*
X102472D1*
Y31245D2*
Y33845D1*
X92473Y31245D2*
Y32045D1*
Y33045D2*
Y33845D1*
Y32045D2*
G03X92473Y33045I0J500D01*
G01*
X62132Y37451D2*
Y38750D1*
X120413Y31245D2*
X130412D1*
X120413Y33845D2*
X130412D1*
Y31245D2*
Y33845D1*
X120413Y31245D2*
Y32045D1*
Y33045D2*
Y33845D1*
Y32045D2*
G03X120413Y33045I0J500D01*
G01*
X68912Y103883D2*
X67613D1*
X61567Y136602D2*
Y126603D1*
X64168Y136602D2*
Y126603D1*
X61567D2*
X64168D1*
X61567Y136602D2*
X62367D1*
X63368D2*
X64168D1*
X62367D2*
G03X63368Y136602I500J0D01*
G01*
X68678Y74786D2*
Y73487D1*
X61567Y105170D2*
Y95170D1*
X64168Y105170D2*
Y95170D1*
X61567D2*
X64168D1*
X61567Y105170D2*
X62367D1*
X63368D2*
X64168D1*
X62367D2*
G03X63368Y105170I500J0D01*
G01*
X105344Y96535D2*
Y95236D1*
X61725Y72945D2*
Y62945D1*
X64325Y72945D2*
Y62945D1*
X61725D2*
X64325D1*
X61725Y72945D2*
X62525D1*
X63525D2*
X64325D1*
X62525D2*
G03X63525Y72945I500J0D01*
G01*
X68753Y134998D2*
X67454D1*
X103903Y89665D2*
X113902D1*
X103903Y92265D2*
X113902D1*
Y89665D2*
Y92265D1*
X103903Y89665D2*
Y90465D1*
Y91465D2*
Y92265D1*
Y90465D2*
G03X103903Y91465I0J500D01*
G01*
D29*
X25231Y21011D3*
X24997Y19738D2*
D10*
X21997D1*
Y19237D1*
X24997D1*
Y19738D1*
D29*
X28723Y21011D3*
X28490Y19738D2*
D10*
X25490D1*
Y19237D1*
X28490D1*
Y19738D1*
D29*
X32533Y21011D3*
X32300Y19738D2*
D10*
X29300D1*
Y19237D1*
X32300D1*
Y19738D1*
D29*
X36026Y21011D3*
X35792Y19738D2*
D10*
X32792D1*
Y19237D1*
X35792D1*
Y19738D1*
D29*
X39518Y21011D3*
X39285Y19738D2*
D10*
X36285D1*
Y19237D1*
X39285D1*
Y19738D1*
D29*
X43011Y21011D3*
X42777Y19738D2*
D10*
X39777D1*
Y19237D1*
X42777D1*
Y19738D1*
D29*
X46503Y21011D3*
X46270Y19738D2*
D10*
X43270D1*
Y19237D1*
X46270D1*
Y19738D1*
D29*
X49996Y21011D3*
X49762Y19738D2*
D10*
X46762D1*
Y19237D1*
X49762D1*
Y19738D1*
D29*
X53488Y21011D3*
X53255Y19738D2*
D10*
X50255D1*
Y19237D1*
X53255D1*
Y19738D1*
D29*
X56981Y21011D3*
X56747Y19738D2*
D10*
X53747D1*
Y19237D1*
X56747D1*
Y19738D1*
D29*
X60473Y21011D3*
X60240Y19738D2*
D10*
X57240D1*
Y19237D1*
X60240D1*
Y19738D1*
D29*
X63966Y21011D3*
X63732Y19738D2*
D10*
X60732D1*
Y19237D1*
X63732D1*
Y19738D1*
D29*
X67458Y21011D3*
X67225Y19738D2*
D10*
X64225D1*
Y19237D1*
X67225D1*
Y19738D1*
D29*
X70951Y21011D3*
X70717Y19738D2*
D10*
X67717D1*
Y19237D1*
X70717D1*
Y19738D1*
D29*
X74443Y21011D3*
X74210Y19738D2*
D10*
X71210D1*
Y19237D1*
X74210D1*
Y19738D1*
D29*
X77936Y21011D3*
X77702Y19738D2*
D10*
X74702D1*
Y19237D1*
X77702D1*
Y19738D1*
D29*
X81428Y21011D3*
X81195Y19738D2*
D10*
X78195D1*
Y19237D1*
X81195D1*
Y19738D1*
D29*
X84921Y21011D3*
X84687Y19738D2*
D10*
X81687D1*
Y19237D1*
X84687D1*
Y19738D1*
D29*
X88413Y21011D3*
X88180Y19738D2*
D10*
X85180D1*
Y19237D1*
X88180D1*
Y19738D1*
D29*
X91906Y21011D3*
X91672Y19738D2*
D10*
X88672D1*
Y19237D1*
X91672D1*
Y19738D1*
D29*
X95398Y21011D3*
X95165Y19738D2*
D10*
X92165D1*
Y19237D1*
X95165D1*
Y19738D1*
D29*
X98891Y21011D3*
X98657Y19738D2*
D10*
X95657D1*
Y19237D1*
X98657D1*
Y19738D1*
D29*
X102383Y21011D3*
X102150Y19738D2*
D10*
X99150D1*
Y19237D1*
X102150D1*
Y19738D1*
D29*
X105876Y21011D3*
X105642Y19738D2*
D10*
X102642D1*
Y19237D1*
X105642D1*
Y19738D1*
D29*
X109368Y21011D3*
X109135Y19738D2*
D10*
X106135D1*
Y19237D1*
X109135D1*
Y19738D1*
D29*
X112861Y21011D3*
X112627Y19738D2*
D10*
X109627D1*
Y19237D1*
X112627D1*
Y19738D1*
D29*
X116353Y21011D3*
X116120Y19738D2*
D10*
X113120D1*
Y19237D1*
X116120D1*
Y19738D1*
D29*
X119846Y21011D3*
X119612Y19738D2*
D10*
X116612D1*
Y19237D1*
X119612D1*
Y19738D1*
D29*
X123338Y21011D3*
X123105Y19738D2*
D10*
X120105D1*
Y19237D1*
X123105D1*
Y19738D1*
D29*
X126831Y21011D3*
X126597Y19738D2*
D10*
X123597D1*
Y19237D1*
X126597D1*
Y19738D1*
D29*
X130323Y21011D3*
X130090Y19738D2*
D10*
X127090D1*
Y19237D1*
X130090D1*
Y19738D1*
D29*
X133816Y21011D3*
X133582Y19738D2*
D10*
X130583D1*
Y19237D1*
X133582D1*
Y19738D1*
X32560Y146749D2*
X31261D1*
X27952Y147497D2*
X27353D1*
X27952Y149998D2*
X27353D1*
X36821D2*
X37419D1*
X36821Y147497D2*
X37419D1*
X33363Y147947D2*
Y149547D1*
X34562Y147947D2*
Y149547D1*
D41*
X33963Y147007D3*
X47503Y148095D2*
D10*
Y149695D1*
X48702Y148095D2*
Y149695D1*
D41*
X48102Y147155D3*
D29*
X46254Y147011D3*
X44980Y147245D2*
D10*
Y150245D1*
X44480D1*
Y147245D1*
X44980D1*
D29*
X52604Y147011D3*
X51330Y147245D2*
D10*
Y150245D1*
X50830D1*
Y147245D1*
X51330D1*
X32560Y142617D2*
X31261D1*
X27952Y143365D2*
X27353D1*
X27952Y145865D2*
X27353D1*
X36821D2*
X37419D1*
X36821Y143365D2*
X37419D1*
X33363Y143815D2*
Y145415D1*
X34562Y143815D2*
Y145415D1*
D41*
X33963Y142875D3*
X47503Y143962D2*
D10*
Y145562D1*
X48702Y143962D2*
Y145562D1*
D41*
X48102Y143022D3*
D29*
X46254Y142879D3*
X44980Y143113D2*
D10*
Y146113D1*
X44480D1*
Y143113D1*
X44980D1*
D29*
X52604Y142879D3*
X51330Y143113D2*
D10*
Y146113D1*
X50830D1*
Y143113D1*
X51330D1*
X32560Y138489D2*
X31261D1*
X27952Y139237D2*
X27353D1*
X27952Y141738D2*
X27353D1*
X36821D2*
X37419D1*
X36821Y139237D2*
X37419D1*
X33363Y139687D2*
Y141287D1*
X34562Y139687D2*
Y141287D1*
D41*
X33963Y138747D3*
X47503Y139835D2*
D10*
Y141435D1*
X48702Y139835D2*
Y141435D1*
D41*
X48102Y138895D3*
D29*
X46254Y138751D3*
X44980Y138985D2*
D10*
Y141985D1*
X44480D1*
Y138985D1*
X44980D1*
D29*
X52604Y138751D3*
X51330Y138985D2*
D10*
Y141985D1*
X50830D1*
Y138985D1*
X51330D1*
X32560Y134362D2*
X31261D1*
X27952Y135110D2*
X27353D1*
X27952Y137610D2*
X27353D1*
X36821D2*
X37419D1*
X36821Y135110D2*
X37419D1*
X33363Y135560D2*
Y137160D1*
X34562Y135560D2*
Y137160D1*
D41*
X33963Y134620D3*
X47503Y135707D2*
D10*
Y137307D1*
X48702Y135707D2*
Y137307D1*
D41*
X48102Y134767D3*
D29*
X46254Y134624D3*
X44980Y134858D2*
D10*
Y137857D1*
X44480D1*
Y134858D1*
X44980D1*
D29*
X52604Y134624D3*
X51330Y134858D2*
D10*
Y137857D1*
X50830D1*
Y134858D1*
X51330D1*
X32560Y130234D2*
X31261D1*
X27952Y130982D2*
X27353D1*
X27952Y133483D2*
X27353D1*
X36821D2*
X37419D1*
X36821Y130982D2*
X37419D1*
X33363Y131432D2*
Y133032D1*
X34562Y131432D2*
Y133032D1*
D41*
X33963Y130492D3*
X47503Y131580D2*
D10*
Y133180D1*
X48702Y131580D2*
Y133180D1*
D41*
X48102Y130640D3*
D29*
X46254Y130496D3*
X44980Y130730D2*
D10*
Y133730D1*
X44480D1*
Y130730D1*
X44980D1*
D29*
X52604Y130496D3*
X51330Y130730D2*
D10*
Y133730D1*
X50830D1*
Y130730D1*
X51330D1*
X32560Y126107D2*
X31261D1*
X27952Y126855D2*
X27353D1*
X27952Y129355D2*
X27353D1*
X36821D2*
X37419D1*
X36821Y126855D2*
X37419D1*
X33363Y127305D2*
Y128905D1*
X34562Y127305D2*
Y128905D1*
D41*
X33963Y126365D3*
X47503Y127452D2*
D10*
Y129052D1*
X48702Y127452D2*
Y129052D1*
D41*
X48102Y126512D3*
D29*
X46254Y126369D3*
X44980Y126603D2*
D10*
Y129602D1*
X44480D1*
Y126603D1*
X44980D1*
D29*
X52604Y126369D3*
X51330Y126603D2*
D10*
Y129602D1*
X50830D1*
Y126603D1*
X51330D1*
X32560Y121979D2*
X31261D1*
X27952Y122727D2*
X27353D1*
X27952Y125228D2*
X27353D1*
X36821D2*
X37419D1*
X36821Y122727D2*
X37419D1*
X33363Y123177D2*
Y124777D1*
X34562Y123177D2*
Y124777D1*
D41*
X33963Y122237D3*
X47503Y123325D2*
D10*
Y124925D1*
X48702Y123325D2*
Y124925D1*
D41*
X48102Y122385D3*
D29*
X46254Y122241D3*
X44980Y122475D2*
D10*
Y125475D1*
X44480D1*
Y122475D1*
X44980D1*
D29*
X52604Y122241D3*
X51330Y122475D2*
D10*
Y125475D1*
X50830D1*
Y122475D1*
X51330D1*
X32560Y117857D2*
X31261D1*
X27952Y118605D2*
X27353D1*
X27952Y121105D2*
X27353D1*
X36821D2*
X37419D1*
X36821Y118605D2*
X37419D1*
X33363Y119055D2*
Y120655D1*
X34562Y119055D2*
Y120655D1*
D41*
X33963Y118115D3*
X47503Y119202D2*
D10*
Y120802D1*
X48702Y119202D2*
Y120802D1*
D41*
X48102Y118262D3*
D29*
X46254Y118119D3*
X44980Y118353D2*
D10*
Y121353D1*
X44480D1*
Y118353D1*
X44980D1*
D29*
X52604Y118119D3*
X51330Y118353D2*
D10*
Y121353D1*
X50830D1*
Y118353D1*
X51330D1*
X32560Y113719D2*
X31261D1*
X27952Y114467D2*
X27353D1*
X27952Y116968D2*
X27353D1*
X36821D2*
X37419D1*
X36821Y114467D2*
X37419D1*
X33363Y114917D2*
Y116517D1*
X34562Y114917D2*
Y116517D1*
D41*
X33963Y113977D3*
X47503Y115065D2*
D10*
Y116665D1*
X48702Y115065D2*
Y116665D1*
D41*
X48102Y114125D3*
D29*
X46254Y113981D3*
X44980Y114215D2*
D10*
Y117215D1*
X44480D1*
Y114215D1*
X44980D1*
D29*
X52604Y113981D3*
X51330Y114215D2*
D10*
Y117215D1*
X50830D1*
Y114215D1*
X51330D1*
X32560Y109597D2*
X31261D1*
X27952Y110345D2*
X27353D1*
X27952Y112845D2*
X27353D1*
X36821D2*
X37419D1*
X36821Y110345D2*
X37419D1*
X33363Y110795D2*
Y112395D1*
X34562Y110795D2*
Y112395D1*
D41*
X33963Y109855D3*
X47503Y110942D2*
D10*
Y112542D1*
X48702Y110942D2*
Y112542D1*
D41*
X48102Y110002D3*
D29*
X46254Y109859D3*
X44980Y110093D2*
D10*
Y113093D1*
X44480D1*
Y110093D1*
X44980D1*
D29*
X52604Y109859D3*
X51330Y110093D2*
D10*
Y113093D1*
X50830D1*
Y110093D1*
X51330D1*
X32560Y105469D2*
X31261D1*
X27952Y106217D2*
X27353D1*
X27952Y108718D2*
X27353D1*
X36821D2*
X37419D1*
X36821Y106217D2*
X37419D1*
X33363Y106667D2*
Y108267D1*
X34562Y106667D2*
Y108267D1*
D41*
X33963Y105727D3*
X47503Y106815D2*
D10*
Y108415D1*
X48702Y106815D2*
Y108415D1*
D41*
X48102Y105875D3*
D29*
X46254Y105731D3*
X44980Y105965D2*
D10*
Y108965D1*
X44480D1*
Y105965D1*
X44980D1*
D29*
X52604Y105731D3*
X51330Y105965D2*
D10*
Y108965D1*
X50830D1*
Y105965D1*
X51330D1*
X32560Y101347D2*
X31261D1*
X27952Y102095D2*
X27353D1*
X27952Y104595D2*
X27353D1*
X36821D2*
X37419D1*
X36821Y102095D2*
X37419D1*
X33363Y102545D2*
Y104145D1*
X34562Y102545D2*
Y104145D1*
D41*
X33963Y101605D3*
X47503Y102692D2*
D10*
Y104292D1*
X48702Y102692D2*
Y104292D1*
D41*
X48102Y101752D3*
D29*
X46254Y101609D3*
X44980Y101843D2*
D10*
Y104843D1*
X44480D1*
Y101843D1*
X44980D1*
D29*
X52604Y101609D3*
X51330Y101843D2*
D10*
Y104843D1*
X50830D1*
Y101843D1*
X51330D1*
X32560Y97219D2*
X31261D1*
X27952Y97967D2*
X27353D1*
X27952Y100468D2*
X27353D1*
X36821D2*
X37419D1*
X36821Y97967D2*
X37419D1*
X33363Y98417D2*
Y100017D1*
X34562Y98417D2*
Y100017D1*
D41*
X33963Y97477D3*
X47503Y98565D2*
D10*
Y100165D1*
X48702Y98565D2*
Y100165D1*
D41*
X48102Y97625D3*
D29*
X46254Y97481D3*
X44980Y97715D2*
D10*
Y100715D1*
X44480D1*
Y97715D1*
X44980D1*
D29*
X52604Y97481D3*
X51330Y97715D2*
D10*
Y100715D1*
X50830D1*
Y97715D1*
X51330D1*
X32560Y93097D2*
X31261D1*
X27952Y93845D2*
X27353D1*
X27952Y96345D2*
X27353D1*
X36821D2*
X37419D1*
X36821Y93845D2*
X37419D1*
X33363Y94295D2*
Y95895D1*
X34562Y94295D2*
Y95895D1*
D41*
X33963Y93355D3*
X47503Y94442D2*
D10*
Y96042D1*
X48702Y94442D2*
Y96042D1*
D41*
X48102Y93502D3*
D29*
X46254Y93359D3*
X44980Y93593D2*
D10*
Y96593D1*
X44480D1*
Y93593D1*
X44980D1*
D29*
X52604Y93359D3*
X51330Y93593D2*
D10*
Y96593D1*
X50830D1*
Y93593D1*
X51330D1*
X32560Y88959D2*
X31261D1*
X27952Y89707D2*
X27353D1*
X27952Y92208D2*
X27353D1*
X36821D2*
X37419D1*
X36821Y89707D2*
X37419D1*
X33363Y90157D2*
Y91757D1*
X34562Y90157D2*
Y91757D1*
D41*
X33963Y89217D3*
X47503Y90305D2*
D10*
Y91905D1*
X48702Y90305D2*
Y91905D1*
D41*
X48102Y89365D3*
D29*
X46254Y89221D3*
X44980Y89455D2*
D10*
Y92455D1*
X44480D1*
Y89455D1*
X44980D1*
D29*
X52604Y89221D3*
X51330Y89455D2*
D10*
Y92455D1*
X50830D1*
Y89455D1*
X51330D1*
X32560Y84832D2*
X31261D1*
X27952Y85580D2*
X27353D1*
X27952Y88080D2*
X27353D1*
X36821D2*
X37419D1*
X36821Y85580D2*
X37419D1*
X33363Y86030D2*
Y87630D1*
X34562Y86030D2*
Y87630D1*
D41*
X33963Y85090D3*
X47503Y86177D2*
D10*
Y87777D1*
X48702Y86177D2*
Y87777D1*
D41*
X48102Y85237D3*
D29*
X46254Y85094D3*
X44980Y85328D2*
D10*
Y88328D1*
X44480D1*
Y85328D1*
X44980D1*
D29*
X52604Y85094D3*
X51330Y85328D2*
D10*
Y88328D1*
X50830D1*
Y85328D1*
X51330D1*
X32560Y80709D2*
X31261D1*
X27952Y81457D2*
X27353D1*
X27952Y83958D2*
X27353D1*
X36821D2*
X37419D1*
X36821Y81457D2*
X37419D1*
X33363Y81907D2*
Y83507D1*
X34562Y81907D2*
Y83507D1*
D41*
X33963Y80967D3*
X47503Y82055D2*
D10*
Y83655D1*
X48702Y82055D2*
Y83655D1*
D41*
X48102Y81115D3*
D29*
X46254Y80971D3*
X44980Y81205D2*
D10*
Y84205D1*
X44480D1*
Y81205D1*
X44980D1*
D29*
X52604Y80971D3*
X51330Y81205D2*
D10*
Y84205D1*
X50830D1*
Y81205D1*
X51330D1*
X32560Y76587D2*
X31261D1*
X27952Y77335D2*
X27353D1*
X27952Y79835D2*
X27353D1*
X36821D2*
X37419D1*
X36821Y77335D2*
X37419D1*
X33363Y77785D2*
Y79385D1*
X34562Y77785D2*
Y79385D1*
D41*
X33963Y76845D3*
X47503Y77932D2*
D10*
Y79532D1*
X48702Y77932D2*
Y79532D1*
D41*
X48102Y76992D3*
D29*
X46254Y76849D3*
X44980Y77083D2*
D10*
Y80082D1*
X44480D1*
Y77083D1*
X44980D1*
D29*
X52604Y76849D3*
X51330Y77083D2*
D10*
Y80082D1*
X50830D1*
Y77083D1*
X51330D1*
X32560Y72459D2*
X31261D1*
X27952Y73207D2*
X27353D1*
X27952Y75708D2*
X27353D1*
X36821D2*
X37419D1*
X36821Y73207D2*
X37419D1*
X33363Y73657D2*
Y75257D1*
X34562Y73657D2*
Y75257D1*
D41*
X33963Y72717D3*
X47503Y73805D2*
D10*
Y75405D1*
X48702Y73805D2*
Y75405D1*
D41*
X48102Y72865D3*
D29*
X46254Y72721D3*
X44980Y72955D2*
D10*
Y75955D1*
X44480D1*
Y72955D1*
X44980D1*
D29*
X52604Y72721D3*
X51330Y72955D2*
D10*
Y75955D1*
X50830D1*
Y72955D1*
X51330D1*
X32560Y68332D2*
X31261D1*
X27952Y69080D2*
X27353D1*
X27952Y71580D2*
X27353D1*
X36821D2*
X37419D1*
X36821Y69080D2*
X37419D1*
X33363Y69530D2*
Y71130D1*
X34562Y69530D2*
Y71130D1*
D41*
X33963Y68590D3*
X47503Y69677D2*
D10*
Y71277D1*
X48702Y69677D2*
Y71277D1*
D41*
X48102Y68737D3*
D29*
X46254Y68594D3*
X44980Y68828D2*
D10*
Y71828D1*
X44480D1*
Y68828D1*
X44980D1*
D29*
X52604Y68594D3*
X51330Y68828D2*
D10*
Y71828D1*
X50830D1*
Y68828D1*
X51330D1*
X32560Y64204D2*
X31261D1*
X27952Y64952D2*
X27353D1*
X27952Y67453D2*
X27353D1*
X36821D2*
X37419D1*
X36821Y64952D2*
X37419D1*
X33363Y65402D2*
Y67002D1*
X34562Y65402D2*
Y67002D1*
D41*
X33963Y64462D3*
X47503Y65550D2*
D10*
Y67150D1*
X48702Y65550D2*
Y67150D1*
D41*
X48102Y64610D3*
D29*
X46254Y64466D3*
X44980Y64700D2*
D10*
Y67700D1*
X44480D1*
Y64700D1*
X44980D1*
D29*
X52604Y64466D3*
X51330Y64700D2*
D10*
Y67700D1*
X50830D1*
Y64700D1*
X51330D1*
X32560Y60077D2*
X31261D1*
X27952Y60825D2*
X27353D1*
X27952Y63325D2*
X27353D1*
X36821D2*
X37419D1*
X36821Y60825D2*
X37419D1*
X33363Y61275D2*
Y62875D1*
X34562Y61275D2*
Y62875D1*
D41*
X33963Y60335D3*
X47503Y61422D2*
D10*
Y63022D1*
X48702Y61422D2*
Y63022D1*
D41*
X48102Y60482D3*
D29*
X46254Y60339D3*
X44980Y60573D2*
D10*
Y63572D1*
X44480D1*
Y60573D1*
X44980D1*
D29*
X52604Y60339D3*
X51330Y60573D2*
D10*
Y63572D1*
X50830D1*
Y60573D1*
X51330D1*
X32560Y55949D2*
X31261D1*
X27952Y56697D2*
X27353D1*
X27952Y59198D2*
X27353D1*
X36821D2*
X37419D1*
X36821Y56697D2*
X37419D1*
X33363Y57147D2*
Y58747D1*
X34562Y57147D2*
Y58747D1*
D41*
X33963Y56207D3*
X47503Y57295D2*
D10*
Y58895D1*
X48702Y57295D2*
Y58895D1*
D41*
X48102Y56355D3*
D29*
X46254Y56211D3*
X44980Y56445D2*
D10*
Y59445D1*
X44480D1*
Y56445D1*
X44980D1*
D29*
X52604Y56211D3*
X51330Y56445D2*
D10*
Y59445D1*
X50830D1*
Y56445D1*
X51330D1*
X32560Y51822D2*
X31261D1*
X27952Y52570D2*
X27353D1*
X27952Y55070D2*
X27353D1*
X36821D2*
X37419D1*
X36821Y52570D2*
X37419D1*
X33363Y53020D2*
Y54620D1*
X34562Y53020D2*
Y54620D1*
D41*
X33963Y52080D3*
X47503Y53167D2*
D10*
Y54767D1*
X48702Y53167D2*
Y54767D1*
D41*
X48102Y52227D3*
D29*
X46254Y52084D3*
X44980Y52318D2*
D10*
Y55318D1*
X44480D1*
Y52318D1*
X44980D1*
D29*
X52604Y52084D3*
X51330Y52318D2*
D10*
Y55318D1*
X50830D1*
Y52318D1*
X51330D1*
X95026Y60657D2*
Y59358D1*
X94277Y56049D2*
Y55451D1*
X91777Y56049D2*
Y55451D1*
Y64918D2*
Y65517D1*
X94278Y64918D2*
Y65517D1*
X93827Y61460D2*
X92227D1*
X93827Y62660D2*
X92227D1*
D41*
X94767Y62060D3*
X93680Y75600D2*
D10*
X92080D1*
X93680Y76800D2*
X92080D1*
D41*
X94620Y76200D3*
D29*
X94764Y74351D3*
X94530Y73078D2*
D10*
X91530D1*
Y72577D1*
X94530D1*
Y73078D1*
D29*
X94764Y80701D3*
X94530Y79428D2*
D10*
X91530D1*
Y78927D1*
X94530D1*
Y79428D1*
X99153Y60657D2*
Y59358D1*
X98405Y56049D2*
Y55451D1*
X95905Y56049D2*
Y55451D1*
Y64918D2*
Y65517D1*
X98405Y64918D2*
Y65517D1*
X97955Y61460D2*
X96355D1*
X97955Y62660D2*
X96355D1*
D41*
X98895Y62060D3*
X97808Y75600D2*
D10*
X96208D1*
X97808Y76800D2*
X96208D1*
D41*
X98748Y76200D3*
D29*
X98891Y74351D3*
X98657Y73078D2*
D10*
X95658D1*
Y72577D1*
X98657D1*
Y73078D1*
D29*
X98891Y80701D3*
X98657Y79428D2*
D10*
X95658D1*
Y78927D1*
X98657D1*
Y79428D1*
X103276Y60657D2*
Y59358D1*
X102528Y56049D2*
Y55451D1*
X100027Y56049D2*
Y55451D1*
Y64918D2*
Y65517D1*
X102528Y64918D2*
Y65517D1*
X102078Y61460D2*
X100478D1*
X102078Y62660D2*
X100478D1*
D41*
X103018Y62060D3*
X101930Y75600D2*
D10*
X100330D1*
X101930Y76800D2*
X100330D1*
D41*
X102870Y76200D3*
D29*
X103014Y74351D3*
X102780Y73078D2*
D10*
X99780D1*
Y72577D1*
X102780D1*
Y73078D1*
D29*
X103014Y80701D3*
X102780Y79428D2*
D10*
X99780D1*
Y78927D1*
X102780D1*
Y79428D1*
X107408Y60657D2*
Y59358D1*
X106660Y56049D2*
Y55451D1*
X104160Y56049D2*
Y55451D1*
Y64918D2*
Y65517D1*
X106660Y64918D2*
Y65517D1*
X106210Y61460D2*
X104610D1*
X106210Y62660D2*
X104610D1*
D41*
X107150Y62060D3*
X106063Y75600D2*
D10*
X104463D1*
X106063Y76800D2*
X104463D1*
D41*
X107003Y76200D3*
D29*
X107146Y74351D3*
X106912Y73078D2*
D10*
X103913D1*
Y72577D1*
X106912D1*
Y73078D1*
D29*
X107146Y80701D3*
X106912Y79428D2*
D10*
X103913D1*
Y78927D1*
X106912D1*
Y79428D1*
X111536Y60657D2*
Y59358D1*
X110788Y56049D2*
Y55451D1*
X108287Y56049D2*
Y55451D1*
Y64918D2*
Y65517D1*
X110788Y64918D2*
Y65517D1*
X110338Y61460D2*
X108738D1*
X110338Y62660D2*
X108738D1*
D41*
X111278Y62060D3*
X110190Y75600D2*
D10*
X108590D1*
X110190Y76800D2*
X108590D1*
D41*
X111130Y76200D3*
D29*
X111274Y74351D3*
X111040Y73078D2*
D10*
X108040D1*
Y72577D1*
X111040D1*
Y73078D1*
D29*
X111274Y80701D3*
X111040Y79428D2*
D10*
X108040D1*
Y78927D1*
X111040D1*
Y79428D1*
X115663Y60657D2*
Y59358D1*
X114915Y56049D2*
Y55451D1*
X112415Y56049D2*
Y55451D1*
Y64918D2*
Y65517D1*
X114915Y64918D2*
Y65517D1*
X114465Y61460D2*
X112865D1*
X114465Y62660D2*
X112865D1*
D41*
X115405Y62060D3*
X114318Y75600D2*
D10*
X112718D1*
X114318Y76800D2*
X112718D1*
D41*
X115258Y76200D3*
D29*
X115401Y74351D3*
X115167Y73078D2*
D10*
X112168D1*
Y72577D1*
X115167D1*
Y73078D1*
D29*
X115401Y80701D3*
X115167Y79428D2*
D10*
X112168D1*
Y78927D1*
X115167D1*
Y79428D1*
X119791Y60657D2*
Y59358D1*
X119043Y56049D2*
Y55451D1*
X116542Y56049D2*
Y55451D1*
Y64918D2*
Y65517D1*
X119043Y64918D2*
Y65517D1*
X118593Y61460D2*
X116993D1*
X118593Y62660D2*
X116993D1*
D41*
X119533Y62060D3*
X118445Y75600D2*
D10*
X116845D1*
X118445Y76800D2*
X116845D1*
D41*
X119385Y76200D3*
D29*
X119529Y74351D3*
X119295Y73078D2*
D10*
X116295D1*
Y72577D1*
X119295D1*
Y73078D1*
D29*
X119529Y80701D3*
X119295Y79428D2*
D10*
X116295D1*
Y78927D1*
X119295D1*
Y79428D1*
X123918Y60657D2*
Y59358D1*
X123170Y56049D2*
Y55451D1*
X120670Y56049D2*
Y55451D1*
Y64918D2*
Y65517D1*
X123170Y64918D2*
Y65517D1*
X122720Y61460D2*
X121120D1*
X122720Y62660D2*
X121120D1*
D41*
X123660Y62060D3*
X122573Y75600D2*
D10*
X120973D1*
X122573Y76800D2*
X120973D1*
D41*
X123513Y76200D3*
D29*
X123656Y74351D3*
X123422Y73078D2*
D10*
X120422D1*
Y72577D1*
X123422D1*
Y73078D1*
D29*
X123656Y80701D3*
X123422Y79428D2*
D10*
X120422D1*
Y78927D1*
X123422D1*
Y79428D1*
X107474Y103346D2*
D14*
X107478Y103446D1*
X107490Y103545D1*
X107509Y103643D1*
X107536Y103740D1*
X107570Y103835D1*
X107612Y103927D1*
X107660Y104017D1*
X107715Y104103D1*
X107777Y104186D1*
X107846Y104265D1*
X107920Y104339D1*
X108000Y104408D1*
X108084Y104472D1*
X108174Y104531D1*
X108268Y104584D1*
X108366Y104630D1*
X108467Y104671D1*
X108571Y104705D1*
X108678Y104733D1*
X108786Y104753D1*
X108896Y104767D1*
X109006Y104774D1*
X109117D1*
X109228Y104767D1*
X109337Y104753D1*
X109446Y104733D1*
X109552Y104705D1*
X109656Y104671D1*
X109758Y104630D1*
X109855Y104584D1*
X109949Y104531D1*
X110039Y104472D1*
X110124Y104408D1*
X110204Y104339D1*
X110278Y104265D1*
X110346Y104186D1*
X110408Y104103D1*
X110463Y104017D1*
X110512Y103927D1*
X110553Y103835D1*
X110588Y103740D1*
X110615Y103643D1*
X110634Y103545D1*
X110645Y103446D1*
X110649Y103346D1*
X110645Y103247D1*
X110634Y103147D1*
X110615Y103049D1*
X110588Y102952D1*
X110553Y102858D1*
X110512Y102765D1*
X110463Y102675D1*
X110408Y102589D1*
X110346Y102506D1*
X110278Y102428D1*
X110204Y102354D1*
X110124Y102284D1*
X110039Y102220D1*
X109949Y102162D1*
X109855Y102109D1*
X109758Y102062D1*
X109656Y102022D1*
X109552Y101987D1*
X109446Y101960D1*
X109337Y101939D1*
X109228Y101925D1*
X109117Y101918D1*
X109006D1*
X108896Y101925D1*
X108786Y101939D1*
X108678Y101960D1*
X108571Y101987D1*
X108467Y102022D1*
X108366Y102062D1*
X108268Y102109D1*
X108174Y102162D1*
X108084Y102220D1*
X108000Y102284D1*
X107920Y102354D1*
X107846Y102428D1*
X107777Y102506D1*
X107715Y102589D1*
X107660Y102675D1*
X107612Y102765D1*
X107570Y102858D1*
X107536Y102952D1*
X107509Y103049D1*
X107490Y103147D1*
X107478Y103247D1*
X107474Y103346D1*
X118662Y130622D2*
D100*
X118602D1*
X118480Y130682D1*
X118419Y130742D1*
X118359Y130864D1*
Y131107D1*
X118419Y131228D1*
X118480Y131288D1*
X118602Y131350D1*
X118723D1*
X118845Y131288D1*
X119026Y131168D1*
X119634Y130560D1*
Y131411D1*
X118662Y131865D2*
X118602D1*
X118480Y131925D1*
X118419Y131985D1*
X118359Y132107D1*
Y132350D1*
X118419Y132471D1*
X118480Y132531D1*
X118602Y132593D1*
X118723D1*
X118845Y132531D1*
X119026Y132411D1*
X119634Y131803D1*
Y132653D1*
X118783Y133046D2*
X120059D1*
X118966D2*
X118845Y133168D1*
X118783Y133288D1*
Y133471D1*
X118845Y133593D1*
X118966Y133714D1*
X119148Y133776D1*
X119270D1*
X119451Y133714D1*
X119573Y133593D1*
X119634Y133471D1*
Y133288D1*
X119573Y133168D1*
X119451Y133046D1*
X118358Y134958D2*
Y134168D1*
X119634D1*
X118966D2*
Y134654D1*
X111360Y130304D2*
X111299D1*
X111177Y130365D1*
X111117Y130425D1*
X111057Y130547D1*
Y130790D1*
X111117Y130911D1*
X111177Y130971D1*
X111299Y131033D1*
X111420D1*
X111542Y130971D1*
X111723Y130850D1*
X112331Y130242D1*
Y131093D1*
X111360Y131547D2*
X111299D1*
X111177Y131607D1*
X111117Y131668D1*
X111057Y131790D1*
Y132033D1*
X111117Y132154D1*
X111177Y132214D1*
X111299Y132276D1*
X111420D1*
X111542Y132214D1*
X111723Y132093D1*
X112331Y131485D1*
Y132336D1*
X111481Y132728D2*
X112757D1*
X111663D2*
X111542Y132850D1*
X111481Y132971D1*
Y133154D1*
X111542Y133276D1*
X111663Y133396D1*
X111846Y133458D1*
X111968D1*
X112149Y133396D1*
X112271Y133276D1*
X112331Y133154D1*
Y132971D1*
X112271Y132850D1*
X112149Y132728D1*
X111055Y134641D2*
Y133850D1*
X112331D1*
X111663D2*
Y134336D1*
X108122Y130665D2*
X108060Y130787D1*
X107879Y130970D1*
X109154D1*
X108303Y131362D2*
X109154D1*
X108546D2*
X108363Y131545D1*
X108303Y131667D1*
Y131848D1*
X108363Y131970D1*
X108546Y132030D1*
X109154D1*
X107878Y133213D2*
Y132422D1*
X109154D1*
X108486D2*
Y132908D1*
X108152Y133910D2*
X108881D1*
X108333Y133605D2*
X108698Y134213D1*
X108333D2*
X108698Y133605D1*
X144236Y132762D2*
X142962D1*
X143811Y132154D1*
Y133066D1*
X144114Y133518D2*
X144176Y133458D1*
X144236Y133518D1*
X144176Y133580D1*
X144114Y133518D1*
X144236Y134215D2*
X142962Y134823D1*
Y133972D1*
X143386Y135215D2*
X143993D1*
X144174Y135275D1*
X144236Y135397D1*
Y135580D1*
X144174Y135701D1*
X143993Y135883D1*
X143386D2*
X144236D1*
X142960Y137066D2*
Y136275D1*
X144236D1*
X143568D2*
Y136761D1*
X109628Y129760D2*
X109688Y129577D1*
X109871Y129455D1*
X110174Y129395D1*
X110356D1*
X110660Y129455D1*
X110842Y129577D1*
X110902Y129760D1*
Y129880D1*
X110842Y130063D1*
X110660Y130184D1*
X110356Y130245D1*
X110174D1*
X109871Y130184D1*
X109688Y130063D1*
X109628Y129880D1*
Y129760D1*
X109871Y130184D2*
X110660Y129455D1*
X110780Y130698D2*
X110842Y130638D1*
X110902Y130698D1*
X110842Y130760D1*
X110780Y130698D1*
X109931Y131214D2*
X109871D1*
X109749Y131274D1*
X109688Y131334D1*
X109628Y131456D1*
Y131699D1*
X109688Y131820D1*
X109749Y131880D1*
X109871Y131942D1*
X109991D1*
X110114Y131880D1*
X110295Y131760D1*
X110902Y131152D1*
Y132003D1*
X109931Y132456D2*
X109871D1*
X109749Y132517D1*
X109688Y132577D1*
X109628Y132699D1*
Y132942D1*
X109688Y133063D1*
X109749Y133123D1*
X109871Y133185D1*
X109991D1*
X110114Y133123D1*
X110295Y133003D1*
X110902Y132395D1*
Y133245D1*
X110052Y133638D2*
X110660D1*
X110841Y133698D1*
X110902Y133820D1*
Y134003D1*
X110841Y134123D1*
X110660Y134306D1*
X110052D2*
X110902D1*
X109626Y135488D2*
Y134698D1*
X110902D1*
X110234D2*
Y135184D1*
X122499Y119942D2*
X122559Y119759D1*
X122742Y119637D1*
X123045Y119577D1*
X123227D1*
X123531Y119637D1*
X123713Y119759D1*
X123773Y119942D1*
Y120062D1*
X123713Y120245D1*
X123531Y120366D1*
X123227Y120427D1*
X123045D1*
X122742Y120366D1*
X122559Y120245D1*
X122499Y120062D1*
Y119942D1*
X122742Y120366D2*
X123531Y119637D1*
X123651Y120880D2*
X123713Y120819D1*
X123773Y120880D1*
X123713Y120942D1*
X123651Y120880D1*
X122742Y121334D2*
X122680Y121456D1*
X122499Y121638D1*
X123773D1*
X122923Y122031D2*
X123531D1*
X123712Y122091D1*
X123773Y122213D1*
Y122396D1*
X123712Y122516D1*
X123531Y122699D1*
X122923D2*
X123773D1*
X122497Y123881D2*
Y123091D1*
X123773D1*
X123105D2*
Y123577D1*
X140757Y117561D2*
X140817Y117378D1*
X141000Y117256D1*
X141303Y117196D1*
X141486D1*
X141789Y117256D1*
X141971Y117378D1*
X142032Y117561D1*
Y117681D1*
X141971Y117864D1*
X141789Y117984D1*
X141486Y118046D1*
X141303D1*
X141000Y117984D1*
X140817Y117864D1*
X140757Y117681D1*
Y117561D1*
X141000Y117984D2*
X141789Y117256D1*
X141909Y118499D2*
X141971Y118438D1*
X142032Y118499D1*
X141971Y118561D1*
X141909Y118499D1*
X141000Y118953D2*
X140938Y119075D1*
X140757Y119257D1*
X142032D1*
X141181Y119649D2*
X141789D1*
X141970Y119710D1*
X142032Y119832D1*
Y120014D1*
X141970Y120135D1*
X141789Y120318D1*
X141181D2*
X142032D1*
X140756Y121500D2*
Y120710D1*
X142032D1*
X141363D2*
Y121196D1*
X120594Y111210D2*
X120654Y111028D1*
X120837Y110906D1*
X121140Y110845D1*
X121322D1*
X121626Y110906D1*
X121808Y111028D1*
X121868Y111210D1*
Y111331D1*
X121808Y111514D1*
X121626Y111634D1*
X121322Y111696D1*
X121140D1*
X120837Y111634D1*
X120654Y111514D1*
X120594Y111331D1*
Y111210D1*
X120837Y111634D2*
X121626Y110906D1*
X121746Y112149D2*
X121808Y112088D1*
X121868Y112149D1*
X121808Y112210D1*
X121746Y112149D1*
X120837Y112603D2*
X120775Y112725D1*
X120594Y112907D1*
X121868D1*
X121018Y113299D2*
X121626D1*
X121807Y113360D1*
X121868Y113482D1*
Y113664D1*
X121807Y113785D1*
X121626Y113968D1*
X121018D2*
X121868D1*
X120592Y115150D2*
Y114360D1*
X121868D1*
X121200D2*
Y114845D1*
X124477Y114765D2*
Y116041D1*
X123991Y114765D1*
X123505Y116041D1*
Y114765D1*
X125720Y115859D2*
X125599Y115981D1*
X125416Y116041D1*
X125174D1*
X124991Y115981D1*
X124869Y115859D1*
Y115738D1*
X124931Y115616D1*
X124991Y115555D1*
X125112Y115495D1*
X125477Y115373D1*
X125599Y115313D1*
X125659Y115251D1*
X125720Y115130D1*
Y114948D1*
X125599Y114827D1*
X125416Y114765D1*
X125174D1*
X124991Y114827D1*
X124869Y114948D1*
X126112Y115373D2*
X126659D1*
X126840Y115433D1*
X126902Y115495D1*
X126963Y115616D1*
Y115798D1*
X126902Y115919D1*
X126840Y115981D1*
X126659Y116041D1*
X126112D1*
Y114765D1*
X127963D2*
Y116040D1*
X127355Y115190D1*
X128266D1*
X128780Y116040D2*
X129447D1*
X129083Y115554D1*
X129266D1*
X129387Y115494D1*
X129447Y115433D1*
X129509Y115251D1*
Y115130D1*
X129447Y114948D1*
X129326Y114825D1*
X129144Y114765D1*
X128961D1*
X128780Y114825D1*
X128720Y114887D1*
X128658Y115008D1*
X130266Y116040D2*
X130083Y115979D1*
X129961Y115797D1*
X129901Y115494D1*
Y115311D1*
X129961Y115008D1*
X130083Y114825D1*
X130266Y114765D1*
X130387D1*
X130569Y114825D1*
X130690Y115008D1*
X130752Y115311D1*
Y115494D1*
X130690Y115797D1*
X130569Y115979D1*
X130387Y116040D1*
X130266D1*
X130690Y115797D2*
X129961Y115008D1*
X131934Y116041D2*
X131144D1*
Y114765D1*
Y115433D2*
X131629D1*
X133055Y116040D2*
X132448D1*
X132388Y115494D1*
X132448Y115554D1*
X132631Y115616D1*
X132812D1*
X132994Y115554D1*
X133117Y115433D1*
X133177Y115251D1*
Y115130D1*
X133117Y114948D1*
X132994Y114825D1*
X132812Y114765D1*
X132631D1*
X132448Y114825D1*
X132388Y114887D1*
X132326Y115008D1*
X134298Y116040D2*
X133691D1*
X133631Y115494D1*
X133691Y115554D1*
X133874Y115616D1*
X134055D1*
X134237Y115554D1*
X134360Y115433D1*
X134420Y115251D1*
Y115130D1*
X134360Y114948D1*
X134237Y114825D1*
X134055Y114765D1*
X133874D1*
X133691Y114825D1*
X133631Y114887D1*
X133569Y115008D1*
X134812Y115797D2*
X134934Y115859D1*
X135117Y116040D1*
Y114765D1*
X135874Y116040D2*
X135691Y115979D1*
X135569Y115797D1*
X135509Y115494D1*
Y115311D1*
X135569Y115008D1*
X135691Y114825D1*
X135874Y114765D1*
X135995D1*
X136177Y114825D1*
X136298Y115008D1*
X136360Y115311D1*
Y115494D1*
X136298Y115797D1*
X136177Y115979D1*
X135995Y116040D1*
X135874D1*
X136298Y115797D2*
X135569Y115008D1*
X136752Y116041D2*
Y114765D1*
X137144Y115373D2*
X137691D1*
X137872Y115433D1*
X137934Y115495D1*
X137995Y115616D1*
Y115798D1*
X137934Y115919D1*
X137872Y115981D1*
X137691Y116041D1*
X137144D1*
Y114765D1*
X138812Y116041D2*
Y114765D1*
X138387Y116041D2*
X139237D1*
X114789Y131722D2*
X114728Y131844D1*
X114547Y132027D1*
X115821D1*
Y133390D2*
X114545D1*
X115821Y132905D1*
X114545Y132419D1*
X115821D1*
X133962Y127156D2*
X134085Y127218D1*
X134267Y127399D1*
Y126124D1*
X135024Y127399D2*
X134842Y127338D1*
X134720Y127156D1*
X134659Y126853D1*
Y126670D1*
X134720Y126367D1*
X134842Y126184D1*
X135024Y126124D1*
X135145D1*
X135327Y126184D1*
X135448Y126367D1*
X135510Y126670D1*
Y126853D1*
X135448Y127156D1*
X135327Y127338D1*
X135145Y127399D1*
X135024D1*
X135448Y127156D2*
X134720Y126367D1*
X135902Y127400D2*
Y126124D1*
X136510Y126975D2*
X135902Y126367D1*
X136145Y126610D2*
X136570Y126124D1*
X113265Y130952D2*
X113204D1*
X113082Y131013D1*
X113022Y131073D1*
X112962Y131195D1*
Y131438D1*
X113022Y131559D1*
X113082Y131619D1*
X113204Y131681D1*
X113325D1*
X113447Y131619D1*
X113628Y131498D1*
X114236Y130891D1*
Y131741D1*
Y132376D2*
X112962Y132984D1*
Y132133D1*
X113568Y133376D2*
Y133922D1*
X113506Y134105D1*
X113446Y134167D1*
X113325Y134227D1*
X113203D1*
X113082Y134167D1*
X113021Y134105D1*
X112960Y133922D1*
Y133376D1*
X114236D1*
X113568Y133802D2*
X114236Y134227D1*
X116757Y131270D2*
X116697D1*
X116575Y131330D1*
X116514Y131391D1*
X116454Y131513D1*
Y131756D1*
X116514Y131876D1*
X116575Y131937D1*
X116697Y131998D1*
X116818D1*
X116940Y131937D1*
X117121Y131816D1*
X117729Y131208D1*
Y132059D1*
Y132694D2*
X116454Y133302D1*
Y132451D1*
X117061Y133694D2*
Y134240D1*
X116999Y134422D1*
X116938Y134484D1*
X116818Y134545D1*
X116696D1*
X116575Y134484D1*
X116513Y134422D1*
X116453Y134240D1*
Y133694D1*
X117729D1*
X117061Y134119D2*
X117729Y134545D1*
X106537Y131250D2*
X106475Y131372D1*
X106294Y131554D1*
X107569D1*
X106294Y132312D2*
X106354Y132129D1*
X106537Y132007D1*
X106840Y131947D1*
X107023D1*
X107326Y132007D1*
X107508Y132129D1*
X107569Y132312D1*
Y132432D1*
X107508Y132615D1*
X107326Y132736D1*
X107023Y132797D1*
X106840D1*
X106537Y132736D1*
X106354Y132615D1*
X106294Y132432D1*
Y132312D1*
X106537Y132736D2*
X107326Y132007D1*
X106293Y133189D2*
X107569D1*
X106718Y133797D2*
X107326Y133189D1*
X107083Y133432D2*
X107569Y133858D1*
X116784Y118712D2*
X116844Y118530D1*
X117027Y118408D1*
X117330Y118347D1*
X117512D1*
X117816Y118408D1*
X117998Y118530D1*
X118058Y118712D1*
Y118833D1*
X117998Y119016D1*
X117816Y119136D1*
X117512Y119198D1*
X117330D1*
X117027Y119136D1*
X116844Y119016D1*
X116784Y118833D1*
Y118712D1*
X117027Y119136D2*
X117816Y118408D1*
X117390Y119590D2*
Y120136D1*
X117328Y120319D1*
X117268Y120381D1*
X117147Y120441D1*
X117025D1*
X116904Y120381D1*
X116843Y120319D1*
X116782Y120136D1*
Y119590D1*
X118058D1*
X117390Y120016D2*
X118058Y120441D1*
X116724Y124297D2*
X116847Y124359D1*
X117029Y124540D1*
Y123265D1*
X117786Y124540D2*
X117604Y124480D1*
X117482Y124297D1*
X117421Y123994D1*
Y123812D1*
X117482Y123508D1*
X117604Y123326D1*
X117786Y123265D1*
X117907D1*
X118090Y123326D1*
X118210Y123508D1*
X118272Y123812D1*
Y123994D1*
X118210Y124297D1*
X118090Y124480D1*
X117907Y124540D1*
X117786D1*
X118210Y124297D2*
X117482Y123508D1*
X118664Y123934D2*
X119210D1*
X119393Y123995D1*
X119455Y124056D1*
X119515Y124177D1*
Y124299D1*
X119455Y124419D1*
X119393Y124481D1*
X119210Y124542D1*
X118664D1*
Y123265D1*
X119090Y123934D2*
X119515Y123265D1*
X144056Y129405D2*
Y128129D1*
X144603D1*
X144786Y128191D1*
X144846Y128251D1*
X144907Y128372D1*
Y128554D1*
X144846Y128677D1*
X144786Y128737D1*
X144603Y128797D1*
X144786Y128859D1*
X144846Y128919D1*
X144907Y129040D1*
Y129162D1*
X144846Y129283D1*
X144786Y129345D1*
X144603Y129405D1*
X144056D1*
Y128797D2*
X144603D1*
X146150Y129223D2*
X146029Y129345D1*
X145846Y129405D1*
X145604D1*
X145421Y129345D1*
X145299Y129223D1*
Y129102D1*
X145361Y128980D1*
X145421Y128919D1*
X145542Y128859D1*
X145907Y128737D1*
X146029Y128677D1*
X146089Y128615D1*
X146150Y128494D1*
Y128312D1*
X146029Y128191D1*
X145846Y128129D1*
X145604D1*
X145421Y128191D1*
X145299Y128312D1*
X146542Y129405D2*
Y128129D1*
X147270D1*
X90963Y135297D2*
X90842Y135420D1*
X90659Y135480D1*
X90417D1*
X90234Y135420D1*
X90112Y135297D1*
Y135177D1*
X90174Y135055D1*
X90234Y134994D1*
X90355Y134934D1*
X90720Y134812D1*
X90842Y134751D1*
X90902Y134690D1*
X90963Y134569D1*
Y134386D1*
X90842Y134266D1*
X90659Y134204D1*
X90417D1*
X90234Y134266D1*
X90112Y134386D1*
X92328Y134204D2*
X91841Y135480D1*
X91355Y134204D1*
X91537Y134629D2*
X92145D1*
X92782Y135175D2*
Y135236D1*
X92842Y135358D1*
X92902Y135418D1*
X93024Y135478D1*
X93267D1*
X93388Y135418D1*
X93448Y135358D1*
X93510Y135236D1*
Y135115D1*
X93448Y134993D1*
X93328Y134812D1*
X92720Y134204D1*
X93571D1*
X81596Y130852D2*
X81476Y130975D1*
X81293Y131035D1*
X81050D1*
X80868Y130975D1*
X80746Y130852D1*
Y130732D1*
X80807Y130610D1*
X80868Y130549D1*
X80989Y130489D1*
X81354Y130367D1*
X81476Y130306D1*
X81536Y130245D1*
X81596Y130124D1*
Y129941D1*
X81476Y129821D1*
X81293Y129759D1*
X81050D1*
X80868Y129821D1*
X80746Y129941D1*
X82961Y129759D2*
X82474Y131035D1*
X81989Y129759D1*
X82171Y130184D2*
X82779D1*
X83476Y131033D2*
X84143D1*
X83779Y130548D1*
X83961D1*
X84082Y130487D1*
X84143Y130427D1*
X84204Y130245D1*
Y130124D1*
X84143Y129941D1*
X84022Y129819D1*
X83839Y129759D1*
X83657D1*
X83476Y129819D1*
X83415Y129881D1*
X83354Y130002D1*
X100140Y130852D2*
X100019Y130975D1*
X99837Y131035D1*
X99594D1*
X99411Y130975D1*
X99289Y130852D1*
Y130732D1*
X99351Y130610D1*
X99411Y130549D1*
X99532Y130489D1*
X99897Y130367D1*
X100019Y130306D1*
X100080Y130245D1*
X100140Y130124D1*
Y129941D1*
X100019Y129821D1*
X99837Y129759D1*
X99594D1*
X99411Y129821D1*
X99289Y129941D1*
X101505Y129759D2*
X101018Y131035D1*
X100532Y129759D1*
X100715Y130184D2*
X101322D1*
X102505Y129759D2*
Y131033D1*
X101897Y130184D1*
X102808D1*
X90963Y126090D2*
X90842Y126212D1*
X90659Y126272D1*
X90417D1*
X90234Y126212D1*
X90112Y126090D1*
Y125969D1*
X90174Y125847D1*
X90234Y125787D1*
X90355Y125726D1*
X90720Y125604D1*
X90842Y125544D1*
X90902Y125482D1*
X90963Y125361D1*
Y125179D1*
X90842Y125058D1*
X90659Y124996D1*
X90417D1*
X90234Y125058D1*
X90112Y125179D1*
X92328Y124996D2*
X91841Y126272D1*
X91355Y124996D1*
X91537Y125422D2*
X92145D1*
X93448Y126271D2*
X92842D1*
X92782Y125725D1*
X92842Y125785D1*
X93024Y125847D1*
X93206D1*
X93388Y125785D1*
X93510Y125665D1*
X93571Y125482D1*
Y125361D1*
X93510Y125179D1*
X93388Y125057D1*
X93206Y124996D1*
X93024D1*
X92842Y125057D1*
X92782Y125118D1*
X92720Y125239D1*
X84299Y145508D2*
X84845D1*
X85028Y145570D1*
X85090Y145630D1*
X85150Y145751D1*
Y145873D1*
X85090Y145994D1*
X85028Y146056D1*
X84845Y146116D1*
X84299D1*
Y144840D1*
X84725Y145508D2*
X85150Y144840D1*
X86393Y145934D2*
X86272Y146056D1*
X86090Y146116D1*
X85847D1*
X85664Y146056D1*
X85542Y145934D1*
Y145813D1*
X85604Y145691D1*
X85664Y145630D1*
X85785Y145570D1*
X86150Y145448D1*
X86272Y145388D1*
X86332Y145326D1*
X86393Y145205D1*
Y145023D1*
X86272Y144902D1*
X86090Y144840D1*
X85847D1*
X85664Y144902D1*
X85542Y145023D1*
X87210Y146116D2*
Y144840D1*
X86785Y146116D2*
X87636D1*
X125130Y142241D2*
Y141330D1*
X125190Y141147D1*
X125312Y141027D1*
X125495Y140965D1*
X125615D1*
X125798Y141027D1*
X125920Y141147D1*
X125980Y141330D1*
Y142241D1*
X127223Y142058D2*
X127103Y142181D1*
X126920Y142241D1*
X126677D1*
X126495Y142181D1*
X126373Y142058D1*
Y141938D1*
X126434Y141816D1*
X126495Y141755D1*
X126615Y141695D1*
X126980Y141573D1*
X127103Y141512D1*
X127163Y141451D1*
X127223Y141330D1*
Y141147D1*
X127103Y141027D1*
X126920Y140965D1*
X126677D1*
X126495Y141027D1*
X126373Y141147D1*
X127615Y142241D2*
Y140965D1*
X128163D1*
X128345Y141027D1*
X128406Y141087D1*
X128466Y141208D1*
Y141390D1*
X128406Y141512D1*
X128345Y141573D1*
X128163Y141633D1*
X128345Y141695D1*
X128406Y141755D1*
X128466Y141876D1*
Y141998D1*
X128406Y142119D1*
X128345Y142181D1*
X128163Y142241D1*
X127615D1*
Y141633D2*
X128163D1*
X128858Y142241D2*
Y140965D1*
X129587D1*
X130890Y141938D2*
X130830Y142058D1*
X130708Y142181D1*
X130587Y142241D1*
X130344D1*
X130222Y142181D1*
X130101Y142058D1*
X130039Y141938D1*
X129979Y141755D1*
Y141451D1*
X130039Y141269D1*
X130101Y141147D1*
X130222Y141027D1*
X130344Y140965D1*
X130587D1*
X130708Y141027D1*
X130830Y141147D1*
X130890Y141269D1*
X132011Y142058D2*
X131951Y142179D1*
X131768Y142239D1*
X131647D1*
X131465Y142179D1*
X131343Y141997D1*
X131282Y141693D1*
Y141390D1*
X131343Y141147D1*
X131465Y141025D1*
X131647Y140965D1*
X131708D1*
X131889Y141025D1*
X132011Y141147D1*
X132071Y141330D1*
Y141390D1*
X132011Y141573D1*
X131889Y141693D1*
X131708Y141754D1*
X131647D1*
X131465Y141693D1*
X131343Y141573D1*
X131282Y141390D1*
X132463Y141602D2*
X133165D1*
X133619Y141936D2*
Y141997D1*
X133680Y142119D1*
X133740Y142179D1*
X133862Y142239D1*
X134105D1*
X134226Y142179D1*
X134286Y142119D1*
X134348Y141997D1*
Y141876D1*
X134286Y141754D1*
X134165Y141573D1*
X133558Y140965D1*
X134408D1*
X135651Y142058D2*
X135530Y142181D1*
X135348Y142241D1*
X135105D1*
X134923Y142181D1*
X134800Y142058D1*
Y141938D1*
X134862Y141816D1*
X134923Y141755D1*
X135043Y141695D1*
X135408Y141573D1*
X135530Y141512D1*
X135591Y141451D1*
X135651Y141330D1*
Y141147D1*
X135530Y141027D1*
X135348Y140965D1*
X135105D1*
X134923Y141027D1*
X134800Y141147D1*
X136954Y141938D2*
X136894Y142058D1*
X136772Y142181D1*
X136651Y142241D1*
X136408D1*
X136286Y142181D1*
X136165Y142058D1*
X136104Y141938D1*
X136043Y141755D1*
Y141451D1*
X136104Y141269D1*
X136165Y141147D1*
X136286Y141027D1*
X136408Y140965D1*
X136651D1*
X136772Y141027D1*
X136894Y141147D1*
X136954Y141269D1*
X102965Y144735D2*
Y143763D1*
X102904Y143581D1*
X102842Y143521D1*
X102722Y143459D1*
X102600D1*
X102479Y143521D1*
X102418Y143581D1*
X102357Y143763D1*
Y143884D1*
X103782Y144735D2*
Y143459D1*
X103357Y144735D2*
X104207D1*
X105572Y143459D2*
X105085Y144735D1*
X104600Y143459D1*
X104782Y143884D2*
X105390D1*
X106876Y144432D2*
X106815Y144552D1*
X106693Y144675D1*
X106573Y144735D1*
X106330D1*
X106208Y144675D1*
X106087Y144552D1*
X106025Y144432D1*
X105965Y144249D1*
Y143945D1*
X106025Y143763D1*
X106087Y143641D1*
X106208Y143521D1*
X106330Y143459D1*
X106573D1*
X106693Y143521D1*
X106815Y143641D1*
X106876Y143763D1*
Y143945D1*
X106573D1*
X16880Y19506D2*
X15605D1*
X16454Y18898D1*
Y19809D1*
X16758Y20262D2*
X16819Y20201D1*
X16880Y20262D1*
X16819Y20323D1*
X16758Y20262D1*
X16880Y20958D2*
X15605Y21566D1*
Y20716D1*
X16029Y21958D2*
X16637D1*
X16818Y22019D1*
X16880Y22141D1*
Y22323D1*
X16818Y22444D1*
X16637Y22627D1*
X16029D2*
X16880D1*
X15604Y23809D2*
Y23019D1*
X16880D1*
X16212D2*
Y23505D1*
X15605Y25558D2*
Y26225D1*
X16091Y25861D1*
Y26044D1*
X16151Y26164D1*
X16211Y26225D1*
X16394Y26287D1*
X16515D1*
X16697Y26225D1*
X16819Y26104D1*
X16880Y25922D1*
Y25739D1*
X16819Y25558D1*
X16758Y25498D1*
X16637Y25436D1*
X15605Y27044D2*
X15665Y26861D1*
X15848Y26739D1*
X16151Y26679D1*
X16334D1*
X16637Y26739D1*
X16819Y26861D1*
X16880Y27044D1*
Y27164D1*
X16819Y27347D1*
X16637Y27468D1*
X16334Y27529D1*
X16151D1*
X15848Y27468D1*
X15665Y27347D1*
X15605Y27164D1*
Y27044D1*
X15848Y27468D2*
X16637Y26739D1*
X15605Y28287D2*
X15665Y28104D1*
X15848Y27982D1*
X16151Y27922D1*
X16334D1*
X16637Y27982D1*
X16819Y28104D1*
X16880Y28287D1*
Y28407D1*
X16819Y28590D1*
X16637Y28711D1*
X16334Y28772D1*
X16151D1*
X15848Y28711D1*
X15665Y28590D1*
X15605Y28407D1*
Y28287D1*
X15848Y28711D2*
X16637Y27982D1*
X16029Y29164D2*
X16880Y29529D1*
X16029Y29893D1*
X89132Y40708D2*
X88950Y40648D1*
X88828Y40466D1*
X88767Y40162D1*
Y39980D1*
X88828Y39677D1*
X88950Y39494D1*
X89132Y39434D1*
X89253D1*
X89436Y39494D1*
X89556Y39677D1*
X89618Y39980D1*
Y40162D1*
X89556Y40466D1*
X89436Y40648D1*
X89253Y40708D1*
X89132D1*
X89556Y40466D2*
X88828Y39677D1*
X90071Y39556D2*
X90010Y39494D1*
X90071Y39434D1*
X90132Y39494D1*
X90071Y39556D1*
X90525Y40466D2*
X90647Y40527D1*
X90829Y40708D1*
Y39434D1*
X91221Y40285D2*
Y39677D1*
X91282Y39496D1*
X91404Y39434D1*
X91586D1*
X91707Y39496D1*
X91890Y39677D1*
Y40285D2*
Y39434D1*
X93072Y40710D2*
X92282D1*
Y39434D1*
Y40102D2*
X92767D1*
X37030Y26986D2*
X37638Y28261D1*
X36787D1*
X38638Y26986D2*
Y28261D1*
X38030Y27412D1*
X38941D1*
X39333Y28262D2*
Y26986D1*
X40184Y28262D2*
Y26986D1*
X39333Y27655D2*
X40184D1*
X41487Y27959D2*
X41427Y28080D1*
X41304Y28202D1*
X41184Y28262D1*
X40941D1*
X40819Y28202D1*
X40698Y28080D1*
X40636Y27959D1*
X40576Y27777D1*
Y27472D1*
X40636Y27291D1*
X40698Y27169D1*
X40819Y27048D1*
X40941Y26986D1*
X41184D1*
X41304Y27048D1*
X41427Y27169D1*
X41487Y27291D1*
X42608Y28261D2*
X42001D1*
X41941Y27715D1*
X42001Y27775D1*
X42184Y27837D1*
X42365D1*
X42547Y27775D1*
X42669Y27655D1*
X42730Y27472D1*
Y27351D1*
X42669Y27169D1*
X42547Y27047D1*
X42365Y26986D1*
X42184D1*
X42001Y27047D1*
X41941Y27108D1*
X41879Y27229D1*
X43912Y27837D2*
X43851Y27655D1*
X43730Y27532D1*
X43547Y27472D1*
X43487D1*
X43305Y27532D1*
X43184Y27655D1*
X43122Y27837D1*
Y27897D1*
X43184Y28080D1*
X43305Y28201D1*
X43487Y28261D1*
X43547D1*
X43730Y28201D1*
X43851Y28080D1*
X43912Y27837D1*
Y27532D1*
X43851Y27229D1*
X43730Y27047D1*
X43547Y26986D1*
X43427D1*
X43244Y27047D1*
X43184Y27169D1*
X45033Y28261D2*
X44427D1*
X44366Y27715D1*
X44427Y27775D1*
X44609Y27837D1*
X44790D1*
X44973Y27775D1*
X45095Y27655D1*
X45155Y27472D1*
Y27351D1*
X45095Y27169D1*
X44973Y27047D1*
X44790Y26986D1*
X44609D1*
X44427Y27047D1*
X44366Y27108D1*
X44305Y27229D1*
X45547Y28262D2*
Y26986D1*
X45973D1*
X46155Y27048D1*
X46277Y27169D1*
X46338Y27291D1*
X46398Y27472D1*
Y27777D1*
X46338Y27959D1*
X46277Y28080D1*
X46155Y28202D1*
X45973Y28262D1*
X45547D1*
X32935Y40708D2*
X32752Y40648D1*
X32630Y40466D1*
X32570Y40162D1*
Y39980D1*
X32630Y39677D1*
X32752Y39494D1*
X32935Y39434D1*
X33056D1*
X33238Y39494D1*
X33359Y39677D1*
X33421Y39980D1*
Y40162D1*
X33359Y40466D1*
X33238Y40648D1*
X33056Y40708D1*
X32935D1*
X33359Y40466D2*
X32630Y39677D1*
X33873Y39556D2*
X33813Y39494D1*
X33873Y39434D1*
X33935Y39494D1*
X33873Y39556D1*
X34327Y40466D2*
X34449Y40527D1*
X34632Y40708D1*
Y39434D1*
X35024Y40285D2*
Y39677D1*
X35084Y39496D1*
X35206Y39434D1*
X35389D1*
X35510Y39496D1*
X35692Y39677D1*
Y40285D2*
Y39434D1*
X36875Y40710D2*
X36084D1*
Y39434D1*
Y40102D2*
X36570D1*
X64970Y27304D2*
X65578Y28578D1*
X64727D1*
X66578Y27304D2*
Y28578D1*
X65970Y27729D1*
X66881D1*
X67273Y28580D2*
Y27304D1*
X68124Y28580D2*
Y27304D1*
X67273Y27972D2*
X68124D1*
X69427Y28277D2*
X69367Y28397D1*
X69244Y28520D1*
X69124Y28580D1*
X68881D1*
X68759Y28520D1*
X68638Y28397D1*
X68576Y28277D1*
X68516Y28094D1*
Y27790D1*
X68576Y27608D1*
X68638Y27486D1*
X68759Y27366D1*
X68881Y27304D1*
X69124D1*
X69244Y27366D1*
X69367Y27486D1*
X69427Y27608D1*
X70548Y28578D2*
X69941D1*
X69881Y28032D1*
X69941Y28093D1*
X70124Y28155D1*
X70305D1*
X70487Y28093D1*
X70609Y27972D1*
X70670Y27790D1*
Y27669D1*
X70609Y27486D1*
X70487Y27364D1*
X70305Y27304D1*
X70124D1*
X69941Y27364D1*
X69881Y27426D1*
X69819Y27547D1*
X71852Y28155D2*
X71791Y27972D1*
X71670Y27850D1*
X71487Y27790D1*
X71427D1*
X71245Y27850D1*
X71124Y27972D1*
X71062Y28155D1*
Y28215D1*
X71124Y28397D1*
X71245Y28518D1*
X71427Y28578D1*
X71487D1*
X71670Y28518D1*
X71791Y28397D1*
X71852Y28155D1*
Y27850D1*
X71791Y27547D1*
X71670Y27364D1*
X71487Y27304D1*
X71367D1*
X71184Y27364D1*
X71124Y27486D1*
X72973Y28578D2*
X72367D1*
X72306Y28032D1*
X72367Y28093D1*
X72549Y28155D1*
X72730D1*
X72913Y28093D1*
X73035Y27972D1*
X73095Y27790D1*
Y27669D1*
X73035Y27486D1*
X72913Y27364D1*
X72730Y27304D1*
X72549D1*
X72367Y27364D1*
X72306Y27426D1*
X72245Y27547D1*
X73487Y28580D2*
Y27304D1*
X73913D1*
X74095Y27366D1*
X74217Y27486D1*
X74278Y27608D1*
X74338Y27790D1*
Y28094D1*
X74278Y28277D1*
X74217Y28397D1*
X74095Y28520D1*
X73913Y28580D1*
X73487D1*
X116437Y41026D2*
X116255Y40966D1*
X116133Y40783D1*
X116072Y40480D1*
Y40297D1*
X116133Y39994D1*
X116255Y39812D1*
X116437Y39751D1*
X116558D1*
X116741Y39812D1*
X116861Y39994D1*
X116923Y40297D1*
Y40480D1*
X116861Y40783D1*
X116741Y40966D1*
X116558Y41026D1*
X116437D1*
X116861Y40783D2*
X116133Y39994D1*
X117376Y39873D2*
X117315Y39812D1*
X117376Y39751D1*
X117437Y39812D1*
X117376Y39873D1*
X117830Y40783D2*
X117952Y40845D1*
X118134Y41026D1*
Y39751D1*
X118526Y40602D2*
Y39994D1*
X118587Y39813D1*
X118709Y39751D1*
X118891D1*
X119012Y39813D1*
X119195Y39994D1*
Y40602D2*
Y39751D1*
X120377Y41027D2*
X119587D1*
Y39751D1*
Y40420D2*
X120072D1*
X92910Y27304D2*
X93518Y28578D1*
X92667D1*
X94518Y27304D2*
Y28578D1*
X93910Y27729D1*
X94821D1*
X95213Y28580D2*
Y27304D1*
X96064Y28580D2*
Y27304D1*
X95213Y27972D2*
X96064D1*
X97367Y28277D2*
X97307Y28397D1*
X97184Y28520D1*
X97064Y28580D1*
X96821D1*
X96699Y28520D1*
X96578Y28397D1*
X96516Y28277D1*
X96456Y28094D1*
Y27790D1*
X96516Y27608D1*
X96578Y27486D1*
X96699Y27366D1*
X96821Y27304D1*
X97064D1*
X97184Y27366D1*
X97307Y27486D1*
X97367Y27608D1*
X98488Y28578D2*
X97881D1*
X97821Y28032D1*
X97881Y28093D1*
X98064Y28155D1*
X98245D1*
X98427Y28093D1*
X98549Y27972D1*
X98610Y27790D1*
Y27669D1*
X98549Y27486D1*
X98427Y27364D1*
X98245Y27304D1*
X98064D1*
X97881Y27364D1*
X97821Y27426D1*
X97759Y27547D1*
X99792Y28155D2*
X99731Y27972D1*
X99610Y27850D1*
X99427Y27790D1*
X99367D1*
X99185Y27850D1*
X99064Y27972D1*
X99002Y28155D1*
Y28215D1*
X99064Y28397D1*
X99185Y28518D1*
X99367Y28578D1*
X99427D1*
X99610Y28518D1*
X99731Y28397D1*
X99792Y28155D1*
Y27850D1*
X99731Y27547D1*
X99610Y27364D1*
X99427Y27304D1*
X99307D1*
X99124Y27364D1*
X99064Y27486D1*
X100913Y28578D2*
X100307D1*
X100246Y28032D1*
X100307Y28093D1*
X100489Y28155D1*
X100670D1*
X100853Y28093D1*
X100975Y27972D1*
X101035Y27790D1*
Y27669D1*
X100975Y27486D1*
X100853Y27364D1*
X100670Y27304D1*
X100489D1*
X100307Y27364D1*
X100246Y27426D1*
X100185Y27547D1*
X101427Y28580D2*
Y27304D1*
X101853D1*
X102035Y27366D1*
X102157Y27486D1*
X102218Y27608D1*
X102278Y27790D1*
Y28094D1*
X102218Y28277D1*
X102157Y28397D1*
X102035Y28520D1*
X101853Y28580D1*
X101427D1*
X60557Y40708D2*
X60375Y40648D1*
X60253Y40466D1*
X60192Y40162D1*
Y39980D1*
X60253Y39677D1*
X60375Y39494D1*
X60557Y39434D1*
X60678D1*
X60861Y39494D1*
X60981Y39677D1*
X61043Y39980D1*
Y40162D1*
X60981Y40466D1*
X60861Y40648D1*
X60678Y40708D1*
X60557D1*
X60981Y40466D2*
X60253Y39677D1*
X61496Y39556D2*
X61435Y39494D1*
X61496Y39434D1*
X61557Y39494D1*
X61496Y39556D1*
X61950Y40466D2*
X62072Y40527D1*
X62254Y40708D1*
Y39434D1*
X62646Y40285D2*
Y39677D1*
X62707Y39496D1*
X62829Y39434D1*
X63011D1*
X63132Y39496D1*
X63315Y39677D1*
Y40285D2*
Y39434D1*
X64497Y40710D2*
X63707D1*
Y39434D1*
Y40102D2*
X64192D1*
X120850Y27304D2*
X121458Y28578D1*
X120607D1*
X122458Y27304D2*
Y28578D1*
X121850Y27729D1*
X122761D1*
X123153Y28580D2*
Y27304D1*
X124004Y28580D2*
Y27304D1*
X123153Y27972D2*
X124004D1*
X125307Y28277D2*
X125247Y28397D1*
X125124Y28520D1*
X125004Y28580D1*
X124761D1*
X124639Y28520D1*
X124518Y28397D1*
X124456Y28277D1*
X124396Y28094D1*
Y27790D1*
X124456Y27608D1*
X124518Y27486D1*
X124639Y27366D1*
X124761Y27304D1*
X125004D1*
X125124Y27366D1*
X125247Y27486D1*
X125307Y27608D1*
X126428Y28578D2*
X125821D1*
X125761Y28032D1*
X125821Y28093D1*
X126004Y28155D1*
X126185D1*
X126367Y28093D1*
X126489Y27972D1*
X126550Y27790D1*
Y27669D1*
X126489Y27486D1*
X126367Y27364D1*
X126185Y27304D1*
X126004D1*
X125821Y27364D1*
X125761Y27426D1*
X125699Y27547D1*
X127732Y28155D2*
X127671Y27972D1*
X127550Y27850D1*
X127367Y27790D1*
X127307D1*
X127125Y27850D1*
X127004Y27972D1*
X126942Y28155D1*
Y28215D1*
X127004Y28397D1*
X127125Y28518D1*
X127307Y28578D1*
X127367D1*
X127550Y28518D1*
X127671Y28397D1*
X127732Y28155D1*
Y27850D1*
X127671Y27547D1*
X127550Y27364D1*
X127367Y27304D1*
X127247D1*
X127064Y27364D1*
X127004Y27486D1*
X128853Y28578D2*
X128247D1*
X128186Y28032D1*
X128247Y28093D1*
X128429Y28155D1*
X128610D1*
X128793Y28093D1*
X128915Y27972D1*
X128975Y27790D1*
Y27669D1*
X128915Y27486D1*
X128793Y27364D1*
X128610Y27304D1*
X128429D1*
X128247Y27364D1*
X128186Y27426D1*
X128125Y27547D1*
X129367Y28580D2*
Y27304D1*
X129793D1*
X129975Y27366D1*
X130097Y27486D1*
X130158Y27608D1*
X130218Y27790D1*
Y28094D1*
X130158Y28277D1*
X130097Y28397D1*
X129975Y28520D1*
X129793Y28580D1*
X129367D1*
X69464Y104214D2*
X69524Y104031D1*
X69707Y103909D1*
X70010Y103849D1*
X70193D1*
X70496Y103909D1*
X70678Y104031D1*
X70739Y104214D1*
Y104334D1*
X70678Y104517D1*
X70496Y104638D1*
X70193Y104699D1*
X70010D1*
X69707Y104638D1*
X69524Y104517D1*
X69464Y104334D1*
Y104214D1*
X69707Y104638D2*
X70496Y103909D1*
X70617Y105152D2*
X70678Y105091D1*
X70739Y105152D1*
X70678Y105214D1*
X70617Y105152D1*
X69707Y105606D2*
X69645Y105728D1*
X69464Y105910D1*
X70739D1*
X69888Y106303D2*
X70496D1*
X70677Y106363D1*
X70739Y106485D1*
Y106668D1*
X70677Y106788D1*
X70496Y106971D1*
X69888D2*
X70739D1*
X69463Y108153D2*
Y107363D1*
X70739D1*
X70071D2*
Y107849D1*
X58901Y127357D2*
X57627Y127965D1*
Y127114D1*
X58901Y128965D2*
X57627D1*
X58476Y128357D1*
Y129268D1*
X57625Y129660D2*
X58901D1*
X57625Y130511D2*
X58901D1*
X58233Y129660D2*
Y130511D1*
X57928Y131814D2*
X57808Y131754D1*
X57686Y131632D1*
X57625Y131511D1*
Y131268D1*
X57686Y131146D1*
X57808Y131026D1*
X57928Y130964D1*
X58111Y130903D1*
X58416D1*
X58597Y130964D1*
X58719Y131026D1*
X58839Y131146D1*
X58901Y131268D1*
Y131511D1*
X58839Y131632D1*
X58719Y131754D1*
X58597Y131814D1*
X57627Y132935D2*
Y132329D1*
X58173Y132268D1*
X58112Y132329D1*
X58051Y132511D1*
Y132692D1*
X58112Y132875D1*
X58233Y132997D1*
X58415Y133057D1*
X58536D1*
X58719Y132997D1*
X58841Y132875D1*
X58901Y132692D1*
Y132511D1*
X58841Y132329D1*
X58779Y132268D1*
X58658Y132207D1*
X58050Y134240D2*
X58233Y134178D1*
X58355Y134057D1*
X58415Y133875D1*
Y133815D1*
X58355Y133632D1*
X58233Y133511D1*
X58050Y133450D1*
X57990D1*
X57808Y133511D1*
X57687Y133632D1*
X57627Y133815D1*
Y133875D1*
X57687Y134057D1*
X57808Y134178D1*
X58050Y134240D1*
X58355D1*
X58658Y134178D1*
X58841Y134057D1*
X58901Y133875D1*
Y133754D1*
X58841Y133572D1*
X58719Y133511D1*
X57627Y135361D2*
Y134754D1*
X58173Y134694D1*
X58112Y134754D1*
X58050Y134937D1*
Y135118D1*
X58112Y135300D1*
X58233Y135422D1*
X58415Y135483D1*
X58536D1*
X58719Y135422D1*
X58841Y135300D1*
X58901Y135118D1*
Y134937D1*
X58841Y134754D1*
X58779Y134694D1*
X58658Y134632D1*
X57625Y135875D2*
X58901D1*
Y136300D1*
X58839Y136483D1*
X58719Y136605D1*
X58597Y136665D1*
X58415Y136726D1*
X58111D1*
X57928Y136665D1*
X57808Y136605D1*
X57685Y136483D1*
X57625Y136300D1*
Y135875D1*
X64773Y77380D2*
X64590Y77319D1*
X64468Y77137D1*
X64408Y76834D1*
Y76651D1*
X64468Y76348D1*
X64590Y76165D1*
X64773Y76105D1*
X64894D1*
X65076Y76165D1*
X65197Y76348D1*
X65259Y76651D1*
Y76834D1*
X65197Y77137D1*
X65076Y77319D1*
X64894Y77380D1*
X64773D1*
X65197Y77137D2*
X64468Y76348D1*
X65711Y76227D2*
X65651Y76165D1*
X65711Y76105D1*
X65773Y76165D1*
X65711Y76227D1*
X66165Y77137D2*
X66287Y77199D1*
X66470Y77380D1*
Y76105D1*
X66862Y76956D2*
Y76348D1*
X66922Y76167D1*
X67044Y76105D1*
X67227D1*
X67348Y76167D1*
X67530Y76348D1*
Y76956D2*
Y76105D1*
X68713Y77381D2*
X67922D1*
Y76105D1*
Y76773D2*
X68408D1*
X58584Y96560D2*
X57309Y97168D1*
Y96317D1*
X58584Y98168D2*
X57309D1*
X58158Y97560D1*
Y98471D1*
X57308Y98863D2*
X58584D1*
X57308Y99714D2*
X58584D1*
X57916Y98863D2*
Y99714D1*
X57611Y101017D2*
X57490Y100957D1*
X57368Y100834D1*
X57308Y100714D1*
Y100471D1*
X57368Y100349D1*
X57490Y100228D1*
X57611Y100166D1*
X57793Y100106D1*
X58098D1*
X58279Y100166D1*
X58401Y100228D1*
X58522Y100349D1*
X58584Y100471D1*
Y100714D1*
X58522Y100834D1*
X58401Y100957D1*
X58279Y101017D1*
X57309Y102138D2*
Y101531D1*
X57855Y101471D1*
X57795Y101531D1*
X57733Y101714D1*
Y101895D1*
X57795Y102077D1*
X57915Y102199D1*
X58098Y102260D1*
X58219D1*
X58401Y102199D1*
X58523Y102077D1*
X58584Y101895D1*
Y101714D1*
X58523Y101531D1*
X58462Y101471D1*
X58341Y101409D1*
X57733Y103442D2*
X57915Y103381D1*
X58038Y103260D1*
X58098Y103077D1*
Y103017D1*
X58038Y102835D1*
X57915Y102714D1*
X57733Y102652D1*
X57673D1*
X57490Y102714D1*
X57369Y102835D1*
X57309Y103017D1*
Y103077D1*
X57369Y103260D1*
X57490Y103381D1*
X57733Y103442D1*
X58038D1*
X58341Y103381D1*
X58523Y103260D1*
X58584Y103077D1*
Y102957D1*
X58523Y102774D1*
X58401Y102714D1*
X57309Y104563D2*
Y103957D1*
X57855Y103896D1*
X57795Y103957D1*
X57733Y104139D1*
Y104320D1*
X57795Y104503D1*
X57915Y104625D1*
X58098Y104685D1*
X58219D1*
X58401Y104625D1*
X58523Y104503D1*
X58584Y104320D1*
Y104139D1*
X58523Y103957D1*
X58462Y103896D1*
X58341Y103835D1*
X57308Y105077D2*
X58584D1*
Y105503D1*
X58522Y105685D1*
X58401Y105807D1*
X58279Y105868D1*
X58098Y105928D1*
X57793D1*
X57611Y105868D1*
X57490Y105807D1*
X57368Y105685D1*
X57308Y105503D1*
Y105077D1*
X101757Y98493D2*
X101574Y98433D1*
X101452Y98251D1*
X101392Y97947D1*
Y97765D1*
X101452Y97462D1*
X101574Y97279D1*
X101757Y97219D1*
X101877D1*
X102060Y97279D1*
X102181Y97462D1*
X102242Y97765D1*
Y97947D1*
X102181Y98251D1*
X102060Y98433D1*
X101877Y98493D1*
X101757D1*
X102181Y98251D2*
X101452Y97462D1*
X102695Y97341D2*
X102635Y97279D1*
X102695Y97219D1*
X102757Y97279D1*
X102695Y97341D1*
X103149Y98251D2*
X103271Y98312D1*
X103453Y98493D1*
Y97219D1*
X103846Y98070D2*
Y97462D1*
X103906Y97281D1*
X104028Y97219D1*
X104211D1*
X104331Y97281D1*
X104514Y97462D1*
Y98070D2*
Y97219D1*
X105696Y98495D2*
X104906D1*
Y97219D1*
Y97887D2*
X105392D1*
X58741Y63382D2*
X57467Y63990D1*
Y63139D1*
X58741Y64990D2*
X57467D1*
X58316Y64382D1*
Y65293D1*
X57465Y65685D2*
X58741D1*
X57465Y66536D2*
X58741D1*
X58073Y65685D2*
Y66536D1*
X57768Y67839D2*
X57648Y67779D1*
X57526Y67657D1*
X57465Y67536D1*
Y67293D1*
X57526Y67171D1*
X57648Y67051D1*
X57768Y66989D1*
X57951Y66928D1*
X58256D1*
X58437Y66989D1*
X58559Y67051D1*
X58679Y67171D1*
X58741Y67293D1*
Y67536D1*
X58679Y67657D1*
X58559Y67779D1*
X58437Y67839D1*
X57467Y68960D2*
Y68354D1*
X58013Y68293D1*
X57952Y68354D1*
X57891Y68536D1*
Y68717D1*
X57952Y68900D1*
X58073Y69022D1*
X58255Y69082D1*
X58376D1*
X58559Y69022D1*
X58681Y68900D1*
X58741Y68717D1*
Y68536D1*
X58681Y68354D1*
X58619Y68293D1*
X58498Y68232D1*
X57890Y70265D2*
X58073Y70203D1*
X58195Y70082D1*
X58255Y69900D1*
Y69840D1*
X58195Y69657D1*
X58073Y69536D1*
X57890Y69475D1*
X57830D1*
X57648Y69536D1*
X57527Y69657D1*
X57467Y69840D1*
Y69900D1*
X57527Y70082D1*
X57648Y70203D1*
X57890Y70265D1*
X58195D1*
X58498Y70203D1*
X58681Y70082D1*
X58741Y69900D1*
Y69779D1*
X58681Y69597D1*
X58559Y69536D1*
X57467Y71386D2*
Y70779D1*
X58013Y70719D1*
X57952Y70779D1*
X57890Y70962D1*
Y71143D1*
X57952Y71325D1*
X58073Y71447D1*
X58255Y71508D1*
X58376D1*
X58559Y71447D1*
X58681Y71325D1*
X58741Y71143D1*
Y70962D1*
X58681Y70779D1*
X58619Y70719D1*
X58498Y70657D1*
X57465Y71900D2*
X58741D1*
Y72325D1*
X58679Y72508D1*
X58559Y72630D1*
X58437Y72690D1*
X58255Y72751D1*
X57951D1*
X57768Y72690D1*
X57648Y72630D1*
X57525Y72508D1*
X57465Y72325D1*
Y71900D1*
X70258Y135329D2*
X70318Y135146D1*
X70501Y135024D1*
X70804Y134964D1*
X70986D1*
X71290Y135024D1*
X71472Y135146D1*
X71532Y135329D1*
Y135449D1*
X71472Y135632D1*
X71290Y135753D1*
X70986Y135814D1*
X70804D1*
X70501Y135753D1*
X70318Y135632D1*
X70258Y135449D1*
Y135329D1*
X70501Y135753D2*
X71290Y135024D1*
X71410Y136267D2*
X71472Y136206D1*
X71532Y136267D1*
X71472Y136329D1*
X71410Y136267D1*
X70501Y136721D2*
X70439Y136843D1*
X70258Y137025D1*
X71532D1*
X70682Y137418D2*
X71290D1*
X71471Y137478D1*
X71532Y137600D1*
Y137783D1*
X71471Y137903D1*
X71290Y138086D1*
X70682D2*
X71532D1*
X70256Y139268D2*
Y138478D1*
X71532D1*
X70864D2*
Y138964D1*
X104022Y85089D2*
X104630Y86363D1*
X103779D1*
X105630Y85089D2*
Y86363D1*
X105022Y85514D1*
X105933D1*
X106325Y86365D2*
Y85089D1*
X107176Y86365D2*
Y85089D1*
X106325Y85757D2*
X107176D1*
X108479Y86062D2*
X108419Y86182D1*
X108297Y86305D1*
X108176Y86365D1*
X107933D1*
X107811Y86305D1*
X107691Y86182D1*
X107629Y86062D1*
X107568Y85879D1*
Y85575D1*
X107629Y85393D1*
X107691Y85271D1*
X107811Y85151D1*
X107933Y85089D1*
X108176D1*
X108297Y85151D1*
X108419Y85271D1*
X108479Y85393D1*
X109600Y86363D2*
X108994D1*
X108933Y85817D1*
X108994Y85878D1*
X109176Y85940D1*
X109357D1*
X109540Y85878D1*
X109662Y85757D1*
X109722Y85575D1*
Y85454D1*
X109662Y85271D1*
X109540Y85149D1*
X109357Y85089D1*
X109176D1*
X108994Y85149D1*
X108933Y85211D1*
X108872Y85332D1*
X110905Y85940D2*
X110843Y85757D1*
X110722Y85635D1*
X110540Y85575D1*
X110480D1*
X110297Y85635D1*
X110176Y85757D1*
X110115Y85940D1*
Y86000D1*
X110176Y86182D1*
X110297Y86303D1*
X110480Y86363D1*
X110540D1*
X110722Y86303D1*
X110843Y86182D1*
X110905Y85940D1*
Y85635D1*
X110843Y85332D1*
X110722Y85149D1*
X110540Y85089D1*
X110419D1*
X110237Y85149D1*
X110176Y85271D1*
X112026Y86363D2*
X111419D1*
X111359Y85817D1*
X111419Y85878D1*
X111602Y85940D1*
X111783D1*
X111965Y85878D1*
X112087Y85757D1*
X112148Y85575D1*
Y85454D1*
X112087Y85271D1*
X111965Y85149D1*
X111783Y85089D1*
X111602D1*
X111419Y85149D1*
X111359Y85211D1*
X111297Y85332D1*
X112540Y86365D2*
Y85089D1*
X112965D1*
X113148Y85151D1*
X113270Y85271D1*
X113330Y85393D1*
X113391Y85575D1*
Y85879D1*
X113330Y86062D1*
X113270Y86182D1*
X113148Y86305D1*
X112965Y86365D1*
X112540D1*
X135789Y23446D2*
Y24721D1*
X135181Y23872D1*
X136092D1*
X136545Y23568D2*
X136484Y23507D1*
X136545Y23446D1*
X136607Y23507D1*
X136545Y23568D1*
X137242Y23446D2*
X137849Y24721D1*
X136999D1*
X138242Y24722D2*
Y23446D1*
X138849Y24297D2*
X138242Y23689D1*
X138484Y23932D2*
X138910Y23446D1*
X134017Y15826D2*
X134684D1*
X134320Y15340D1*
X134502D1*
X134623Y15280D1*
X134684Y15220D1*
X134745Y15037D1*
Y14916D1*
X134684Y14734D1*
X134563Y14612D1*
X134380Y14551D1*
X134198D1*
X134017Y14612D1*
X133956Y14673D1*
X133895Y14794D1*
X135502Y15826D2*
X135320Y15766D1*
X135198Y15583D1*
X135137Y15280D1*
Y15097D1*
X135198Y14794D1*
X135320Y14612D1*
X135502Y14551D1*
X135623D1*
X135806Y14612D1*
X135926Y14794D1*
X135988Y15097D1*
Y15280D1*
X135926Y15583D1*
X135806Y15766D1*
X135623Y15826D1*
X135502D1*
X135926Y15583D2*
X135198Y14794D1*
X136745Y15826D2*
X136563Y15766D1*
X136441Y15583D1*
X136380Y15280D1*
Y15097D1*
X136441Y14794D1*
X136563Y14612D1*
X136745Y14551D1*
X136866D1*
X137049Y14612D1*
X137169Y14794D1*
X137231Y15097D1*
Y15280D1*
X137169Y15583D1*
X137049Y15766D1*
X136866Y15826D1*
X136745D1*
X137169Y15583D2*
X136441Y14794D1*
X137623Y15827D2*
Y14551D1*
X138231Y15402D2*
X137623Y14794D1*
X137866Y15037D2*
X138291Y14551D1*
X135253Y18933D2*
Y20209D1*
X134767Y18933D1*
X134281Y20209D1*
Y18933D1*
X136616D2*
Y20209D1*
X136130Y18933D1*
X135645Y20209D1*
Y18933D1*
X137008Y20209D2*
Y18933D1*
X137556D1*
X137738Y18995D1*
X137799Y19055D1*
X137859Y19176D1*
Y19359D1*
X137799Y19481D1*
X137738Y19541D1*
X137556Y19601D1*
X137738Y19663D1*
X137799Y19724D1*
X137859Y19844D1*
Y19966D1*
X137799Y20087D1*
X137738Y20149D1*
X137556Y20209D1*
X137008D1*
Y19601D2*
X137556D1*
X138677Y20209D2*
Y18933D1*
X138251Y20209D2*
X139102D1*
X140467Y18933D2*
X139980Y20209D1*
X139494Y18933D1*
X139677Y19359D2*
X140284D1*
X141467Y18933D2*
Y20208D1*
X140859Y19359D1*
X141770D1*
X142224Y19905D2*
Y19965D1*
X142285Y20087D1*
X142345Y20148D1*
X142467Y20208D1*
X142710D1*
X142831Y20148D1*
X142891Y20087D1*
X142953Y19965D1*
Y19844D1*
X142891Y19722D1*
X142770Y19541D1*
X142162Y18933D1*
X143013D1*
X126645Y58506D2*
X127253Y59781D1*
X126403D1*
X128374D2*
X127768D1*
X127707Y59235D1*
X127768Y59295D1*
X127950Y59357D1*
X128131D1*
X128314Y59295D1*
X128436Y59175D1*
X128496Y58992D1*
Y58871D1*
X128436Y58689D1*
X128314Y58567D1*
X128131Y58506D1*
X127950D1*
X127768Y58567D1*
X127707Y58628D1*
X127645Y58749D1*
X129253Y59781D2*
X129071Y59721D1*
X128949Y59538D1*
X128888Y59235D1*
Y59052D1*
X128949Y58749D1*
X129071Y58567D1*
X129253Y58506D1*
X129374D1*
X129557Y58567D1*
X129677Y58749D1*
X129739Y59052D1*
Y59235D1*
X129677Y59538D1*
X129557Y59721D1*
X129374Y59781D1*
X129253D1*
X129677Y59538D2*
X128949Y58749D1*
X126569Y56731D2*
X126691Y56792D1*
X126874Y56973D1*
Y55699D1*
X127631Y56973D2*
X127448Y56913D1*
X127326Y56731D1*
X127266Y56427D1*
Y56245D1*
X127326Y55942D1*
X127448Y55759D1*
X127631Y55699D1*
X127752D1*
X127934Y55759D1*
X128055Y55942D1*
X128117Y56245D1*
Y56427D1*
X128055Y56731D1*
X127934Y56913D1*
X127752Y56973D1*
X127631D1*
X128055Y56731D2*
X127326Y55942D1*
X128509Y56975D2*
Y55699D1*
X129117Y56550D2*
X128509Y55942D1*
X128752Y56185D2*
X129177Y55699D1*
X125346Y69698D2*
X125468Y69760D1*
X125651Y69941D1*
Y68666D1*
X126771Y69760D2*
X126711Y69881D1*
X126529Y69941D1*
X126408D1*
X126225Y69881D1*
X126103Y69698D1*
X126043Y69395D1*
Y69092D1*
X126103Y68849D1*
X126225Y68727D1*
X126408Y68666D1*
X126468D1*
X126649Y68727D1*
X126771Y68849D1*
X126832Y69031D1*
Y69092D1*
X126771Y69274D1*
X126649Y69395D1*
X126468Y69455D1*
X126408D1*
X126225Y69395D1*
X126103Y69274D1*
X126043Y69092D1*
X127589Y69941D2*
X127406Y69881D1*
X127284Y69698D1*
X127224Y69395D1*
Y69212D1*
X127284Y68909D1*
X127406Y68727D1*
X127589Y68666D1*
X127710D1*
X127892Y68727D1*
X128013Y68909D1*
X128075Y69212D1*
Y69395D1*
X128013Y69698D1*
X127892Y69881D1*
X127710Y69941D1*
X127589D1*
X128013Y69698D2*
X127284Y68909D1*
X128467Y69942D2*
Y68666D1*
X129075Y69517D2*
X128467Y68909D1*
X128710Y69152D2*
X129135Y68666D1*
X125979Y81684D2*
Y82958D1*
X125371Y82109D1*
X126282D1*
X126735Y81806D2*
X126674Y81744D1*
X126735Y81684D1*
X126797Y81744D1*
X126735Y81806D1*
X127432Y81684D2*
X128039Y82958D1*
X127189D1*
X128432Y82960D2*
Y81684D1*
X129039Y82535D2*
X128432Y81927D1*
X128674Y82170D2*
X129100Y81684D1*
X125982Y65166D2*
Y66441D1*
X125374Y65592D1*
X126285D1*
X126799Y65227D2*
X126737Y65166D1*
X126677Y65227D1*
X126737Y65288D1*
X126799Y65227D1*
Y65106D1*
X126737Y64984D1*
X126677Y64923D1*
X127434Y65166D2*
X128042Y66441D1*
X127191D1*
X128434Y66442D2*
Y65166D1*
X129042Y66017D2*
X128434Y65409D1*
X128677Y65652D2*
X129102Y65166D1*
X124695Y62637D2*
Y61361D1*
X125242D1*
X125425Y61423D1*
X125485Y61483D1*
X125546Y61604D1*
Y61786D1*
X125485Y61908D1*
X125425Y61969D1*
X125242Y62029D1*
X125425Y62091D1*
X125485Y62151D1*
X125546Y62272D1*
Y62394D1*
X125485Y62515D1*
X125425Y62576D1*
X125242Y62637D1*
X124695D1*
Y62029D2*
X125242D1*
X126911Y61361D2*
X126424Y62637D1*
X125938Y61361D1*
X126120Y61786D2*
X126728D1*
X127303Y62637D2*
X127789Y61361D1*
X128274Y62637D1*
X128789Y62635D2*
X129455D1*
X129092Y62150D1*
X129274D1*
X129395Y62089D1*
X129455Y62029D1*
X129517Y61846D1*
Y61726D1*
X129455Y61543D1*
X129335Y61421D1*
X129152Y61361D1*
X128970D1*
X128789Y61421D1*
X128728Y61483D1*
X128666Y61604D1*
X130274Y62635D2*
X130092Y62575D1*
X129970Y62393D1*
X129909Y62089D1*
Y61907D1*
X129970Y61604D1*
X130092Y61421D1*
X130274Y61361D1*
X130395D1*
X130578Y61421D1*
X130698Y61604D1*
X130760Y61907D1*
Y62089D1*
X130698Y62393D1*
X130578Y62575D1*
X130395Y62635D1*
X130274D1*
X130698Y62393D2*
X129970Y61604D1*
X131517Y62635D2*
X131335Y62575D1*
X131213Y62393D1*
X131152Y62089D1*
Y61907D1*
X131213Y61604D1*
X131335Y61421D1*
X131517Y61361D1*
X131638D1*
X131820Y61421D1*
X131941Y61604D1*
X132003Y61907D1*
Y62089D1*
X131941Y62393D1*
X131820Y62575D1*
X131638Y62635D1*
X131517D1*
X131941Y62393D2*
X131213Y61604D1*
X133003Y61361D2*
Y62635D1*
X132395Y61786D1*
X133306D1*
X133698Y62637D2*
X134003Y61361D1*
X134306Y62637D1*
X134609Y61361D1*
X134914Y62637D1*
X136157Y62454D2*
X136036Y62576D1*
X135854Y62637D1*
X135611D1*
X135428Y62576D1*
X135306Y62454D1*
Y62334D1*
X135368Y62211D1*
X135428Y62151D1*
X135549Y62091D1*
X135914Y61969D1*
X136036Y61908D1*
X136097Y61846D1*
X136157Y61726D1*
Y61543D1*
X136036Y61423D1*
X135854Y61361D1*
X135611D1*
X135428Y61423D1*
X135306Y61543D1*
X136549Y61998D2*
X137251D1*
X137886Y61361D2*
X138494Y62635D1*
X137643D1*
X124547Y76777D2*
Y75501D1*
X125095D1*
X125277Y75563D1*
X125338Y75623D1*
X125398Y75744D1*
Y75926D1*
X125338Y76048D1*
X125277Y76109D1*
X125095Y76169D1*
X125277Y76231D1*
X125338Y76291D1*
X125398Y76412D1*
Y76534D1*
X125338Y76655D1*
X125277Y76716D1*
X125095Y76777D1*
X124547D1*
Y76169D2*
X125095D1*
X126763Y75501D2*
X126276Y76777D1*
X125790Y75501D1*
X125973Y75926D2*
X126581D1*
X127155Y76777D2*
X127641Y75501D1*
X128127Y76777D1*
X128641Y76775D2*
X129308D1*
X128944Y76290D1*
X129127D1*
X129248Y76229D1*
X129308Y76169D1*
X129370Y75986D1*
Y75866D1*
X129308Y75683D1*
X129187Y75561D1*
X129005Y75501D1*
X128822D1*
X128641Y75561D1*
X128581Y75623D1*
X128519Y75744D1*
X130127Y76775D2*
X129944Y76715D1*
X129822Y76533D1*
X129762Y76229D1*
Y76047D1*
X129822Y75744D1*
X129944Y75561D1*
X130127Y75501D1*
X130248D1*
X130430Y75561D1*
X130551Y75744D1*
X130613Y76047D1*
Y76229D1*
X130551Y76533D1*
X130430Y76715D1*
X130248Y76775D1*
X130127D1*
X130551Y76533D2*
X129822Y75744D1*
X131370Y76775D2*
X131187Y76715D1*
X131065Y76533D1*
X131005Y76229D1*
Y76047D1*
X131065Y75744D1*
X131187Y75561D1*
X131370Y75501D1*
X131490D1*
X131673Y75561D1*
X131794Y75744D1*
X131855Y76047D1*
Y76229D1*
X131794Y76533D1*
X131673Y76715D1*
X131490Y76775D1*
X131370D1*
X131794Y76533D2*
X131065Y75744D1*
X132856Y75501D2*
Y76775D1*
X132248Y75926D1*
X133159D1*
X133551Y76777D2*
X133856Y75501D1*
X134159Y76777D1*
X134462Y75501D1*
X134767Y76777D1*
X136010Y76594D2*
X135889Y76716D1*
X135706Y76777D1*
X135463D1*
X135281Y76716D1*
X135159Y76594D1*
Y76474D1*
X135221Y76351D1*
X135281Y76291D1*
X135402Y76231D1*
X135767Y76109D1*
X135889Y76048D1*
X135949Y75986D1*
X136010Y75866D1*
Y75683D1*
X135889Y75563D1*
X135706Y75501D1*
X135463D1*
X135281Y75563D1*
X135159Y75683D1*
X136402Y76138D2*
X137104D1*
X137739Y75501D2*
X138346Y76775D1*
X137496D1*
X126282Y72295D2*
Y73571D1*
X125796Y72295D1*
X125311Y73571D1*
Y72295D1*
X127646D2*
Y73571D1*
X127160Y72295D1*
X126674Y73571D1*
Y72295D1*
X128038Y73571D2*
Y72295D1*
X128585D1*
X128768Y72357D1*
X128828Y72417D1*
X128889Y72538D1*
Y72721D1*
X128828Y72843D1*
X128768Y72903D1*
X128585Y72963D1*
X128768Y73025D1*
X128828Y73086D1*
X128889Y73206D1*
Y73328D1*
X128828Y73449D1*
X128768Y73511D1*
X128585Y73571D1*
X128038D1*
Y72963D2*
X128585D1*
X129706Y73571D2*
Y72295D1*
X129281Y73571D2*
X130131D1*
X131496Y72295D2*
X131009Y73571D1*
X130524Y72295D1*
X130706Y72721D2*
X131314D1*
X132496Y72295D2*
Y73570D1*
X131889Y72721D1*
X132800D1*
X133254Y73267D2*
Y73327D1*
X133314Y73449D1*
X133374Y73510D1*
X133497Y73570D1*
X133739D1*
X133860Y73510D1*
X133920Y73449D1*
X133982Y73327D1*
Y73206D1*
X133920Y73084D1*
X133800Y72903D1*
X133192Y72295D1*
X134043D1*
X125965Y78645D2*
Y79921D1*
X125479Y78645D1*
X124993Y79921D1*
Y78645D1*
X127328D2*
Y79921D1*
X126842Y78645D1*
X126357Y79921D1*
Y78645D1*
X127720Y79921D2*
Y78645D1*
X128268D1*
X128450Y78707D1*
X128511Y78767D1*
X128571Y78888D1*
Y79071D1*
X128511Y79193D1*
X128450Y79253D1*
X128268Y79313D1*
X128450Y79375D1*
X128511Y79436D1*
X128571Y79556D1*
Y79678D1*
X128511Y79799D1*
X128450Y79861D1*
X128268Y79921D1*
X127720D1*
Y79313D2*
X128268D1*
X129389Y79921D2*
Y78645D1*
X128963Y79921D2*
X129814D1*
X131179Y78645D2*
X130692Y79921D1*
X130206Y78645D1*
X130389Y79071D2*
X130996D1*
X132179Y78645D2*
Y79920D1*
X131571Y79071D1*
X132482D1*
X132936Y79617D2*
Y79677D1*
X132997Y79799D1*
X133057Y79860D1*
X133179Y79920D1*
X133422D1*
X133543Y79860D1*
X133603Y79799D1*
X133665Y79677D1*
Y79556D1*
X133603Y79434D1*
X133482Y79253D1*
X132874Y78645D1*
X133725D1*
X73278Y109348D2*
D29*
Y106796D1*
X74474Y109348D2*
Y106796D1*
X73278Y109348D2*
X74474D1*
X73026Y106796D2*
X74727D1*
X73026D2*
Y106543D1*
X74727Y106796D2*
Y106543D1*
X75511Y108498D2*
Y105945D1*
Y108133D2*
X75753Y108374D1*
X75997Y108498D1*
X76362D1*
X76603Y108374D1*
X76848Y108133D1*
X76968Y107768D1*
Y107523D1*
X76848Y107161D1*
X76603Y106917D1*
X76362Y106796D1*
X75997D1*
X75753Y106917D1*
X75511Y107161D1*
X79210Y108498D2*
Y106796D1*
Y108133D2*
X78969Y108377D1*
X78724Y108498D1*
X78362D1*
X78118Y108377D1*
X77876Y108133D1*
X77753Y107768D1*
Y107526D1*
X77876Y107161D1*
X78118Y106920D1*
X78362Y106796D1*
X78724D1*
X78969Y106920D1*
X79210Y107161D1*
X80814Y108677D2*
X80435D1*
X79994Y108498D2*
Y106796D1*
X81269Y108498D2*
Y106796D1*
Y108498D2*
X79994Y106796D1*
X82053Y108498D2*
Y106796D1*
X82873D1*
X83148Y106878D1*
X83238Y106959D1*
X83328Y107119D1*
Y107363D1*
X83238Y107526D1*
X83148Y107608D1*
X82873Y107686D1*
X83148Y107770D1*
X83238Y107849D1*
X83328Y108012D1*
Y108175D1*
X83238Y108335D1*
X83148Y108416D1*
X82873Y108498D1*
X82053D1*
Y107686D2*
X82873D1*
X84112Y107768D2*
X85570D1*
Y108012D1*
X85449Y108256D1*
X85328Y108377D1*
X85084Y108498D1*
X84719D1*
X84477Y108377D1*
X84233Y108133D1*
X84112Y107768D1*
Y107526D1*
X84233Y107161D1*
X84477Y106920D1*
X84719Y106796D1*
X85084D1*
X85328Y106920D1*
X85570Y107161D1*
X86354Y108498D2*
Y105945D1*
Y108133D2*
X86595Y108374D1*
X86840Y108498D1*
X87205D1*
X87446Y108374D1*
X87690Y108133D1*
X87811Y107768D1*
Y107523D1*
X87690Y107161D1*
X87446Y106917D1*
X87205Y106796D1*
X86840D1*
X86595Y106917D1*
X86354Y107161D1*
X92766Y109348D2*
Y106796D1*
Y109348D2*
X91064Y106796D1*
Y109348D2*
Y106796D1*
X95131Y109348D2*
X93550D1*
Y106796D1*
X95915Y109348D2*
Y106796D1*
X97617Y109348D2*
Y106796D1*
X95915Y109348D2*
X97617D1*
X98401D2*
Y106796D1*
X100102Y109348D2*
Y106796D1*
X98401Y109348D2*
X100102D1*
X100887Y108071D2*
X102290D1*
X103319Y109345D2*
X104653D1*
X103926Y108374D1*
X104291D1*
X104532Y108253D1*
X104653Y108133D1*
X104776Y107768D1*
Y107526D1*
X104653Y107161D1*
X104411Y106917D1*
X104046Y106796D1*
X103681D1*
X103319Y106917D1*
X103198Y107040D1*
X103075Y107282D1*
X105684Y108739D2*
Y108860D1*
X105805Y109104D1*
X105926Y109225D1*
X106170Y109345D1*
X106656D1*
X106897Y109225D1*
X107018Y109104D1*
X107141Y108860D1*
Y108618D1*
X107018Y108374D1*
X106776Y108012D1*
X105561Y106796D1*
X107262D1*
X108046D2*
X109748Y109345D1*
X110776D2*
X112110D1*
X111383Y108374D1*
X111748D1*
X111989Y108253D1*
X112110Y108133D1*
X112234Y107768D1*
Y107526D1*
X112110Y107161D1*
X111869Y106917D1*
X111504Y106796D1*
X111139D1*
X110776Y106917D1*
X110656Y107040D1*
X110532Y107282D1*
X113141Y108739D2*
Y108860D1*
X113262Y109104D1*
X113383Y109225D1*
X113627Y109345D1*
X114113D1*
X114354Y109225D1*
X114475Y109104D1*
X114599Y108860D1*
Y108618D1*
X114475Y108374D1*
X114234Y108012D1*
X113018Y106796D1*
X114719D1*
X8069Y20536D2*
D101*
X7985Y20705D1*
X7814Y20876D1*
X7645Y20961D1*
X7305D1*
X7134Y20876D1*
X6965Y20705D1*
X6878Y20536D1*
X6794Y20280D1*
Y19854D1*
X6878Y19600D1*
X6965Y19429D1*
X7134Y19260D1*
X7305Y19174D1*
X7645D1*
X7814Y19260D1*
X7985Y19429D1*
X8069Y19600D1*
Y19854D1*
X7645D1*
X9809Y20961D2*
Y19174D1*
X8618Y20961D1*
Y19174D1*
X10359Y20961D2*
Y19174D1*
X10954D1*
X11210Y19260D1*
X11381Y19429D1*
X11465Y19600D1*
X11550Y19854D1*
Y20280D1*
X11465Y20536D1*
X11381Y20705D1*
X11210Y20876D1*
X10954Y20961D1*
X10359D1*
X75765Y102351D2*
D29*
X74791Y104903D1*
X73819Y102351D1*
X74184Y103202D2*
X75400D1*
X76549Y104053D2*
Y101500D1*
Y103688D2*
X76791Y103929D1*
X77035Y104053D1*
X77400D1*
X77642Y103929D1*
X77886Y103688D1*
X78007Y103323D1*
Y103078D1*
X77886Y102716D1*
X77642Y102472D1*
X77400Y102351D1*
X77035D1*
X76791Y102472D1*
X76549Y102716D1*
X79428Y104053D2*
Y102351D1*
X78791Y104053D2*
X80066D1*
X80850Y103323D2*
X82307D1*
Y103567D1*
X82186Y103811D1*
X82066Y103932D1*
X81821Y104053D1*
X81456D1*
X81215Y103932D1*
X80971Y103688D1*
X80850Y103323D1*
Y103081D1*
X80971Y102716D1*
X81215Y102475D1*
X81456Y102351D1*
X81821D1*
X82066Y102475D1*
X82307Y102716D1*
X84546Y102351D2*
Y104053D1*
X83819Y102351D1*
X83091Y104053D1*
Y102351D1*
X87799Y104903D2*
Y102351D1*
X89500Y104903D2*
X87799Y103202D1*
X88405Y103811D2*
X89500Y102351D1*
X91742Y104053D2*
Y102351D1*
Y103688D2*
X91500Y103932D1*
X91256Y104053D1*
X90894D1*
X90650Y103932D1*
X90408Y103688D1*
X90285Y103323D1*
Y103081D1*
X90408Y102716D1*
X90650Y102475D1*
X90894Y102351D1*
X91256D1*
X91500Y102475D1*
X91742Y102716D1*
X92526Y102351D2*
Y104053D1*
X94348D2*
Y102351D1*
X93436Y104053D2*
Y102351D1*
X92526D2*
X94348D1*
X95133Y104053D2*
Y102351D1*
X96407Y104053D2*
X95133Y102918D1*
X95588Y103325D2*
X96407Y102351D1*
X98649Y104053D2*
Y102351D1*
Y103688D2*
X98407Y103932D1*
X98163Y104053D1*
X97801D1*
X97557Y103932D1*
X97315Y103688D1*
X97192Y103323D1*
Y103081D1*
X97315Y102716D1*
X97557Y102475D1*
X97801Y102351D1*
X98163D1*
X98407Y102475D1*
X98649Y102716D1*
X99433Y104053D2*
Y102351D1*
X100708Y104053D2*
Y102351D1*
X99433Y103241D2*
X100708D1*
X102040Y104053D2*
X101857Y103971D1*
X101675Y103808D1*
X101582Y103648D1*
X101492Y103404D1*
Y103000D1*
X101582Y102758D1*
X101675Y102595D1*
X101857Y102433D1*
X102040Y102351D1*
X102402D1*
X102584Y102433D1*
X102767Y102595D1*
X102857Y102758D1*
X102947Y103000D1*
Y103404D1*
X102857Y103648D1*
X102767Y103808D1*
X102584Y103971D1*
X102402Y104053D1*
X102040D1*
X103731D2*
Y102351D1*
X104551D1*
X104826Y102433D1*
X104916Y102514D1*
X105006Y102674D1*
Y102918D1*
X104916Y103081D1*
X104826Y103163D1*
X104551Y103241D1*
X104826Y103325D1*
X104916Y103404D1*
X105006Y103567D1*
Y103730D1*
X104916Y103890D1*
X104826Y103971D1*
X104551Y104053D1*
X103731D1*
Y103241D2*
X104551D1*
X109623Y103648D2*
X109534Y103808D1*
X109351Y103971D1*
X109169Y104053D1*
X108806D1*
X108624Y103971D1*
X108441Y103808D1*
X108349Y103648D1*
X108259Y103404D1*
Y103000D1*
X108349Y102758D1*
X108441Y102595D1*
X108624Y102433D1*
X108806Y102351D1*
X109169D1*
X109351Y102433D1*
X109534Y102595D1*
X109623Y102758D1*
X72983Y116047D2*
Y116168D1*
X73103Y116412D1*
X73224Y116533D1*
X73468Y116653D1*
X73954D1*
X74196Y116533D1*
X74316Y116412D1*
X74440Y116168D1*
Y115926D1*
X74316Y115682D1*
X74075Y115320D1*
X72859Y114104D1*
X74561D1*
X76075Y116653D2*
X75710Y116533D1*
X75466Y116168D1*
X75345Y115561D1*
Y115196D1*
X75466Y114590D1*
X75710Y114225D1*
X76075Y114104D1*
X76316D1*
X76681Y114225D1*
X76923Y114590D1*
X77046Y115196D1*
Y115561D1*
X76923Y116168D1*
X76681Y116533D1*
X76316Y116653D1*
X76075D1*
X76923Y116168D2*
X75466Y114590D1*
X77954Y116047D2*
Y116168D1*
X78075Y116412D1*
X78196Y116533D1*
X78440Y116653D1*
X78926D1*
X79167Y116533D1*
X79288Y116412D1*
X79411Y116168D1*
Y115926D1*
X79288Y115682D1*
X79046Y115320D1*
X77831Y114104D1*
X79532D1*
X81046Y116653D2*
X80681Y116533D1*
X80437Y116168D1*
X80316Y115561D1*
Y115196D1*
X80437Y114590D1*
X80681Y114225D1*
X81046Y114104D1*
X81288D1*
X81653Y114225D1*
X81894Y114590D1*
X82018Y115196D1*
Y115561D1*
X81894Y116168D1*
X81653Y116533D1*
X81288Y116653D1*
X81046D1*
X81894Y116168D2*
X80437Y114590D1*
X83532Y116653D2*
X83167Y116533D1*
X82923Y116168D1*
X82802Y115561D1*
Y115196D1*
X82923Y114590D1*
X83167Y114225D1*
X83532Y114104D1*
X83774D1*
X84139Y114225D1*
X84380Y114590D1*
X84504Y115196D1*
Y115561D1*
X84380Y116168D1*
X84139Y116533D1*
X83774Y116653D1*
X83532D1*
X84380Y116168D2*
X82923Y114590D1*
X85532Y116653D2*
X86866D1*
X86139Y115682D1*
X86504D1*
X86745Y115561D1*
X86866Y115440D1*
X86989Y115075D1*
Y114834D1*
X86866Y114469D1*
X86624Y114225D1*
X86259Y114104D1*
X85894D1*
X85532Y114225D1*
X85411Y114348D1*
X85288Y114590D1*
X88504Y116653D2*
X88139Y116533D1*
X87894Y116168D1*
X87774Y115561D1*
Y115196D1*
X87894Y114590D1*
X88139Y114225D1*
X88504Y114104D1*
X88745D1*
X89110Y114225D1*
X89352Y114590D1*
X89475Y115196D1*
Y115561D1*
X89352Y116168D1*
X89110Y116533D1*
X88745Y116653D1*
X88504D1*
X89352Y116168D2*
X87894Y114590D1*
X90504Y116653D2*
X91837D1*
X91110Y115682D1*
X91475D1*
X91717Y115561D1*
X91837Y115440D1*
X91961Y115075D1*
Y114834D1*
X91837Y114469D1*
X91596Y114225D1*
X91231Y114104D1*
X90866D1*
X90504Y114225D1*
X90383Y114348D1*
X90260Y114590D1*
X92866Y114348D2*
X92745Y114225D1*
X92866Y114104D1*
X92990Y114225D1*
X92866Y114348D1*
X93774Y115805D2*
Y114104D1*
Y115075D2*
X93897Y115440D1*
X94139Y115685D1*
X94383Y115805D1*
X94748D1*
X95532Y115075D2*
X96990D1*
Y115320D1*
X96869Y115564D1*
X96748Y115685D1*
X96504Y115805D1*
X96139D1*
X95897Y115685D1*
X95653Y115440D1*
X95532Y115075D1*
Y114834D1*
X95653Y114469D1*
X95897Y114227D1*
X96139Y114104D1*
X96504D1*
X96748Y114227D1*
X96990Y114469D1*
X97774Y115805D2*
X98504Y114104D1*
X99231Y115805D1*
X100015Y116168D2*
X100260Y116291D1*
X100625Y116653D1*
Y114104D1*
X13478Y56672D2*
X13354Y56916D1*
X12992Y57281D1*
X15541D1*
X13173Y62477D2*
X14268Y60534D1*
X15360Y62477D1*
X13173Y65204D2*
X14268Y63261D1*
X15360Y65204D1*
X14267Y65989D2*
Y67392D1*
Y68177D2*
Y69581D1*
Y70365D2*
Y71769D1*
X13840Y76479D2*
X15541D1*
X14205D2*
X13960Y76238D1*
X13840Y75993D1*
Y75631D1*
X13960Y75387D1*
X14205Y75146D1*
X14570Y75022D1*
X14811D1*
X15176Y75146D1*
X15418Y75387D1*
X15541Y75631D1*
Y75993D1*
X15418Y76238D1*
X15176Y76479D1*
X13840Y77264D2*
X15541D1*
X13840Y78538D2*
X15541D1*
X14651Y77264D2*
Y78538D1*
X13840Y79870D2*
X13921Y79688D1*
X14084Y79505D1*
X14244Y79412D1*
X14488Y79323D1*
X14893D1*
X15134Y79412D1*
X15297Y79505D1*
X15460Y79688D1*
X15541Y79870D1*
Y80232D1*
X15460Y80415D1*
X15297Y80597D1*
X15134Y80687D1*
X14893Y80777D1*
X14488D1*
X14244Y80687D1*
X14084Y80597D1*
X13921Y80415D1*
X13840Y80232D1*
Y79870D1*
Y81749D2*
X15541D1*
X13840Y82648D2*
X15541D1*
X13840Y81749D2*
Y82648D1*
X15541Y81561D2*
Y82836D1*
Y81561D2*
X15710D1*
X15541Y82836D2*
X15710D1*
X14651Y83620D2*
Y84440D1*
X14730Y84712D1*
X14814Y84805D1*
X14974Y84895D1*
X15218D1*
X15378Y84805D1*
X15460Y84712D1*
X15541Y84440D1*
Y83620D1*
X13840D1*
X15541Y85364D2*
X13840D1*
X14267Y88617D2*
Y90021D1*
Y90805D2*
Y92209D1*
Y92993D2*
Y94397D1*
Y95182D2*
Y96585D1*
X13173Y97370D2*
X14268Y99313D1*
X15360Y97370D1*
X13173Y100097D2*
X14268Y102040D1*
X15360Y100097D1*
X12992Y105537D2*
Y106871D1*
X13963Y106144D1*
Y106509D1*
X14084Y106750D1*
X14205Y106871D1*
X14570Y106995D1*
X14811D1*
X15176Y106871D1*
X15420Y106630D1*
X15541Y106265D1*
Y105900D1*
X15420Y105537D1*
X15297Y105417D1*
X15055Y105293D1*
X13598Y107902D2*
X13478D1*
X13233Y108023D1*
X13113Y108144D1*
X12992Y108388D1*
Y108874D1*
X13113Y109115D1*
X13233Y109236D1*
X13478Y109360D1*
X13719D1*
X13963Y109236D1*
X14325Y108995D1*
X15541Y107779D1*
Y109480D1*
X53902Y12505D2*
X55236D1*
X54509Y11533D1*
X54874D1*
X55115Y11412D1*
X55236Y11292D1*
X55359Y10927D1*
Y10685D1*
X55236Y10320D1*
X54994Y10076D1*
X54629Y9955D1*
X54264D1*
X53902Y10076D1*
X53782Y10200D1*
X53658Y10441D1*
X56267Y11898D2*
Y12019D1*
X56388Y12263D1*
X56509Y12384D1*
X56753Y12505D1*
X57239D1*
X57480Y12384D1*
X57601Y12263D1*
X57724Y12019D1*
Y11777D1*
X57601Y11533D1*
X57359Y11171D1*
X56144Y9955D1*
X57845D1*
X63041Y12324D2*
X61098Y11229D1*
X63041Y10136D1*
X65769Y12324D2*
X63826Y11229D1*
X65769Y10136D1*
X66553Y11230D2*
X67957D1*
X68741D2*
X70145D1*
X70929D2*
X72333D1*
X75586Y11657D2*
Y9955D1*
X76861Y11657D2*
X75586Y10522D1*
X76041Y10930D2*
X76861Y9955D1*
X79103Y11657D2*
Y9955D1*
Y11292D2*
X78861Y11536D1*
X78617Y11657D1*
X78255D1*
X78010Y11536D1*
X77769Y11292D1*
X77645Y10927D1*
Y10685D1*
X77769Y10320D1*
X78010Y10079D1*
X78255Y9955D1*
X78617D1*
X78861Y10079D1*
X79103Y10320D1*
X80524Y11657D2*
Y9955D1*
X79887Y11657D2*
X81162D1*
X82493D2*
X82311Y11575D1*
X82128Y11412D1*
X82036Y11252D1*
X81946Y11008D1*
Y10604D1*
X82036Y10362D1*
X82128Y10200D1*
X82311Y10037D1*
X82493Y9955D1*
X82856D1*
X83038Y10037D1*
X83221Y10200D1*
X83310Y10362D1*
X83400Y10604D1*
Y11008D1*
X83310Y11252D1*
X83221Y11412D1*
X83038Y11575D1*
X82856Y11657D1*
X82493D1*
X84373D2*
Y9955D1*
X85271Y11657D2*
Y9955D1*
X84373Y11657D2*
X85271D1*
X84185Y9955D2*
X85459D1*
X84185D2*
Y9787D1*
X85459Y9955D2*
Y9787D1*
X86244Y10845D2*
X87063D1*
X87336Y10767D1*
X87428Y10682D1*
X87518Y10522D1*
Y10278D1*
X87428Y10118D1*
X87336Y10037D1*
X87063Y9955D1*
X86244D1*
Y11657D1*
X87987Y9955D2*
Y11657D1*
X91240Y11230D2*
X92644D1*
X93429D2*
X94832D1*
X95617D2*
X97021D1*
X97805D2*
X99209D1*
X99993Y12324D2*
X101936Y11229D1*
X99993Y10136D1*
X102720Y12324D2*
X104663Y11229D1*
X102720Y10136D1*
X107916Y12019D2*
X108161Y12142D1*
X108526Y12505D1*
Y9955D1*
X7330Y33774D2*
D101*
Y33859D1*
X7415Y34030D1*
X7499Y34114D1*
X7670Y34199D1*
X8010D1*
X8179Y34114D1*
X8264Y34030D1*
X8350Y33859D1*
Y33690D1*
X8264Y33519D1*
X8095Y33265D1*
X7244Y32414D1*
X8435D1*
X9495Y34199D2*
X9239Y34114D1*
X9068Y33859D1*
X8984Y33434D1*
Y33179D1*
X9068Y32754D1*
X9239Y32498D1*
X9495Y32414D1*
X9664D1*
X9919Y32498D1*
X10088Y32754D1*
X10175Y33179D1*
Y33434D1*
X10088Y33859D1*
X9919Y34114D1*
X9664Y34199D1*
X9495D1*
X10088Y33859D2*
X9068Y32754D1*
X11235Y34199D2*
X10979Y34114D1*
X10808Y33859D1*
X10724Y33434D1*
Y33179D1*
X10808Y32754D1*
X10979Y32498D1*
X11235Y32414D1*
X11404D1*
X11659Y32498D1*
X11828Y32754D1*
X11915Y33179D1*
Y33434D1*
X11828Y33859D1*
X11659Y34114D1*
X11404Y34199D1*
X11235D1*
X11828Y33859D2*
X10808Y32754D1*
X12464Y33605D2*
X12975Y32414D1*
X13484Y33605D1*
X139604Y90755D2*
D102*
X139531Y90900D1*
X139385Y91047D1*
X139240Y91119D1*
X138948D1*
X138802Y91047D1*
X138657Y90900D1*
X138583Y90755D1*
X138510Y90536D1*
Y90171D1*
X138583Y89953D1*
X138657Y89807D1*
X138802Y89662D1*
X138948Y89588D1*
X139240D1*
X139385Y89662D1*
X139531Y89807D1*
X139604Y89953D1*
Y90171D1*
X139240D1*
X141095Y91119D2*
Y89588D1*
X140074Y91119D1*
Y89588D1*
X141566Y91119D2*
Y89588D1*
X142076D1*
X142295Y89662D1*
X142442Y89807D1*
X142514Y89953D1*
X142587Y90171D1*
Y90536D1*
X142514Y90755D1*
X142442Y90900D1*
X142295Y91047D1*
X142076Y91119D1*
X141566D1*
X140629Y92128D2*
Y93659D1*
X140046Y92128D1*
X139463Y93659D1*
Y92128D1*
X141099Y92930D2*
X141755D1*
X141974Y93004D1*
X142048Y93076D1*
X142120Y93221D1*
Y93368D1*
X142048Y93513D1*
X141974Y93587D1*
X141755Y93659D1*
X141099D1*
Y92128D1*
X141610Y92930D2*
X142120Y92128D1*
X139463Y94058D2*
X142591D1*
X135721Y95980D2*
X135576Y96127D1*
X135357Y96199D1*
X135066D1*
X134847Y96127D1*
X134700Y95980D1*
Y95835D1*
X134774Y95689D1*
X134847Y95616D1*
X134992Y95544D1*
X135430Y95397D1*
X135576Y95325D1*
X135649Y95251D1*
X135721Y95106D1*
Y94887D1*
X135576Y94742D1*
X135357Y94668D1*
X135066D1*
X134847Y94742D1*
X134700Y94887D1*
X136192Y95470D2*
X136847D1*
X137066Y95544D1*
X137140Y95616D1*
X137213Y95761D1*
Y95908D1*
X137140Y96053D1*
X137066Y96127D1*
X136847Y96199D1*
X136192D1*
Y94668D1*
X136702Y95470D2*
X137213Y94668D1*
X138777Y95835D2*
X138704Y95980D1*
X138558Y96127D1*
X138413Y96199D1*
X138121D1*
X137975Y96127D1*
X137830Y95980D1*
X137756Y95835D1*
X137683Y95616D1*
Y95251D1*
X137756Y95033D1*
X137830Y94887D1*
X137975Y94742D1*
X138121Y94668D1*
X138413D1*
X138558Y94742D1*
X138704Y94887D1*
X138777Y95033D1*
X139247Y96199D2*
Y94668D1*
X140121D1*
X140592Y96199D2*
Y94668D1*
X141613Y96199D2*
X140592Y95178D1*
X140956Y95544D2*
X141613Y94668D1*
X134700Y98580D2*
Y97049D1*
X135575D1*
X137213D2*
X136628Y98580D1*
X136045Y97049D1*
X136264Y97560D2*
X136994D1*
X138194Y98580D2*
Y97049D1*
X137683Y98580D2*
X138704D1*
X140268Y98217D2*
X140196Y98361D1*
X140049Y98508D1*
X139904Y98580D1*
X139613D1*
X139466Y98508D1*
X139321Y98361D1*
X139247Y98217D1*
X139175Y97998D1*
Y97632D1*
X139247Y97415D1*
X139321Y97268D1*
X139466Y97123D1*
X139613Y97049D1*
X139904D1*
X140049Y97123D1*
X140196Y97268D1*
X140268Y97415D1*
X140739Y98580D2*
Y97049D1*
X141760Y98580D2*
Y97049D1*
X140739Y97851D2*
X141760D1*
X138790Y101120D2*
X138643Y101048D1*
X138498Y100901D1*
X138424Y100757D1*
X138352Y100538D1*
Y100172D1*
X138424Y99955D1*
X138498Y99808D1*
X138643Y99663D1*
X138790Y99589D1*
X139081D1*
X139226Y99663D1*
X139372Y99808D1*
X139445Y99955D1*
X139517Y100172D1*
Y100538D1*
X139445Y100757D1*
X139372Y100901D1*
X139226Y101048D1*
X139081Y101120D1*
X138790D1*
X140935D2*
X139988D1*
Y99589D1*
X140935D1*
X139988Y100391D2*
X140571D1*
X138352Y101520D2*
X141405D1*
X135177Y103819D2*
Y102288D1*
X135687D1*
X135906Y102362D1*
X136053Y102507D1*
X136125Y102653D1*
X136197Y102871D1*
Y103236D1*
X136125Y103455D1*
X136053Y103600D1*
X135906Y103747D1*
X135687Y103819D1*
X135177D1*
X137689Y103600D2*
X137544Y103747D1*
X137325Y103819D1*
X137034D1*
X136815Y103747D1*
X136668Y103600D1*
Y103455D1*
X136742Y103309D1*
X136815Y103236D1*
X136959Y103164D1*
X137397Y103017D1*
X137544Y102945D1*
X137616Y102871D1*
X137689Y102726D1*
Y102507D1*
X137544Y102362D1*
X137325Y102288D1*
X137034D1*
X136815Y102362D1*
X136668Y102507D1*
X138160Y102288D2*
X139180Y103817D1*
X139651Y103819D2*
Y102288D1*
X140161D1*
X140380Y102362D1*
X140527Y102507D1*
X140599Y102653D1*
X140672Y102871D1*
Y103236D1*
X140599Y103455D1*
X140527Y103600D1*
X140380Y103747D1*
X140161Y103819D1*
X139651D1*
X141580D2*
X141434Y103747D1*
X141289Y103600D1*
X141215Y103455D1*
X141142Y103236D1*
Y102871D1*
X141215Y102653D1*
X141289Y102507D1*
X141434Y102362D1*
X141580Y102288D1*
X141872D1*
X142017Y102362D1*
X142163Y102507D1*
X142236Y102653D1*
X142308Y102871D1*
Y103236D1*
X142236Y103455D1*
X142163Y103600D1*
X142017Y103747D1*
X141872Y103819D1*
X141580D1*
X140813Y106199D2*
X140086D1*
X140013Y105543D1*
X140086Y105616D1*
X140305Y105690D1*
X140522D1*
X140741Y105616D1*
X140888Y105471D1*
X140960Y105252D1*
Y105107D1*
X140888Y104888D1*
X140741Y104742D1*
X140522Y104669D1*
X140305D1*
X140086Y104742D1*
X140013Y104816D1*
X139939Y104961D1*
X141431Y106200D2*
X142013Y104669D1*
X142596Y106200D1*
X141423Y30089D2*
D103*
X141374Y30185D1*
X141277Y30283D1*
X141180Y30331D1*
X140986D1*
X140888Y30283D1*
X140791Y30185D1*
X140742Y30089D1*
X140694Y29943D1*
Y29699D1*
X140742Y29554D1*
X140791Y29457D1*
X140888Y29360D1*
X140986Y29311D1*
X141180D1*
X141277Y29360D1*
X141374Y29457D1*
X141423Y29554D1*
Y29699D1*
X141180D1*
X142417Y30331D2*
Y29311D1*
X141736Y30331D1*
Y29311D1*
X142731Y30331D2*
Y29311D1*
X143071D1*
X143217Y29360D1*
X143315Y29457D1*
X143363Y29554D1*
X143411Y29699D1*
Y29943D1*
X143363Y30089D1*
X143315Y30185D1*
X143217Y30283D1*
X143071Y30331D1*
X142731D1*
X142002Y31509D2*
D100*
Y32785D1*
X141516Y31509D1*
X141031Y32785D1*
Y31509D1*
X142394Y32177D2*
X142940D1*
X143123Y32239D1*
X143185Y32300D1*
X143245Y32420D1*
Y32542D1*
X143185Y32663D1*
X143123Y32725D1*
X142940Y32785D1*
X142394D1*
Y31509D1*
X142820Y32177D2*
X143245Y31509D1*
X141031Y33118D2*
X143637D1*
X136832Y35179D2*
D102*
X136688Y35325D1*
X136469Y35398D1*
X136177D1*
X135958Y35325D1*
X135812Y35179D1*
Y35034D1*
X135886Y34887D1*
X135958Y34815D1*
X136103Y34743D1*
X136541Y34596D1*
X136688Y34524D1*
X136760Y34449D1*
X136832Y34305D1*
Y34086D1*
X136688Y33941D1*
X136469Y33867D1*
X136177D1*
X135958Y33941D1*
X135812Y34086D1*
X137303Y34668D2*
X137958D1*
X138177Y34743D1*
X138251Y34815D1*
X138324Y34960D1*
Y35106D1*
X138251Y35251D1*
X138177Y35325D1*
X137958Y35398D1*
X137303D1*
Y33867D1*
X137813Y34668D2*
X138324Y33867D1*
X139888Y35034D2*
X139815Y35179D1*
X139669Y35325D1*
X139524Y35398D1*
X139233D1*
X139086Y35325D1*
X138941Y35179D1*
X138867Y35034D1*
X138795Y34815D1*
Y34449D1*
X138867Y34232D1*
X138941Y34086D1*
X139086Y33941D1*
X139233Y33867D1*
X139524D1*
X139669Y33941D1*
X139815Y34086D1*
X139888Y34232D1*
X140358Y35398D2*
Y33867D1*
X141233D1*
X141703Y35398D2*
Y33867D1*
X142724Y35398D2*
X141703Y34377D1*
X142067Y34743D2*
X142724Y33867D1*
X135812Y37779D2*
Y36248D1*
X136686D1*
X138324D2*
X137739Y37779D1*
X137156Y36248D1*
X137375Y36758D2*
X138105D1*
X139305Y37779D2*
Y36248D1*
X138795Y37779D2*
X139815D1*
X141379Y37415D2*
X141307Y37560D1*
X141160Y37707D1*
X141015Y37779D1*
X140724D1*
X140577Y37707D1*
X140433Y37560D1*
X140358Y37415D1*
X140286Y37196D1*
Y36831D1*
X140358Y36613D1*
X140433Y36467D1*
X140577Y36322D1*
X140724Y36248D1*
X141015D1*
X141160Y36322D1*
X141307Y36467D1*
X141379Y36613D1*
X141850Y37779D2*
Y36248D1*
X142871Y37779D2*
Y36248D1*
X141850Y37050D2*
X142871D1*
X139901Y40319D2*
X139754Y40247D1*
X139609Y40100D1*
X139535Y39955D1*
X139463Y39736D1*
Y39371D1*
X139535Y39153D1*
X139609Y39007D1*
X139754Y38862D1*
X139901Y38788D1*
X140192D1*
X140337Y38862D1*
X140484Y39007D1*
X140556Y39153D1*
X140629Y39371D1*
Y39736D1*
X140556Y39955D1*
X140484Y40100D1*
X140337Y40247D1*
X140192Y40319D1*
X139901D1*
X142046D2*
X141099D1*
Y38788D1*
X142046D1*
X141099Y39590D2*
X141682D1*
X139463Y40718D2*
X142517D1*
X136288Y43018D2*
Y41487D1*
X136798D1*
X137017Y41561D1*
X137164Y41706D1*
X137236Y41852D1*
X137309Y42069D1*
Y42435D1*
X137236Y42654D1*
X137164Y42799D1*
X137017Y42945D1*
X136798Y43018D1*
X136288D1*
X138800Y42799D2*
X138655Y42945D1*
X138436Y43018D1*
X138145D1*
X137926Y42945D1*
X137779Y42799D1*
Y42654D1*
X137853Y42507D1*
X137926Y42435D1*
X138071Y42363D1*
X138509Y42216D1*
X138655Y42144D1*
X138728Y42069D1*
X138800Y41925D1*
Y41706D1*
X138655Y41561D1*
X138436Y41487D1*
X138145D1*
X137926Y41561D1*
X137779Y41706D1*
X139271Y41487D2*
X140292Y43016D1*
X140762Y43018D2*
Y41487D1*
X141273D1*
X141492Y41561D1*
X141638Y41706D1*
X141711Y41852D1*
X141783Y42069D1*
Y42435D1*
X141711Y42654D1*
X141638Y42799D1*
X141492Y42945D1*
X141273Y43018D1*
X140762D1*
X142692D2*
X142545Y42945D1*
X142400Y42799D1*
X142326Y42654D1*
X142254Y42435D1*
Y42069D1*
X142326Y41852D1*
X142400Y41706D1*
X142545Y41561D1*
X142692Y41487D1*
X142983D1*
X143128Y41561D1*
X143275Y41706D1*
X143347Y41852D1*
X143419Y42069D1*
Y42435D1*
X143347Y42654D1*
X143275Y42799D1*
X143128Y42945D1*
X142983Y43018D1*
X142692D1*
X141448Y45715D2*
X140721D1*
X140648Y45060D1*
X140721Y45132D1*
X140940Y45206D1*
X141157D1*
X141376Y45132D1*
X141523Y44987D1*
X141595Y44768D1*
Y44623D1*
X141523Y44404D1*
X141376Y44258D1*
X141157Y44185D1*
X140940D1*
X140721Y44258D1*
X140648Y44332D1*
X140574Y44477D1*
X142066Y45717D2*
X142648Y44185D1*
X143231Y45717D1*
X33454Y71389D2*
D103*
X33891D1*
X34037Y71438D1*
X34086Y71487D1*
X34134Y71583D1*
Y71681D1*
X34086Y71777D1*
X34037Y71827D1*
X33891Y71875D1*
X33454D1*
Y70854D1*
X33794Y71389D2*
X34134Y70854D1*
X34448Y71680D2*
X34546Y71729D1*
X34692Y71874D1*
Y70854D1*
X144829Y16059D2*
D101*
X146616D1*
X144829Y17250D2*
X146020Y16059D1*
X145594Y16483D2*
X146616Y17250D1*
X145425Y18819D2*
X146616D1*
X145680D2*
X145509Y18650D1*
X145425Y18479D1*
Y18225D1*
X145509Y18054D1*
X145680Y17885D1*
X145936Y17799D1*
X146105D1*
X146360Y17885D1*
X146529Y18054D1*
X146616Y18225D1*
Y18479D1*
X146529Y18650D1*
X146360Y18819D1*
X145425Y19814D2*
X146616D1*
X145425Y19368D2*
Y20260D1*
X146445Y20894D2*
X146531Y20809D1*
X146616Y20894D1*
X146531Y20980D1*
X146445Y20894D1*
X144829Y21529D2*
X146616D1*
Y22295D1*
X146529Y22551D1*
X146445Y22636D1*
X146276Y22720D1*
X146020D1*
X145849Y22636D1*
X145765Y22551D1*
X145680Y22295D1*
X145594Y22551D1*
X145509Y22636D1*
X145340Y22720D1*
X145169D1*
X145000Y22636D1*
X144914Y22551D1*
X144829Y22295D1*
Y21529D1*
X145680D2*
Y22295D1*
X146616Y24289D2*
X145425Y23269D1*
Y24289D2*
X146616Y23269D1*
X146445Y24923D2*
X146531Y24838D1*
X146616Y24923D1*
X146531Y25009D1*
X146445Y24923D1*
X145822Y79651D2*
X144035Y78969D1*
X145822Y78289D1*
X145226Y78544D2*
Y79395D1*
X144631Y80200D2*
X145822D1*
X144631Y81092D2*
X145822D1*
X145199Y80200D2*
Y81092D1*
X145651Y81725D2*
X145737Y81641D1*
X145822Y81725D1*
X145737Y81812D1*
X145651Y81725D1*
X144035Y82361D2*
X145822D1*
Y83127D1*
X145735Y83383D1*
X145651Y83467D1*
X145482Y83552D1*
X145226D1*
X145055Y83467D1*
X144971Y83383D1*
X144886Y83127D1*
X144800Y83383D1*
X144715Y83467D1*
X144546Y83552D1*
X144375D1*
X144206Y83467D1*
X144120Y83383D1*
X144035Y83127D1*
Y82361D1*
X144886D2*
Y83127D1*
X145822Y85121D2*
X144631Y84101D1*
Y85121D2*
X145822Y84101D1*
X145651Y85754D2*
X145737Y85670D1*
X145822Y85754D1*
X145737Y85841D1*
X145651Y85754D1*
X148362Y79651D2*
X146575Y78969D1*
X148362Y78289D1*
X147766Y78544D2*
Y79395D1*
X147171Y80200D2*
X148362D1*
X147171Y81092D2*
X148362D1*
X147739Y80200D2*
Y81092D1*
X148191Y81725D2*
X148277Y81641D1*
X148362Y81725D1*
X148277Y81812D1*
X148191Y81725D1*
X146575Y82361D2*
X148362D1*
Y83127D1*
X148275Y83383D1*
X148191Y83467D1*
X148022Y83552D1*
X147766D1*
X147595Y83467D1*
X147511Y83383D1*
X147426Y83127D1*
X147340Y83383D1*
X147255Y83467D1*
X147086Y83552D1*
X146915D1*
X146746Y83467D1*
X146660Y83383D1*
X146575Y83127D1*
Y82361D1*
X147426D2*
Y83127D1*
X147739Y84101D2*
Y84675D1*
X147794Y84866D1*
X147853Y84930D1*
X147965Y84993D1*
X148136D1*
X148248Y84930D1*
X148305Y84866D1*
X148362Y84675D1*
Y84101D1*
X147171D1*
X148362Y85321D2*
X147171D1*
X148362Y86891D2*
X147171Y85870D1*
Y86891D2*
X148362Y85870D1*
X148191Y87524D2*
X148277Y87440D1*
X148362Y87524D1*
X148277Y87611D1*
X148191Y87524D1*
X147528Y16059D2*
X149314D1*
X147528Y17250D2*
X148719Y16059D1*
X148292Y16483D2*
X149314Y17250D1*
X148123Y18819D2*
X149314D1*
X148379D2*
X148208Y18650D1*
X148123Y18479D1*
Y18225D1*
X148208Y18054D1*
X148379Y17885D1*
X148634Y17799D1*
X148803D1*
X149059Y17885D1*
X149228Y18054D1*
X149314Y18225D1*
Y18479D1*
X149228Y18650D1*
X149059Y18819D1*
X148123Y19814D2*
X149314D1*
X148123Y19368D2*
Y20260D1*
X149143Y20894D2*
X149230Y20809D1*
X149314Y20894D1*
X149230Y20980D1*
X149143Y20894D1*
X147528Y21529D2*
X149314D1*
Y22296D1*
X149228Y22551D1*
X149143Y22636D1*
X148974Y22720D1*
X148719D1*
X148548Y22636D1*
X148463Y22551D1*
X148379Y22296D1*
X148292Y22551D1*
X148208Y22636D1*
X148039Y22720D1*
X147868D1*
X147699Y22636D1*
X147612Y22551D1*
X147528Y22296D1*
Y21529D1*
X148379D2*
Y22296D1*
X148691Y23269D2*
Y23843D1*
X148746Y24034D1*
X148805Y24098D1*
X148917Y24161D1*
X149088D1*
X149200Y24098D1*
X149257Y24034D1*
X149314Y23843D1*
Y23269D1*
X148123D1*
X149314Y24490D2*
X148123D1*
X149314Y26059D2*
X148123Y25039D1*
Y26059D2*
X149314Y25039D1*
X149143Y26692D2*
X149230Y26608D1*
X149314Y26692D1*
X149230Y26779D1*
X149143Y26692D1*
X23118Y49505D2*
D100*
Y48229D1*
Y49322D2*
X23240Y49443D1*
X23360Y49505D1*
X23543D1*
X23665Y49443D1*
X23786Y49322D1*
X23848Y49140D1*
Y49018D1*
X23786Y48837D1*
X23665Y48715D1*
X23543Y48654D1*
X23360D1*
X23240Y48715D1*
X23118Y48837D1*
X24543Y49505D2*
X24422Y49445D1*
X24300Y49322D1*
X24240Y49140D1*
Y49019D1*
X24300Y48837D1*
X24422Y48716D1*
X24543Y48654D1*
X24725D1*
X24848Y48716D1*
X24968Y48837D1*
X25030Y49019D1*
Y49140D1*
X24968Y49322D1*
X24848Y49445D1*
X24725Y49505D1*
X24543D1*
X25422D2*
X25665Y48654D1*
X25908Y49505D1*
X26151Y48654D1*
X26394Y49505D1*
X26786Y49140D2*
X27514D1*
Y49262D1*
X27454Y49384D1*
X27394Y49445D1*
X27272Y49505D1*
X27089D1*
X26968Y49445D1*
X26846Y49322D1*
X26786Y49140D1*
Y49019D1*
X26846Y48837D1*
X26968Y48716D1*
X27089Y48654D1*
X27272D1*
X27394Y48716D1*
X27514Y48837D1*
X27907Y49505D2*
Y48654D1*
Y49140D2*
X27968Y49322D1*
X28089Y49445D1*
X28211Y49505D1*
X28394D1*
X28786Y49140D2*
X29515D1*
Y49262D1*
X29454Y49384D1*
X29394Y49445D1*
X29272Y49505D1*
X29089D1*
X28968Y49445D1*
X28846Y49322D1*
X28786Y49140D1*
Y49019D1*
X28846Y48837D1*
X28968Y48716D1*
X29089Y48654D1*
X29272D1*
X29394Y48716D1*
X29515Y48837D1*
X30635Y49930D2*
Y48654D1*
Y49322D2*
X30515Y49445D1*
X30392Y49505D1*
X30210D1*
X30089Y49445D1*
X29967Y49322D1*
X29907Y49140D1*
Y49019D1*
X29967Y48837D1*
X30089Y48716D1*
X30210Y48654D1*
X30392D1*
X30515Y48716D1*
X30635Y48837D1*
X32262Y49930D2*
Y48654D1*
Y49322D2*
X32384Y49445D1*
X32505Y49505D1*
X32687D1*
X32808Y49445D1*
X32930Y49322D1*
X32990Y49140D1*
Y49019D1*
X32930Y48837D1*
X32808Y48716D1*
X32687Y48654D1*
X32505D1*
X32384Y48716D1*
X32262Y48837D1*
X33444Y49505D2*
X33808Y48654D1*
X33687Y48411D1*
X33565Y48289D1*
X33444Y48229D1*
X33383D1*
X34173Y49505D2*
X33808Y48654D1*
X23990Y47571D2*
D104*
Y46016D1*
X23894Y45724D1*
X23795Y45628D1*
X23602Y45529D1*
X23406D1*
X23213Y45628D1*
X23116Y45724D1*
X23018Y46016D1*
Y46210D1*
X24618Y47571D2*
Y45529D1*
X25783D1*
X27869Y47086D2*
X27772Y47279D1*
X27577Y47474D1*
X27383Y47571D1*
X26995D1*
X26799Y47474D1*
X26606Y47279D1*
X26507Y47086D1*
X26411Y46794D1*
Y46306D1*
X26507Y46016D1*
X26606Y45821D1*
X26799Y45628D1*
X26995Y45529D1*
X27383D1*
X27577Y45628D1*
X27772Y45821D1*
X27869Y46016D1*
X28496Y46502D2*
X29372D1*
X29662Y46598D1*
X29761Y46697D1*
X29857Y46890D1*
Y47182D1*
X29761Y47375D1*
X29662Y47474D1*
X29372Y47571D1*
X28496D1*
Y45529D1*
X31942Y47086D2*
X31846Y47279D1*
X31650Y47474D1*
X31457Y47571D1*
X31069D1*
X30873Y47474D1*
X30680Y47279D1*
X30581Y47086D1*
X30485Y46794D1*
Y46306D1*
X30581Y46016D1*
X30680Y45821D1*
X30873Y45628D1*
X31069Y45529D1*
X31457D1*
X31650Y45628D1*
X31846Y45821D1*
X31942Y46016D1*
X32570Y47571D2*
Y45529D1*
X33446D1*
X33738Y45628D1*
X33834Y45724D1*
X33931Y45918D1*
Y46210D1*
X33834Y46405D1*
X33738Y46502D1*
X33446Y46598D1*
X33738Y46697D1*
X33834Y46794D1*
X33931Y46987D1*
Y47182D1*
X33834Y47375D1*
X33738Y47474D1*
X33446Y47571D1*
X32570D1*
Y46598D2*
X33446D1*
X26125Y44126D2*
D12*
Y43737D1*
X26101Y43664D1*
X26076Y43640D1*
X26028Y43615D1*
X25979D1*
X25930Y43640D1*
X25906Y43664D1*
X25882Y43737D1*
Y43786D1*
X26282Y44126D2*
Y43615D1*
X26573D1*
X27094Y44005D2*
X27070Y44053D1*
X27021Y44102D1*
X26973Y44126D1*
X26876D1*
X26827Y44102D1*
X26779Y44053D1*
X26754Y44005D1*
X26730Y43932D1*
Y43810D1*
X26754Y43737D1*
X26779Y43688D1*
X26827Y43640D1*
X26876Y43615D1*
X26973D1*
X27021Y43640D1*
X27070Y43688D1*
X27094Y43737D1*
X27494Y44126D2*
Y43737D1*
X27470Y43664D1*
X27445Y43640D1*
X27397Y43615D1*
X27348D1*
X27300Y43640D1*
X27276Y43664D1*
X27251Y43737D1*
Y43786D1*
X27651Y44126D2*
Y43615D1*
X27943D1*
X28464Y44005D2*
X28440Y44053D1*
X28391Y44102D1*
X28343Y44126D1*
X28245D1*
X28197Y44102D1*
X28148Y44053D1*
X28124Y44005D1*
X28099Y43932D1*
Y43810D1*
X28124Y43737D1*
X28148Y43688D1*
X28197Y43640D1*
X28245Y43615D1*
X28343D1*
X28391Y43640D1*
X28440Y43688D1*
X28464Y43737D1*
X28864Y44126D2*
Y43737D1*
X28840Y43664D1*
X28815Y43640D1*
X28767Y43615D1*
X28718D1*
X28670Y43640D1*
X28645Y43664D1*
X28621Y43737D1*
Y43786D1*
X29021Y44126D2*
Y43615D1*
X29312D1*
X29833Y44005D2*
X29809Y44053D1*
X29760Y44102D1*
X29712Y44126D1*
X29615D1*
X29566Y44102D1*
X29518Y44053D1*
X29493Y44005D1*
X29469Y43932D1*
Y43810D1*
X29493Y43737D1*
X29518Y43688D1*
X29566Y43640D1*
X29615Y43615D1*
X29712D1*
X29760Y43640D1*
X29809Y43688D1*
X29833Y43737D1*
X30233Y44126D2*
Y43737D1*
X30209Y43664D1*
X30185Y43640D1*
X30136Y43615D1*
X30087D1*
X30039Y43640D1*
X30015Y43664D1*
X29990Y43737D1*
Y43786D1*
X30390Y44126D2*
Y43615D1*
X30682D1*
X31203Y44005D2*
X31179Y44053D1*
X31130Y44102D1*
X31082Y44126D1*
X30985D1*
X30936Y44102D1*
X30888Y44053D1*
X30863Y44005D1*
X30839Y43932D1*
Y43810D1*
X30863Y43737D1*
X30888Y43688D1*
X30936Y43640D1*
X30985Y43615D1*
X31082D1*
X31130Y43640D1*
X31179Y43688D1*
X31203Y43737D1*
X72709Y113475D2*
D29*
Y110922D1*
X73560D1*
X73925Y111046D1*
X74169Y111287D1*
X74290Y111532D1*
X74411Y111894D1*
Y112503D1*
X74290Y112868D1*
X74169Y113110D1*
X73925Y113354D1*
X73560Y113475D1*
X72709D1*
X75195Y111894D2*
X76652D1*
Y112138D1*
X76531Y112382D1*
X76411Y112503D1*
X76166Y112624D1*
X75801D1*
X75560Y112503D1*
X75316Y112259D1*
X75195Y111894D1*
Y111652D1*
X75316Y111287D1*
X75560Y111046D1*
X75801Y110922D1*
X76166D1*
X76411Y111046D1*
X76652Y111287D1*
X77437Y113475D2*
Y110922D1*
X78652Y112624D2*
X77437Y111408D1*
X77922Y111894D2*
X78773Y110922D1*
X81014Y112624D2*
Y110922D1*
Y112259D2*
X80773Y112503D1*
X80529Y112624D1*
X80167D1*
X79922Y112503D1*
X79681Y112259D1*
X79557Y111894D1*
Y111652D1*
X79681Y111287D1*
X79922Y111046D1*
X80167Y110922D1*
X80529D1*
X80773Y111046D1*
X81014Y111287D1*
X82164Y113475D2*
Y111408D1*
X82285Y111046D1*
X82529Y110922D1*
X82770D1*
X81799Y112624D2*
X82650D1*
X83555D2*
Y110922D1*
Y111894D2*
X83678Y112259D1*
X83920Y112503D1*
X84164Y112624D1*
X84529D1*
X85920D2*
X85678Y112503D1*
X85434Y112259D1*
X85313Y111894D1*
Y111652D1*
X85434Y111287D1*
X85678Y111046D1*
X85920Y110922D1*
X86285D1*
X86529Y111046D1*
X86770Y111287D1*
X86894Y111652D1*
Y111894D1*
X86770Y112259D1*
X86529Y112503D1*
X86285Y112624D1*
X85920D1*
X87678D2*
Y110922D1*
Y112138D2*
X88043Y112503D1*
X88287Y112624D1*
X88650D1*
X88894Y112503D1*
X89015Y112138D1*
Y110922D1*
X89799Y112624D2*
Y110072D1*
Y112259D2*
X90043Y112500D1*
X90285Y112624D1*
X90650D1*
X90894Y112500D1*
X91135Y112259D1*
X91259Y111894D1*
Y111650D1*
X91135Y111287D1*
X90894Y111043D1*
X90650Y110922D1*
X90285D1*
X90043Y111043D1*
X89799Y111287D1*
X93503Y112259D2*
X93259Y112503D1*
X93015Y112624D1*
X92653D1*
X92408Y112503D1*
X92167Y112259D1*
X92043Y111894D1*
Y111652D1*
X92167Y111287D1*
X92408Y111046D1*
X92653Y110922D1*
X93015D1*
X93259Y111046D1*
X93503Y111287D1*
X94408Y111167D2*
X94288Y111043D1*
X94408Y110922D1*
X94532Y111043D1*
X94408Y111167D1*
X96776Y112259D2*
X96532Y112503D1*
X96288Y112624D1*
X95925D1*
X95681Y112503D1*
X95440Y112259D1*
X95316Y111894D1*
Y111652D1*
X95440Y111287D1*
X95681Y111046D1*
X95925Y110922D1*
X96288D1*
X96532Y111046D1*
X96776Y111287D1*
X98167Y112624D2*
X97926Y112503D1*
X97681Y112259D1*
X97561Y111894D1*
Y111652D1*
X97681Y111287D1*
X97926Y111046D1*
X98167Y110922D1*
X98532D1*
X98776Y111046D1*
X99018Y111287D1*
X99141Y111652D1*
Y111894D1*
X99018Y112259D1*
X98776Y112503D1*
X98532Y112624D1*
X98167D1*
X99926D2*
Y110922D1*
Y112138D2*
X100291Y112503D1*
X100535Y112624D1*
X100897D1*
X101141Y112503D1*
X101262Y112138D1*
Y110922D1*
Y112138D2*
X101627Y112503D1*
X101871Y112624D1*
X102233D1*
X102478Y112503D1*
X102601Y112138D1*
Y110922D1*
M02*
