G04 DipTrace 2.4.0.2*
%INTopMask.grb*%
%MOMM*%
%ADD28C,3.0*%
%ADD33R,2.0X2.0*%
%ADD47C,19.0*%
%ADD56R,2.9X1.8*%
%ADD58R,1.25X0.85*%
%ADD60R,0.8X0.8*%
%ADD62R,1.8X2.9*%
%ADD64R,0.85X1.25*%
%ADD66R,2.2X0.8*%
%ADD68R,0.8X2.2*%
%ADD70C,2.7*%
%ADD73C,2.0*%
%ADD75R,2.2X2.2*%
%ADD76C,1.724*%
%ADD78R,1.724X1.724*%
%ADD80R,0.8X1.3*%
%ADD82C,3.2*%
%ADD84C,1.7*%
%ADD86C,1.9*%
%ADD88R,1.9X1.9*%
%ADD90R,1.5X1.7*%
%ADD92R,0.5X1.8*%
%ADD94R,1.8X0.5*%
%ADD96R,2.4X2.8*%
%ADD98R,1.7X1.5*%
%FSLAX53Y53*%
G04*
G71*
G90*
G75*
G01*
%LNTopMask*%
%LPD*%
D98*
X135890Y133509D3*
Y131609D3*
X127000Y133509D3*
Y131609D3*
X122870Y133506D3*
Y131606D3*
D96*
X140058Y136167D3*
Y131167D3*
D98*
X124936Y133509D3*
Y131609D3*
X121297Y120344D3*
Y122244D3*
X139555Y118281D3*
Y120181D3*
X121297Y116693D3*
Y118593D3*
D94*
X125584Y124314D3*
Y123814D3*
Y123314D3*
Y122814D3*
Y122314D3*
Y121814D3*
Y121314D3*
Y120814D3*
Y120314D3*
Y119814D3*
Y119314D3*
Y118814D3*
D92*
X127034Y117364D3*
X127534D3*
X128034D3*
X128534D3*
X129034D3*
X129534D3*
X130034D3*
X130534D3*
X131034D3*
X131534D3*
X132034D3*
X132534D3*
D94*
X133984Y118814D3*
Y119314D3*
Y119814D3*
Y120314D3*
Y120814D3*
Y121314D3*
Y121814D3*
Y122314D3*
Y122814D3*
Y123314D3*
Y123814D3*
Y124314D3*
D92*
X132534Y125764D3*
X132034D3*
X131534D3*
X131034D3*
X130534D3*
X130034D3*
X129534D3*
X129034D3*
X128534D3*
X128034D3*
X127534D3*
X127034D3*
D98*
X131442Y133506D3*
Y131606D3*
D90*
X137491Y126695D3*
X139391D3*
D98*
X129222Y133509D3*
Y131609D3*
X133667Y133509D3*
Y131609D3*
X120650Y131604D3*
Y133504D3*
X119075Y118444D3*
Y120344D3*
D90*
X117170Y122249D3*
X119070D3*
D88*
X142413Y126695D3*
D86*
Y122195D3*
X148913D3*
Y126695D3*
D88*
X95091Y128270D3*
D86*
Y132770D3*
X88591D3*
Y128270D3*
D88*
X85725Y123825D3*
D86*
Y128325D3*
X79225D3*
Y123825D3*
D88*
X104299D3*
D86*
Y128325D3*
X97799D3*
Y123825D3*
D88*
X95091Y119062D3*
D86*
Y123562D3*
X88591D3*
Y119062D3*
D88*
X89217Y148431D3*
D86*
Y152931D3*
X82718D3*
Y148431D3*
D84*
X130969Y145574D3*
X128469D3*
X130969Y147574D3*
X128469D3*
D82*
X135745Y150225D3*
X123680D3*
D80*
X130651Y136525D3*
X131601D3*
X132551D3*
Y139225D3*
X131601D3*
X130651D3*
D78*
X96996Y149225D3*
D76*
X99536D3*
X102076D3*
X104616D3*
X107156D3*
X109696D3*
X112236D3*
Y151765D3*
X109696D3*
X107156D3*
X104616D3*
X102076D3*
X99536D3*
X96996D3*
D75*
X38735Y8255D3*
X41275D3*
X43815D3*
X46355D3*
X48895D3*
X51435D3*
X53975D3*
X56515D3*
X59055D3*
X61595D3*
X64135D3*
X66675D3*
X69215D3*
X71755D3*
X74295D3*
X76835D3*
X79375D3*
X81915D3*
X84455D3*
X86995D3*
X89535D3*
X92075D3*
X94615D3*
X97155D3*
X99695D3*
X102235D3*
X104775D3*
X107315D3*
X109855D3*
X112395D3*
X114935D3*
X117475D3*
D88*
X145732Y45244D3*
D86*
Y42704D3*
Y40164D3*
Y37624D3*
Y35084D3*
Y32544D3*
Y30004D3*
D88*
X148273Y45244D3*
D86*
Y42704D3*
Y40164D3*
Y37624D3*
Y35084D3*
Y32544D3*
Y30004D3*
D73*
X17463Y13970D3*
D33*
Y34290D3*
D70*
X8731Y28734D3*
Y25234D3*
D75*
X8890Y119380D3*
Y116840D3*
Y114300D3*
Y111760D3*
Y109220D3*
Y106680D3*
Y104140D3*
Y101600D3*
Y99060D3*
Y96520D3*
Y93980D3*
Y91440D3*
Y88900D3*
Y86360D3*
Y83820D3*
Y81280D3*
Y78740D3*
Y76200D3*
Y73660D3*
Y71120D3*
Y68580D3*
Y66040D3*
Y63500D3*
Y60960D3*
Y58420D3*
Y55880D3*
Y53340D3*
Y50800D3*
Y48260D3*
Y45720D3*
Y43180D3*
Y40640D3*
D88*
X144780Y105569D3*
D86*
Y103029D3*
Y100489D3*
Y97949D3*
Y95409D3*
Y92869D3*
Y90329D3*
D88*
X147320Y105568D3*
D86*
Y103028D3*
Y100488D3*
Y97948D3*
Y95408D3*
Y92868D3*
Y90328D3*
D90*
X91123Y38100D3*
X93023D3*
D68*
X37148Y29845D3*
X38417D3*
X39688D3*
X40958D3*
X42227D3*
X43498D3*
X44768D3*
X46038D3*
Y35245D3*
X44768D3*
X43498D3*
X42227D3*
X40958D3*
X39688D3*
X38417D3*
X37148D3*
D90*
X35242Y38100D3*
X37143D3*
D68*
X65088Y29845D3*
X66358D3*
X67628D3*
X68898D3*
X70168D3*
X71438D3*
X72708D3*
X73978D3*
Y35245D3*
X72708D3*
X71438D3*
X70168D3*
X68898D3*
X67628D3*
X66358D3*
X65088D3*
D90*
X119062Y38417D3*
X120963D3*
D68*
X93028Y29845D3*
X94298D3*
X95567D3*
X96838D3*
X98108D3*
X99378D3*
X100647D3*
X101918D3*
Y35245D3*
X100647D3*
X99378D3*
X98108D3*
X96838D3*
X95567D3*
X94298D3*
X93028D3*
D90*
X63183Y38100D3*
X65082D3*
D68*
X120968Y29845D3*
X122238D3*
X123508D3*
X124777D3*
X126048D3*
X127317D3*
X128588D3*
X129857D3*
Y35245D3*
X128588D3*
X127317D3*
X126048D3*
X124777D3*
X123508D3*
X122238D3*
X120968D3*
D98*
X68263Y104934D3*
Y106834D3*
D66*
X60168Y136047D3*
Y134778D3*
Y133508D3*
Y132237D3*
Y130968D3*
Y129697D3*
Y128428D3*
Y127158D3*
X65568D3*
Y128428D3*
Y129697D3*
Y130968D3*
Y132237D3*
Y133508D3*
Y134778D3*
Y136047D3*
D90*
X67628Y74136D3*
X65728D3*
D66*
X60168Y104615D3*
Y103345D3*
Y102075D3*
Y100805D3*
Y99535D3*
Y98265D3*
Y96995D3*
Y95725D3*
X65568D3*
Y96995D3*
Y98265D3*
Y99535D3*
Y100805D3*
Y102075D3*
Y103345D3*
Y104615D3*
D90*
X104294Y95885D3*
X102394D3*
D66*
X60325Y72390D3*
Y71120D3*
Y69850D3*
Y68580D3*
Y67310D3*
Y66040D3*
Y64770D3*
Y63500D3*
X65725D3*
Y64770D3*
Y66040D3*
Y67310D3*
Y68580D3*
Y69850D3*
Y71120D3*
Y72390D3*
D98*
X68104Y136049D3*
Y137949D3*
D68*
X104457Y88265D3*
X105728D3*
X106997D3*
X108267D3*
X109537D3*
X110808D3*
X112077D3*
X113347D3*
Y93665D3*
X112077D3*
X110808D3*
X109537D3*
X108267D3*
X106997D3*
X105728D3*
X104457D3*
D98*
X24447Y25082D3*
Y23183D3*
X23495Y13970D3*
Y15870D3*
D64*
X24447Y20637D3*
X22547D3*
X23497Y18338D3*
D98*
X27940Y25082D3*
Y23183D3*
X26988Y13970D3*
Y15870D3*
D64*
X27940Y20637D3*
X26040D3*
X26990Y18338D3*
D98*
X31750Y25082D3*
Y23183D3*
X30798Y13970D3*
Y15870D3*
D64*
X31750Y20637D3*
X29850D3*
X30800Y18338D3*
D98*
X35242Y25082D3*
Y23183D3*
X34290Y13970D3*
Y15870D3*
D64*
X35242Y20637D3*
X33342D3*
X34292Y18338D3*
D98*
X38735Y25082D3*
Y23183D3*
X37782Y13970D3*
Y15870D3*
D64*
X38735Y20637D3*
X36835D3*
X37785Y18338D3*
D98*
X42227Y25082D3*
Y23183D3*
X41275Y13970D3*
Y15870D3*
D64*
X42227Y20637D3*
X40327D3*
X41277Y18338D3*
D98*
X45720Y25082D3*
Y23183D3*
X44768Y13970D3*
Y15870D3*
D64*
X45720Y20637D3*
X43820D3*
X44770Y18338D3*
D98*
X49213Y25082D3*
Y23183D3*
X48260Y13970D3*
Y15870D3*
D64*
X49212Y20637D3*
X47312D3*
X48262Y18338D3*
D98*
X52705Y25082D3*
Y23183D3*
X51752Y13970D3*
Y15870D3*
D64*
X52705Y20637D3*
X50805D3*
X51755Y18338D3*
D98*
X56197Y25082D3*
Y23183D3*
X55245Y13970D3*
Y15870D3*
D64*
X56197Y20637D3*
X54297D3*
X55247Y18338D3*
D98*
X59690Y25082D3*
Y23183D3*
X58738Y13970D3*
Y15870D3*
D64*
X59690Y20637D3*
X57790D3*
X58740Y18338D3*
D98*
X63183Y25082D3*
Y23183D3*
X62230Y13970D3*
Y15870D3*
D64*
X63182Y20637D3*
X61282D3*
X62232Y18338D3*
D98*
X66675Y25082D3*
Y23183D3*
X65723Y13970D3*
Y15870D3*
D64*
X66675Y20637D3*
X64775D3*
X65725Y18338D3*
D98*
X70168Y25082D3*
Y23183D3*
X69215Y13970D3*
Y15870D3*
D64*
X70167Y20637D3*
X68267D3*
X69217Y18338D3*
D98*
X73660Y25082D3*
Y23183D3*
X72707Y13970D3*
Y15870D3*
D64*
X73660Y20637D3*
X71760D3*
X72710Y18338D3*
D98*
X77153Y25082D3*
Y23183D3*
X76200Y13970D3*
Y15870D3*
D64*
X77152Y20637D3*
X75252D3*
X76202Y18338D3*
D98*
X80645Y25082D3*
Y23183D3*
X79693Y13970D3*
Y15870D3*
D64*
X80645Y20637D3*
X78745D3*
X79695Y18338D3*
D98*
X84138Y25082D3*
Y23183D3*
X83185Y13970D3*
Y15870D3*
D64*
X84137Y20637D3*
X82237D3*
X83187Y18338D3*
D98*
X87630Y25082D3*
Y23183D3*
X86677Y13970D3*
Y15870D3*
D64*
X87630Y20637D3*
X85730D3*
X86680Y18338D3*
D98*
X91123Y25082D3*
Y23183D3*
X90170Y13970D3*
Y15870D3*
D64*
X91122Y20637D3*
X89222D3*
X90172Y18338D3*
D98*
X94615Y25082D3*
Y23183D3*
X93663Y13970D3*
Y15870D3*
D64*
X94615Y20637D3*
X92715D3*
X93665Y18338D3*
D98*
X98108Y25082D3*
Y23183D3*
X97155Y13970D3*
Y15870D3*
D64*
X98107Y20637D3*
X96207D3*
X97157Y18338D3*
D98*
X101600Y25082D3*
Y23183D3*
X100647Y13970D3*
Y15870D3*
D64*
X101600Y20637D3*
X99700D3*
X100650Y18338D3*
D98*
X105093Y25082D3*
Y23183D3*
X104140Y13970D3*
Y15870D3*
D64*
X105092Y20637D3*
X103192D3*
X104142Y18338D3*
D98*
X108585Y25082D3*
Y23183D3*
X107633Y13975D3*
Y15875D3*
D64*
X108585Y20637D3*
X106685D3*
X107635Y18338D3*
D98*
X112078Y25082D3*
Y23183D3*
X111125Y13970D3*
Y15870D3*
D64*
X112077Y20637D3*
X110177D3*
X111127Y18338D3*
D98*
X115570Y25082D3*
Y23183D3*
X114618Y13970D3*
Y15870D3*
D64*
X115570Y20637D3*
X113670D3*
X114620Y18338D3*
D98*
X119062Y25082D3*
Y23183D3*
X118110Y13970D3*
Y15870D3*
D64*
X119062Y20637D3*
X117162D3*
X118112Y18338D3*
D98*
X122555Y25082D3*
Y23183D3*
X121603Y13970D3*
Y15870D3*
D64*
X122555Y20637D3*
X120655D3*
X121605Y18338D3*
D98*
X126048Y25082D3*
Y23183D3*
X125095Y13970D3*
Y15870D3*
D64*
X126047Y20637D3*
X124147D3*
X125097Y18338D3*
D98*
X129509Y25103D3*
Y23203D3*
X128587Y13970D3*
Y15870D3*
D64*
X129540Y20637D3*
X127640D3*
X128590Y18338D3*
D98*
X133032Y25082D3*
Y23183D3*
X132080Y13970D3*
Y15870D3*
D64*
X133032Y20637D3*
X131132D3*
X132083Y18338D3*
D98*
X31910Y147800D3*
Y149700D3*
D62*
X29052Y148748D3*
X26252D3*
D98*
X41117Y147795D3*
Y149695D3*
X54135Y149700D3*
Y147800D3*
D62*
X35720Y148748D3*
X38520D3*
D60*
X33963Y147648D3*
Y149847D3*
X48102Y147795D3*
Y149995D3*
D58*
X45880Y147795D3*
Y149695D3*
X43580Y148745D3*
X52230Y147795D3*
Y149695D3*
X49930Y148745D3*
D98*
X31910Y143668D3*
Y145568D3*
D62*
X29052Y144615D3*
X26252D3*
D98*
X41117Y143662D3*
Y145562D3*
X54135Y145568D3*
Y143667D3*
D62*
X35720Y144615D3*
X38520D3*
D60*
X33963Y143515D3*
Y145715D3*
X48102Y143662D3*
Y145862D3*
D58*
X45880Y143662D3*
Y145563D3*
X43580Y144613D3*
X52230Y143662D3*
Y145563D3*
X49930Y144613D3*
D98*
X31910Y139540D3*
Y141440D3*
D62*
X29052Y140487D3*
X26252D3*
D98*
X41117Y139535D3*
Y141435D3*
X54135Y141440D3*
Y139540D3*
D62*
X35720Y140487D3*
X38520D3*
D60*
X33963Y139388D3*
Y141588D3*
X48102Y139535D3*
Y141735D3*
D58*
X45880Y139535D3*
Y141435D3*
X43580Y140485D3*
X52230Y139535D3*
Y141435D3*
X49930Y140485D3*
D98*
X31910Y135412D3*
Y137312D3*
D62*
X29052Y136360D3*
X26252D3*
D98*
X41117Y135407D3*
Y137308D3*
X54135Y137312D3*
Y135412D3*
D62*
X35720Y136360D3*
X38520D3*
D60*
X33963Y135260D3*
Y137460D3*
X48102Y135407D3*
Y137607D3*
D58*
X45880Y135407D3*
Y137308D3*
X43580Y136357D3*
X52230Y135407D3*
Y137308D3*
X49930Y136357D3*
D98*
X31910Y131285D3*
Y133185D3*
D62*
X29052Y132232D3*
X26252D3*
D98*
X41117Y131280D3*
Y133180D3*
X54135Y133185D3*
Y131285D3*
D62*
X35720Y132232D3*
X38520D3*
D60*
X33963Y131133D3*
Y133333D3*
X48102Y131280D3*
Y133480D3*
D58*
X45880Y131280D3*
Y133180D3*
X43580Y132230D3*
X52230Y131280D3*
Y133180D3*
X49930Y132230D3*
D98*
X31910Y127157D3*
Y129058D3*
D62*
X29052Y128105D3*
X26252D3*
D98*
X41117Y127152D3*
Y129053D3*
X54135Y129058D3*
Y127157D3*
D62*
X35720Y128105D3*
X38520D3*
D60*
X33963Y127005D3*
Y129205D3*
X48102Y127153D3*
Y129352D3*
D58*
X45880Y127152D3*
Y129053D3*
X43580Y128102D3*
X52230Y127152D3*
Y129053D3*
X49930Y128102D3*
D98*
X31910Y123030D3*
Y124930D3*
D62*
X29052Y123978D3*
X26252D3*
D98*
X41117Y123025D3*
Y124925D3*
X54135Y124930D3*
Y123030D3*
D62*
X35720Y123978D3*
X38520D3*
D60*
X33963Y122878D3*
Y125078D3*
X48102Y123025D3*
Y125225D3*
D58*
X45880Y123025D3*
Y124925D3*
X43580Y123975D3*
X52230Y123025D3*
Y124925D3*
X49930Y123975D3*
D98*
X31910Y118907D3*
Y120808D3*
D62*
X29052Y119855D3*
X26252D3*
D98*
X41117Y118902D3*
Y120803D3*
X54135Y120808D3*
Y118907D3*
D62*
X35720Y119855D3*
X38520D3*
D60*
X33963Y118755D3*
Y120955D3*
X48102Y118903D3*
Y121103D3*
D58*
X45880Y118902D3*
Y120803D3*
X43580Y119853D3*
X52230Y118902D3*
Y120803D3*
X49930Y119853D3*
D98*
X31910Y114770D3*
Y116670D3*
D62*
X29052Y115718D3*
X26252D3*
D98*
X41117Y114765D3*
Y116665D3*
X54135Y116670D3*
Y114770D3*
D62*
X35720Y115718D3*
X38520D3*
D60*
X33963Y114618D3*
Y116817D3*
X48102Y114765D3*
Y116965D3*
D58*
X45880Y114765D3*
Y116665D3*
X43580Y115715D3*
X52230Y114765D3*
Y116665D3*
X49930Y115715D3*
D98*
X31910Y110647D3*
Y112548D3*
D62*
X29052Y111595D3*
X26252D3*
D98*
X41117Y110642D3*
Y112543D3*
X54135Y112548D3*
Y110647D3*
D62*
X35720Y111595D3*
X38520D3*
D60*
X33963Y110495D3*
Y112695D3*
X48102Y110642D3*
Y112842D3*
D58*
X45880Y110642D3*
Y112543D3*
X43580Y111593D3*
X52230Y110642D3*
Y112543D3*
X49930Y111593D3*
D98*
X31910Y106520D3*
Y108420D3*
D62*
X29052Y107468D3*
X26252D3*
D98*
X41117Y106515D3*
Y108415D3*
X54135Y108420D3*
Y106520D3*
D62*
X35720Y107468D3*
X38520D3*
D60*
X33963Y106368D3*
Y108567D3*
X48102Y106515D3*
Y108715D3*
D58*
X45880Y106515D3*
Y108415D3*
X43580Y107465D3*
X52230Y106515D3*
Y108415D3*
X49930Y107465D3*
D98*
X31910Y102397D3*
Y104298D3*
D62*
X29052Y103345D3*
X26252D3*
D98*
X41117Y102392D3*
Y104293D3*
X54135Y104298D3*
Y102397D3*
D62*
X35720Y103345D3*
X38520D3*
D60*
X33963Y102245D3*
Y104445D3*
X48102Y102392D3*
Y104592D3*
D58*
X45880Y102392D3*
Y104293D3*
X43580Y103343D3*
X52230Y102392D3*
Y104293D3*
X49930Y103343D3*
D98*
X31910Y98270D3*
Y100170D3*
D62*
X29052Y99218D3*
X26252D3*
D98*
X41117Y98265D3*
Y100165D3*
X54135Y100170D3*
Y98270D3*
D62*
X35720Y99218D3*
X38520D3*
D60*
X33963Y98118D3*
Y100317D3*
X48102Y98265D3*
Y100465D3*
D58*
X45880Y98265D3*
Y100165D3*
X43580Y99215D3*
X52230Y98265D3*
Y100165D3*
X49930Y99215D3*
D98*
X31910Y94147D3*
Y96048D3*
D62*
X29052Y95095D3*
X26252D3*
D98*
X41117Y94142D3*
Y96043D3*
X54135Y96048D3*
Y94147D3*
D62*
X35720Y95095D3*
X38520D3*
D60*
X33963Y93995D3*
Y96195D3*
X48102Y94142D3*
Y96342D3*
D58*
X45880Y94142D3*
Y96043D3*
X43580Y95093D3*
X52230Y94142D3*
Y96043D3*
X49930Y95093D3*
D98*
X31910Y90010D3*
Y91910D3*
D62*
X29052Y90957D3*
X26252D3*
D98*
X41117Y90005D3*
Y91905D3*
X54135Y91910D3*
Y90010D3*
D62*
X35720Y90957D3*
X38520D3*
D60*
X33963Y89858D3*
Y92057D3*
X48102Y90005D3*
Y92205D3*
D58*
X45880Y90005D3*
Y91905D3*
X43580Y90955D3*
X52230Y90005D3*
Y91905D3*
X49930Y90955D3*
D98*
X31910Y85882D3*
Y87783D3*
D62*
X29052Y86830D3*
X26252D3*
D98*
X41117Y85877D3*
Y87777D3*
X54135Y87782D3*
Y85882D3*
D62*
X35720Y86830D3*
X38520D3*
D60*
X33963Y85730D3*
Y87930D3*
X48102Y85877D3*
Y88078D3*
D58*
X45880Y85877D3*
Y87777D3*
X43580Y86828D3*
X52230Y85877D3*
Y87777D3*
X49930Y86828D3*
D98*
X31910Y81760D3*
Y83660D3*
D62*
X29052Y82707D3*
X26252D3*
D98*
X41117Y81755D3*
Y83655D3*
X54135Y83660D3*
Y81760D3*
D62*
X35720Y82707D3*
X38520D3*
D60*
X33963Y81608D3*
Y83808D3*
X48102Y81755D3*
Y83955D3*
D58*
X45880Y81755D3*
Y83655D3*
X43580Y82705D3*
X52230Y81755D3*
Y83655D3*
X49930Y82705D3*
D98*
X31910Y77638D3*
Y79538D3*
D62*
X29052Y78585D3*
X26252D3*
D98*
X41117Y77633D3*
Y79532D3*
X54135Y79538D3*
Y77638D3*
D62*
X35720Y78585D3*
X38520D3*
D60*
X33963Y77485D3*
Y79685D3*
X48102Y77633D3*
Y79833D3*
D58*
X45880Y77633D3*
Y79532D3*
X43580Y78582D3*
X52230Y77633D3*
Y79532D3*
X49930Y78582D3*
D98*
X31910Y73510D3*
Y75410D3*
D62*
X29052Y74457D3*
X26252D3*
D98*
X41117Y73505D3*
Y75405D3*
X54135Y75410D3*
Y73510D3*
D62*
X35720Y74457D3*
X38520D3*
D60*
X33963Y73358D3*
Y75558D3*
X48102Y73505D3*
Y75705D3*
D58*
X45880Y73505D3*
Y75405D3*
X43580Y74455D3*
X52230Y73505D3*
Y75405D3*
X49930Y74455D3*
D98*
X31910Y69383D3*
Y71283D3*
D62*
X29052Y70330D3*
X26252D3*
D98*
X41117Y69378D3*
Y71278D3*
X54135Y71282D3*
Y69383D3*
D62*
X35720Y70330D3*
X38520D3*
D60*
X33963Y69230D3*
Y71430D3*
X48102Y69378D3*
Y71578D3*
D58*
X45880Y69378D3*
Y71278D3*
X43580Y70328D3*
X52230Y69378D3*
Y71278D3*
X49930Y70328D3*
D98*
X31910Y65255D3*
Y67155D3*
D62*
X29052Y66203D3*
X26252D3*
D98*
X41117Y65250D3*
Y67150D3*
X54135Y67155D3*
Y65255D3*
D62*
X35720Y66203D3*
X38520D3*
D60*
X33963Y65103D3*
Y67302D3*
X48102Y65250D3*
Y67450D3*
D58*
X45880Y65250D3*
Y67150D3*
X43580Y66200D3*
X52230Y65250D3*
Y67150D3*
X49930Y66200D3*
D98*
X31910Y61128D3*
Y63028D3*
D62*
X29052Y62075D3*
X26252D3*
D98*
X41117Y61123D3*
Y63023D3*
X54135Y63028D3*
Y61128D3*
D62*
X35720Y62075D3*
X38520D3*
D60*
X33963Y60975D3*
Y63175D3*
X48102Y61123D3*
Y63322D3*
D58*
X45880Y61123D3*
Y63023D3*
X43580Y62072D3*
X52230Y61123D3*
Y63023D3*
X49930Y62072D3*
D98*
X31910Y57000D3*
Y58900D3*
D62*
X29052Y57947D3*
X26252D3*
D98*
X41117Y56995D3*
Y58895D3*
X54135Y58900D3*
Y57000D3*
D62*
X35720Y57947D3*
X38520D3*
D60*
X33963Y56848D3*
Y59048D3*
X48102Y56995D3*
Y59195D3*
D58*
X45880Y56995D3*
Y58895D3*
X43580Y57945D3*
X52230Y56995D3*
Y58895D3*
X49930Y57945D3*
D98*
X31910Y52873D3*
Y54773D3*
D62*
X29052Y53820D3*
X26252D3*
D98*
X41117Y52868D3*
Y54768D3*
X54135Y54773D3*
Y52873D3*
D62*
X35720Y53820D3*
X38520D3*
D60*
X33963Y52720D3*
Y54920D3*
X48102Y52868D3*
Y55068D3*
D58*
X45880Y52868D3*
Y54768D3*
X43580Y53818D3*
X52230Y52868D3*
Y54768D3*
X49930Y53818D3*
D90*
X93975Y60008D3*
X92075D3*
D56*
X93027Y57150D3*
Y54350D3*
D90*
X93980Y69215D3*
X92080D3*
X92075Y82233D3*
X93975D3*
D56*
X93027Y63817D3*
Y66618D3*
D60*
X94127Y62060D3*
X91927D3*
X93980Y76200D3*
X91780D3*
D64*
X93980Y73978D3*
X92080D3*
X93030Y71678D3*
X93980Y80328D3*
X92080D3*
X93030Y78027D3*
D90*
X98103Y60008D3*
X96203D3*
D56*
X97155Y57150D3*
Y54350D3*
D90*
X98108Y69215D3*
X96207D3*
X96202Y82233D3*
X98103D3*
D56*
X97155Y63817D3*
Y66618D3*
D60*
X98255Y62060D3*
X96055D3*
X98108Y76200D3*
X95908D3*
D64*
X98108Y73978D3*
X96207D3*
X97158Y71678D3*
X98108Y80328D3*
X96207D3*
X97158Y78027D3*
D90*
X102225Y60008D3*
X100325D3*
D56*
X101277Y57150D3*
Y54350D3*
D90*
X102230Y69215D3*
X100330D3*
X100325Y82233D3*
X102225D3*
D56*
X101277Y63817D3*
Y66618D3*
D60*
X102377Y62060D3*
X100178D3*
X102230Y76200D3*
X100030D3*
D64*
X102230Y73978D3*
X100330D3*
X101280Y71678D3*
X102230Y80328D3*
X100330D3*
X101280Y78027D3*
D90*
X106358Y60008D3*
X104457D3*
D56*
X105410Y57150D3*
Y54350D3*
D90*
X106363Y69215D3*
X104462D3*
X104457Y82233D3*
X106358D3*
D56*
X105410Y63817D3*
Y66618D3*
D60*
X106510Y62060D3*
X104310D3*
X106362Y76200D3*
X104163D3*
D64*
X106363Y73978D3*
X104462D3*
X105413Y71678D3*
X106363Y80328D3*
X104462D3*
X105413Y78027D3*
D90*
X110485Y60008D3*
X108585D3*
D56*
X109538Y57150D3*
Y54350D3*
D90*
X110490Y69215D3*
X108590D3*
X108585Y82233D3*
X110485D3*
D56*
X109538Y63817D3*
Y66618D3*
D60*
X110638Y62060D3*
X108438D3*
X110490Y76200D3*
X108290D3*
D64*
X110490Y73978D3*
X108590D3*
X109540Y71678D3*
X110490Y80328D3*
X108590D3*
X109540Y78027D3*
D90*
X114612Y60008D3*
X112712D3*
D56*
X113665Y57150D3*
Y54350D3*
D90*
X114618Y69215D3*
X112717D3*
X112713Y82233D3*
X114613D3*
D56*
X113665Y63817D3*
Y66618D3*
D60*
X114765Y62060D3*
X112565D3*
X114618Y76200D3*
X112418D3*
D64*
X114618Y73978D3*
X112717D3*
X113668Y71678D3*
X114618Y80328D3*
X112717D3*
X113668Y78027D3*
D90*
X118740Y60008D3*
X116840D3*
D56*
X117793Y57150D3*
Y54350D3*
D90*
X118745Y69215D3*
X116845D3*
X116840Y82233D3*
X118740D3*
D56*
X117793Y63817D3*
Y66618D3*
D60*
X118892Y62060D3*
X116693D3*
X118745Y76200D3*
X116545D3*
D64*
X118745Y73978D3*
X116845D3*
X117795Y71678D3*
X118745Y80328D3*
X116845D3*
X117795Y78027D3*
D90*
X122867Y60008D3*
X120967D3*
D56*
X121920Y57150D3*
Y54350D3*
D90*
X122873Y69215D3*
X120973D3*
X120967Y82233D3*
X122868D3*
D56*
X121920Y63817D3*
Y66618D3*
D60*
X123020Y62060D3*
X120820D3*
X122873Y76200D3*
X120673D3*
D64*
X122873Y73978D3*
X120972D3*
X121922Y71678D3*
X122873Y80328D3*
X120972D3*
X121922Y78027D3*
D28*
X5080Y5080D3*
Y153035D3*
X153035D3*
Y5080D3*
D47*
X78740Y78740D3*
M02*
